SplineFontDB: 3.2
FontName: OverusedGrotesk-Black
FullName: Overused Grotesk Black
FamilyName: Overused Grotesk
Weight: Black
Copyright: Copyright (c) 2023, Bao Nguyen (RandomMaerks) (rmforbusiness@gmail.com)
UComments: "2023-7-28: Created with FontForge (http://fontforge.org)"
Version: 0.4
ItalicAngle: 0
UnderlinePosition: -102
UnderlineWidth: 51
Ascent: 819
Descent: 205
InvalidEm: 0
UFOAscent: 819.2
UFODescent: -204.8
LayerCount: 2
Layer: 0 0 "Back" 1
Layer: 1 0 "public.default" 0 "glyphs"
StyleMap: 0x0000
FSType: 0
OS2Version: 0
OS2_WeightWidthSlopeOnly: 0
OS2_UseTypoMetrics: 1
CreationTime: 1691315371
ModificationTime: 1695823649
PfmFamily: 17
TTFWeight: 900
TTFWidth: 5
LineGap: 92
VLineGap: 0
OS2TypoAscent: 819
OS2TypoAOffset: 0
OS2TypoDescent: -205
OS2TypoDOffset: 0
OS2TypoLinegap: 92
OS2WinAscent: 1024
OS2WinAOffset: 0
OS2WinDescent: 225
OS2WinDOffset: 0
HheadAscent: 1024
HheadAOffset: 0
HheadDescent: -225
HheadDOffset: 0
OS2Vendor: 'Rand'
Lookup: 1 0 0 "'ss11' Style Set 11 in Latin lookup 21" { "'ss11' Style Set 11 in Latin lookup 21-1" ("ss11") } ['ss11' ('DFLT' <'dflt' > 'latn' <'dflt' > ) ]
Lookup: 1 0 0 "'cv05' Character Variants 05 in Latin lookup 22" { "'cv05' Character Variants 05 in Latin lookup 22-1" ("spur.ss01") } ['cv05' ('DFLT' <'dflt' > 'latn' <'dflt' > ) ]
Lookup: 1 0 0 "'cv01' Character Variants 01 in Latin lookup 16" { "'cv01' Character Variants 01 in Latin lookup 16-1" ("cv01") } ['cv01' ('DFLT' <'dflt' > 'latn' <'dflt' > ) ]
Lookup: 1 0 0 "'cv02' Character Variants 02 in Latin lookup 17" { "'cv02' Character Variants 02 in Latin lookup 17-1" ("cv02") } ['cv02' ('DFLT' <'dflt' > 'latn' <'dflt' > ) ]
Lookup: 1 0 0 "'cv03' Character Variants 03 in Latin lookup 18" { "'cv03' Character Variants 03 in Latin lookup 18-1"  } ['cv03' ('DFLT' <'dflt' > 'latn' <'dflt' > ) ]
Lookup: 1 0 0 "'cv04' Character Variants 04 in Latin lookup 19" { "'cv04' Character Variants 04 in Latin lookup 19-1"  } ['cv04' ('DFLT' <'dflt' > 'latn' <'dflt' > ) ]

StartChar: A
Encoding: 65 65 0
GlifName: A_
Width: 693
VWidth: 0
GlyphClass: 2
Flags: W
HStem: 0 21G<15 223.462 470.366 678> 104 152<177 517> 646 20G<229.363 464.607>
AnchorPoint: "bottom2" 678 0 basechar 0
AnchorPoint: "bottom1" 348 0 basechar 0
AnchorPoint: "top1" 344 717 basechar 0
LayerCount: 2
Fore
SplineSet
177 256 m 261
 517 256 l 261
 517 104 l 261
 177 104 l 261
 177 256 l 261
678 0 m 261
 476 0 l 261
 345 465 l 261
 218 0 l 261
 15 0 l 261
 236 666 l 261
 458 666 l 261
 678 0 l 261
EndSplineSet
EndChar

StartChar: AE
Encoding: 198 198 1
GlifName: A_E_
Width: 985
VWidth: 0
GlyphClass: 2
Flags: W
HStem: 0 182<642 939> 104 152<311 447> 245 182<642 910> 483 183<642 939>
AnchorPoint: "top1" 426 717 basechar 0
LayerCount: 2
Fore
SplineSet
939 666 m 257x90
 939 483 l 257
 642 483 l 257
 642 427 l 257
 910 427 l 257
 910 245 l 257
 642 245 l 257
 642 182 l 257
 939 182 l 257
 939 0 l 257
 447 0 l 257xb0
 447 104 l 257
 256 104 l 257x50
 218 0 l 257
 15 0 l 257
 280 666 l 257
 939 666 l 257x90
311 256 m 257x50
 447 256 l 257
 447 492 l 257
 396 492 l 257
 311 256 l 257x50
EndSplineSet
EndChar

StartChar: B
Encoding: 66 66 12
GlifName: B_
Width: 663
VWidth: 0
GlyphClass: 2
Flags: W
HStem: 0 162<241 422.265> 255 162<241 393.004> 504 162<241 390.877>
VStem: 46 195<162 255 417 504> 399 198<421.933 548.078> 430 198<170.241 247.427>
LayerCount: 2
Fore
SplineSet
385 666 m 262xf4
 511 666 597 597 597 498 c 260xf8
 597 436 562 380 506 353 c 261
 581 324 628 256 628 175 c 260
 628 71 550 0 436 0 c 262
 46 0 l 261
 46 666 l 261
 385 666 l 262xf4
360 504 m 262
 241 504 l 261
 241 417 l 261
 360 417 l 262
 380 417 399 437 399 461 c 260
 399 484 380 504 360 504 c 262
385 255 m 262
 241 255 l 261
 241 162 l 261
 381 162 l 262
 408 162 430 184 430 210 c 260xf4
 430 235 410 255 385 255 c 262
EndSplineSet
EndChar

StartChar: C
Encoding: 67 67 13
GlifName: C_
Width: 693
VWidth: 0
GlyphClass: 2
Flags: W
HStem: -8 174<288.539 421.075> 502 174<288.409 422.259>
VStem: 36 197<227.217 441.714> 460 197<203.453 260 409 464.733>
AnchorPoint: "bottom1" 350 0 basechar 0
AnchorPoint: "top1" 349 717 basechar 0
LayerCount: 2
Fore
SplineSet
36 335 m 256
 36 540 161 676 350 676 c 256
 521 676 644 589 657 409 c 257
 460 409 l 257
 458 466 415 502 353 502 c 256
 277 502 233 441 233 335 c 256
 233 227 277 166 353 166 c 256
 415 166 457 203 460 260 c 257
 657 260 l 257
 653 77 519 -8 350 -8 c 256
 162 -8 36 129 36 335 c 256
EndSplineSet
EndChar

StartChar: D
Encoding: 68 68 20
GlifName: D_
Width: 695
VWidth: 0
GlyphClass: 2
Flags: W
HStem: 0 172<241 413.897> 494 172<241 404.379>
VStem: 46 195<172 494> 462 197<220.534 430.212>
AnchorPoint: "top1" 318 717 basechar 0
LayerCount: 2
Fore
SplineSet
241 494 m 257
 241 172 l 257
 355 172 l 258
 423 172 462 227 462 321 c 256
 462 431 415 494 335 494 c 258
 241 494 l 257
345 666 m 258
 533 666 659 528 659 321 c 256
 659 128 542 0 366 0 c 258
 46 0 l 257
 46 666 l 257
 345 666 l 258
EndSplineSet
EndChar

StartChar: Dcroat
Encoding: 272 272 22
GlifName: D_croat
Width: 762
VWidth: 0
GlyphClass: 2
Flags: HW
LayerCount: 2
Fore
SplineSet
31 414 m 257
 432 414 l 257
 432 252 l 257
 31 252 l 257
 31 414 l 257
308 494 m 257
 308 172 l 257
 423 172 l 258
 491 172 529 227 529 321 c 256
 529 431 482 494 402 494 c 258
 308 494 l 257
413 666 m 258
 601 666 727 528 727 321 c 256
 727 128 609 0 433 0 c 258
 114 0 l 257
 114 666 l 257
 413 666 l 258
EndSplineSet
EndChar

StartChar: E
Encoding: 69 69 23
GlifName: E_
Width: 573
VWidth: 0
GlyphClass: 2
Flags: W
HStem: 0 182<241 538> 245 182<241 509> 483 183<241 538>
VStem: 46 195<182 245 427 483>
AnchorPoint: "bottom2" 523 0 basechar 0
AnchorPoint: "bottom1" 303 0 basechar 0
AnchorPoint: "top1" 305 717 basechar 0
LayerCount: 2
Fore
SplineSet
538 666 m 257
 538 483 l 257
 241 483 l 257
 241 427 l 257
 509 427 l 257
 509 245 l 257
 241 245 l 257
 241 182 l 257
 538 182 l 257
 538 0 l 257
 46 0 l 257
 46 666 l 257
 538 666 l 257
EndSplineSet
EndChar

StartChar: Eng
Encoding: 330 330 34
GlifName: E_ng
Width: 696
VWidth: 0
GlyphClass: 2
Flags: HW
LayerCount: 2
Fore
SplineSet
456 666 m 257
 650 666 l 257
 650 8 l 258
 650 -126 567 -205 426 -205 c 258
 362 -205 l 257
 362 -33 l 257
 394 -33 l 258
 437 -33 456 -19 456 14 c 258
 456 31 l 257
 241 370 l 257
 241 0 l 257
 46 0 l 257
 46 666 l 257
 282 666 l 257
 456 336 l 257
 456 666 l 257
EndSplineSet
EndChar

StartChar: Eth
Encoding: 208 208 36
GlifName: E_th
Width: 762
VWidth: 0
GlyphClass: 2
Flags: W
HStem: 0 172<308 480.921> 252 162<31 432> 494 172<308 472.233>
VStem: 114 194<172 494> 529 198<220.534 430.212>
CounterMasks: 1 e0
LayerCount: 2
Fore
SplineSet
31 414 m 257
 432 414 l 257
 432 252 l 257
 31 252 l 257
 31 414 l 257
308 494 m 257
 308 172 l 257
 423 172 l 258
 491 172 529 227 529 321 c 256
 529 431 482 494 402 494 c 258
 308 494 l 257
413 666 m 258
 601 666 727 528 727 321 c 256
 727 128 609 0 433 0 c 258
 114 0 l 257
 114 666 l 257
 413 666 l 258
EndSplineSet
EndChar

StartChar: F
Encoding: 70 70 37
GlifName: F_
Width: 573
VWidth: 0
GlyphClass: 2
Flags: W
HStem: 0 21G<46 241> 214 182<241 509> 483 183<241 538>
VStem: 46 195<0 214 396 483>
LayerCount: 2
Fore
SplineSet
538 666 m 261
 538 483 l 261
 241 483 l 261
 241 396 l 261
 509 396 l 261
 509 214 l 261
 241 214 l 261
 241 0 l 261
 46 0 l 261
 46 666 l 261
 538 666 l 261
EndSplineSet
EndChar

StartChar: G
Encoding: 71 71 38
GlifName: G_
Width: 703
VWidth: 0
GlyphClass: 2
Flags: HW
HStem: -8 174<286.599 426.226> 0 21G<528.047 657> 237 154<328 458> 503 173<289.384 427.934>
VStem: 36 197<225.655 437.722>
AnchorPoint: "bottom1" 375 0 basechar 0
AnchorPoint: "top1" 349 717 basechar 0
LayerCount: 2
Fore
SplineSet
491 258 m 261x78
 657 391 l 257
 657 0 l 257
 512 0 l 257
 491 258 l 261x78
328 391 m 257
 657 391 l 257
 637 237 l 257
 328 237 l 257
 328 391 l 257
36 335 m 256
 36 540 161 676 350 676 c 256
 521 676 645 586 657 429 c 257
 460 429 l 257
 451.416666667 474 417.083333333 503 357 503 c 256
 278.848739496 503 233 441 233 335 c 256
 233 227 276 166 350 166 c 256
 416 166 458 199 458 250 c 257
 570 250 l 257
 570 100 469.442922374 -8 328 -8 c 256xb8
 152.8 -8 36 129 36 335 c 256
EndSplineSet
Substitution2: "ss04StyleSet4inLatinlookup3 subtable" G.ss04
EndChar

StartChar: G.ss04
Encoding: 65540 -1 39
GlifName: G_.ss04
Width: 703
VWidth: 0
GlyphClass: 2
Flags: HW
HStem: -8 174<292.709 434.1> 237 154<328 459> 503 173<289.196 431.794>
VStem: 36 197<233.014 441.895>
AnchorPoint: "top1" 349 717 basechar 0
AnchorPoint: "bottom1" 375 0 basechar 0
LayerCount: 2
Fore
SplineSet
36 335 m 256
 36 540 161 676 350 676 c 256
 527 676 645 581 657 433 c 257
 460 433 l 257
 454 476 413 503 357 503 c 256
 278 503 233 441 233 335 c 256
 233 227 282 166 364 166 c 256
 419.2 166 451.157894737 194 456 237 c 257
 328 237 l 257
 328 391 l 257
 657 391 l 257
 657 335 l 258
 657 132.278931751 547.791808874 -8 361 -8 c 256
 166.792682927 -8 36 129 36 335 c 256
EndSplineSet
EndChar

StartChar: H
Encoding: 72 72 44
GlifName: H_
Width: 675
VWidth: 0
GlyphClass: 2
Flags: W
HStem: 0 21G<46 241 435 630> 253 182<241 435> 646 20G<46 241 435 630>
VStem: 46 195<0 253 435 666> 435 195<0 253 435 666>
AnchorPoint: "top1" 339 717 basechar 0
LayerCount: 2
Fore
SplineSet
46 666 m 261
 241 666 l 261
 241 435 l 261
 435 435 l 261
 435 666 l 261
 630 666 l 261
 630 0 l 261
 435 0 l 261
 435 253 l 261
 241 253 l 261
 241 0 l 261
 46 0 l 261
 46 666 l 261
EndSplineSet
EndChar

StartChar: Hbar
Encoding: 294 294 45
GlifName: H_bar
Width: 696
VWidth: 0
GlyphClass: 2
Flags: W
HStem: 0 21G<56 251 445 640> 253 162<251 445> 483 121<10 686> 646 20G<56 251 445 640>
VStem: 56 195<0 253 415 666> 445 195<0 253 415 666>
LayerCount: 2
Fore
SplineSet
10 604 m 257
 686 604 l 257
 686 483 l 257
 10 483 l 257
 10 604 l 257
56 666 m 257
 251 666 l 257
 251 415 l 257
 445 415 l 257
 445 666 l 257
 640 666 l 257
 640 0 l 257
 445 0 l 257
 445 253 l 257
 251 253 l 257
 251 0 l 257
 56 0 l 257
 56 666 l 257
EndSplineSet
EndChar

StartChar: I
Encoding: 73 73 47
GlifName: I_
Width: 282
VWidth: 0
GlyphClass: 2
Flags: W
HStem: 0 21G<44 239> 646 20G<44 239>
VStem: 44 195<0 666>
AnchorPoint: "bottom2" 239 0 basechar 0
AnchorPoint: "bottom1" 143 0 basechar 0
AnchorPoint: "top1" 144 717 basechar 0
LayerCount: 2
Fore
SplineSet
44 666 m 261
 239 666 l 261
 239 0 l 261
 44 0 l 261
 44 666 l 261
EndSplineSet
Substitution2: "'ss11' Style Set 11 in Latin lookup 21-1" I.ss11
EndChar

StartChar: J
Encoding: 74 74 60
GlifName: J_
Width: 401
VWidth: 0
GlyphClass: 2
Flags: W
HStem: 0 172<16 148.495> 646 20G<161 355>
VStem: 161 194<185.149 666>
AnchorPoint: "top1" 259 717 basechar 0
LayerCount: 2
Fore
SplineSet
16 172 m 261
 99 172 l 262
 141 172 161 196 161 250 c 262
 161 666 l 261
 355 666 l 261
 355 223 l 262
 355 83 280 0 152 0 c 262
 16 0 l 261
 16 172 l 261
EndSplineSet
Substitution2: "ss06StyleSet6inLatinlookup5 subtable" J.ss06
EndChar

StartChar: J.ss06
Encoding: 65544 -1 61
GlifName: J_.ss06
Width: 613
VWidth: 0
GlyphClass: 2
Flags: W
HStem: -8 184<253.644 350.729> 646 20G<368 572>
VStem: 368 204<192.785 666>
AnchorPoint: "top1" 469 717 basechar 0
LayerCount: 2
Fore
SplineSet
226 275 m 257
 228 213 257 176 303 176 c 256
 344 176 368 203 368 248 c 258
 368 666 l 257
 572 666 l 257
 572 248 l 258
 572 94 465 -8 305 -8 c 256
 148 -8 43 105 41 275 c 257
 226 275 l 257
EndSplineSet
EndChar

StartChar: K
Encoding: 75 75 63
GlifName: K_
Width: 695
VWidth: 0
GlyphClass: 2
Flags: W
HStem: 0 21G<46 241 451.109 690> 646 20G<46 241 422.535 678>
VStem: 46 195<0 141 283 666>
AnchorPoint: "bottom1" 349 0 basechar 0
AnchorPoint: "top1" 349 717 basechar 0
LayerCount: 2
Fore
SplineSet
46 666 m 257
 241 666 l 257
 241 0 l 257
 46 0 l 257
 46 666 l 257
437 666 m 257
 678 666 l 257
 434 342 l 257
 690 0 l 257
 465 0 l 257
 299 239 l 257
 231 141 l 257
 160 283 l 257
 437 666 l 257
EndSplineSet
EndChar

StartChar: L
Encoding: 76 76 64
GlifName: L_
Width: 512
VWidth: 0
GlyphClass: 2
Flags: W
HStem: 0 182<241 486> 646 20G<46 241>
VStem: 46 195<182 666>
AnchorPoint: "top2" 289 461 basechar 0
AnchorPoint: "bottom1" 283 0 basechar 0
AnchorPoint: "top1" 146 717 basechar 0
LayerCount: 2
Fore
SplineSet
486 0 m 261
 46 0 l 261
 46 666 l 261
 241 666 l 261
 241 182 l 261
 486 182 l 261
 486 0 l 261
EndSplineSet
EndChar

StartChar: Lslash
Encoding: 321 321 69
GlifName: L_slash
Width: 542
VWidth: 0
GlyphClass: 2
Flags: W
HStem: 0 182<271 517> 646 20G<77 271>
VStem: 77 194<182 666>
LayerCount: 2
Fore
SplineSet
0 411 m 257
 387 486 l 257
 387 335 l 257
 0 259 l 257
 0 411 l 257
517 0 m 257
 77 0 l 257
 77 666 l 257
 271 666 l 257
 271 182 l 257
 517 182 l 257
 517 0 l 257
EndSplineSet
EndChar

StartChar: M
Encoding: 77 77 70
GlifName: M_
Width: 886
VWidth: 0
GlyphClass: 2
Flags: HW
LayerCount: 2
Fore
SplineSet
530 0 m 257
 356 0 l 257
 241 390 l 257
 241 0 l 257
 46 0 l 257
 46 666 l 257
 334 666 l 257
 443 268 l 257
 549 666 l 257
 841 666 l 257
 841 0 l 257
 646 0 l 257
 646 390 l 257
 530 0 l 257
EndSplineSet
EndChar

StartChar: N
Encoding: 78 78 71
GlifName: N_
Width: 696
VWidth: 0
GlyphClass: 2
Flags: HW
AnchorPoint: "bottom1" 353 0 basechar 0
AnchorPoint: "top1" 349 717 basechar 0
LayerCount: 2
Fore
SplineSet
456 666 m 261
 650 666 l 261
 650 0 l 261
 449 0 l 261
 241 370 l 261
 241 0 l 261
 46 0 l 261
 46 666 l 261
 282 666 l 261
 456 326 l 261
 456 666 l 261
EndSplineSet
EndChar

StartChar: O
Encoding: 79 79 75
GlifName: O_
Width: 721
VWidth: 0
GlyphClass: 2
Flags: W
HStem: -8 174<289.105 432.383> 502 174<290.406 431.092>
VStem: 36 197<226.39 436.384> 488 198<226.39 436.384>
AnchorPoint: "top3" 440 666 basechar 0
AnchorPoint: "bottom1" 359 0 basechar 0
AnchorPoint: "top1" 361 717 basechar 0
LayerCount: 2
Fore
SplineSet
36 325 m 256
 36 536 165 676 361 676 c 256
 556 676 686 536 686 325 c 256
 686 125 556 -8 361 -8 c 256
 165 -8 36 125 36 325 c 256
488 325 m 256
 488 437 441 502 361 502 c 256
 280 502 233 437 233 325 c 256
 233 225 280 166 361 166 c 256
 441 166 488 225 488 325 c 256
EndSplineSet
EndChar

StartChar: OE
Encoding: 338 338 76
GlifName: O_E_
Width: 1015
VWidth: 0
GlyphClass: 2
Flags: HW
LayerCount: 2
Fore
SplineSet
980 666 m 257
 980 483 l 257
 683 483 l 257
 683 427 l 257
 951 427 l 257
 951 245 l 257
 683 245 l 257
 683 182 l 257
 980 182 l 257
 980 0 l 257
 488 0 l 257
 488 666 l 257
 980 666 l 257
36 330 m 256
 36 535 149 676 314 676 c 260
 464 676 563 538 563 330 c 256
 563 124 466 -8 314 -8 c 260
 148 -8 36 127 36 330 c 256
488 330 m 256
 488 437 441 502 361 502 c 256
 281 502 233 437 233 330 c 256
 233 225 280 166 361 166 c 256
 442 166 488 225 488 330 c 256
EndSplineSet
EndChar

StartChar: Ohorn
Encoding: 416 416 83
GlifName: O_horn
Width: 721
VWidth: 0
GlyphClass: 2
Flags: W
HStem: -8 174<289.105 432.383> 502 174<290.406 431.092> 565 111<451 556>
VStem: 36 197<226.39 436.384> 488 198<226.39 436.384> 605 144<672.686 791>
AnchorPoint: "top1" 361 717 basechar 0
AnchorPoint: "bottom1" 359 0 basechar 0
LayerCount: 2
Fore
SplineSet
36 325 m 256xd8
 36 536 165 676 361 676 c 260
 556 676 686 536 686 325 c 260
 686 125 556 -8 361 -8 c 260
 165 -8 36 125 36 325 c 256xd8
488 325 m 260
 488 437 441 502 361 502 c 260
 280 502 233 437 233 325 c 256
 233 225 280 166 361 166 c 260
 441 166 488 225 488 325 c 260
451 666 m 261
 554 666 l 262
 583 666 605 676 605 723 c 262
 605 791 l 261
 749 791 l 261
 749 717 l 262
 749 601 652 565 565 565 c 262
 451 565 l 261xb4
 451 666 l 261
EndSplineSet
EndChar

StartChar: Oslash
Encoding: 216 216 86
GlifName: O_slash
Width: 721
VWidth: 0
GlyphClass: 2
Flags: W
HStem: -8 174<291.734 432.383> 502 174<290.406 431.092> 697 20G<571.907 611.902>
VStem: 36 197<252.012 436.384> 488 198<226.39 412.646>
LayerCount: 2
Fore
SplineSet
588 717 m 261
 686 635 l 261
 134 -51 l 257
 36 31 l 257
 588 717 l 261
36 325 m 256
 36 536 165 676 361 676 c 256
 556 676 686 536 686 325 c 256
 686 125 556 -8 361 -8 c 256
 165 -8 36 125 36 325 c 256
488 325 m 256
 488 437 441 502 361 502 c 256
 280 502 233 437 233 325 c 256
 233 225 280 166 361 166 c 256
 441 166 488 225 488 325 c 256
EndSplineSet
EndChar

StartChar: P
Encoding: 80 80 88
GlifName: P_
Width: 641
VWidth: 0
GlyphClass: 2
Flags: W
HStem: 0 21G<46 241> 201 172<241 391.66> 501 165<241 395.156>
VStem: 46 195<0 201 373 501> 411 199<390.758 483.72>
LayerCount: 2
Fore
SplineSet
336 501 m 262
 241 501 l 261
 241 373 l 261
 336 373 l 262
 383 373 411 397 411 438 c 260
 411 478 383 501 336 501 c 262
372 201 m 262
 241 201 l 261
 241 0 l 261
 46 0 l 261
 46 666 l 261
 353 666 l 262
 508 666 610 574 610 438 c 260
 610 297 514 201 372 201 c 262
EndSplineSet
EndChar

StartChar: Q
Encoding: 81 81 89
GlifName: Q_
Width: 721
VWidth: 0
GlyphClass: 2
Flags: W
HStem: -8 174<289.105 417.217> 502 174<290.406 431.092>
VStem: 36 197<226.39 436.384> 488 198<278.273 436.384>
LayerCount: 2
Fore
SplineSet
717 105 m 257
 618 -17 l 257
 301 243 l 257
 399 366 l 257
 717 105 l 257
36 325 m 256
 36 536 165 676 361 676 c 256
 556 676 686 536 686 325 c 256
 686 125 556 -8 361 -8 c 256
 165 -8 36 125 36 325 c 256
488 325 m 256
 488 437 441 502 361 502 c 256
 280 502 233 437 233 325 c 256
 233 225 280 166 361 166 c 256
 441 166 488 225 488 325 c 256
EndSplineSet
EndChar

StartChar: R
Encoding: 82 82 90
GlifName: R_
Width: 641
VWidth: 0
GlyphClass: 2
Flags: W
HStem: 0 21G<46 241 418.41 612> 214 162<241 380> 286 30<388 518> 504 162<241 398.512>
VStem: 46 195<0 214 376 504> 413 192<390.632 489.288>
AnchorPoint: "bottom1" 331 0 basechar 0
AnchorPoint: "top1" 318 717 basechar 0
LayerCount: 2
Fore
SplineSet
331 214 m 257xdc
 388 316 l 257xbc
 526 316 580 282 594 157 c 258
 612 0 l 257
 421 0 l 257
 403 139 l 258
 397 189 378 214 331 214 c 257xdc
342 504 m 258
 241 504 l 257
 241 376 l 257
 342 376 l 258xdc
 387 376 413 399 413 441 c 256
 413 481 387 504 342 504 c 258
388 286 m 257xbc
 380 214 l 257
 241 214 l 257xdc
 241 0 l 257
 46 0 l 257
 46 666 l 257
 373 666 l 258
 512 666 605 589 605 472 c 256
 605 360 518 286 388 286 c 257xbc
EndSplineSet
Substitution2: "ss05StyleSet5inLatinlookup4 subtable" R.ss05
EndChar

StartChar: R.ss05
Encoding: 65547 -1 91
GlifName: R_.ss05
Width: 641
VWidth: 0
GlyphClass: 2
Flags: HW
AnchorPoint: "top1" 318 717 basechar 0
AnchorPoint: "bottom1" 331 0 basechar 0
LayerCount: 2
Fore
SplineSet
485 269 m 257
 629 0 l 257
 412 0 l 257
 297 269 l 257
 485 269 l 257
342 504 m 258
 241 504 l 257
 241 376 l 257
 342 376 l 258
 387 376 413 399 413 441 c 256
 413 481 387 504 342 504 c 258
393 214 m 258
 241 214 l 257
 241 0 l 257
 46 0 l 257
 46 666 l 257
 373 666 l 258
 512 666 605 572 605 431 c 256
 605 301 520 214 393 214 c 258
EndSplineSet
EndChar

StartChar: S
Encoding: 83 83 94
GlifName: S_
Width: 645
VWidth: 0
GlyphClass: 2
Flags: W
HStem: -8 151<260.158 398.615> 526 149<251.334 379.527>
VStem: 41 197<168.316 211 443.765 511.668> 413 196<157.688 224.834>
AnchorPoint: "bottom1" 336 0 basechar 0
AnchorPoint: "top1" 313 717 basechar 0
LayerCount: 2
Fore
SplineSet
358 234 m 262
 241 245 l 262
 112 257 41 335 41 464 c 260
 41 594 146 675 314 675 c 260
 476 675 583 594 597 462 c 261
 400 462 l 261
 392 506 364 526 312 526 c 260
 267 526 238 506 238 475 c 260
 238 452 251 440 279 437 c 262
 383 427 l 262
 536 412 609 339 609 204 c 260
 609 76 502 -8 338 -8 c 260
 166 -8 52 75 36 211 c 261
 234 211 l 261
 242 165 277 143 339 143 c 260
 384 143 413 165 413 198 c 260
 413 220 394 231 358 234 c 262
EndSplineSet
EndChar

StartChar: T
Encoding: 84 84 99
GlifName: T_
Width: 593
VWidth: 0
GlyphClass: 2
Flags: W
HStem: 0 21G<200 394> 483 183<26 200 394 568>
VStem: 200 194<0 483>
AnchorPoint: "bottom1" 301 0 basechar 0
AnchorPoint: "top1" 294 717 basechar 0
LayerCount: 2
Fore
SplineSet
568 666 m 261
 568 483 l 261
 394 483 l 261
 394 0 l 261
 200 0 l 261
 200 483 l 261
 26 483 l 261
 26 666 l 261
 568 666 l 261
EndSplineSet
EndChar

StartChar: Tbar
Encoding: 358 358 100
GlifName: T_bar
Width: 593
VWidth: 0
GlyphClass: 2
Flags: W
HStem: 0 21G<200 394> 197 172<87 519> 483 183<26 200 394 568>
VStem: 200 194<0 483>
LayerCount: 2
Fore
SplineSet
87 369 m 257
 519 369 l 257
 519 197 l 257
 87 197 l 257
 87 369 l 257
568 666 m 257
 568 483 l 257
 394 483 l 257
 394 0 l 257
 200 0 l 257
 200 483 l 257
 26 483 l 257
 26 666 l 257
 568 666 l 257
EndSplineSet
EndChar

StartChar: Thorn
Encoding: 222 222 102
GlifName: T_horn
Width: 641
VWidth: 0
GlyphClass: 2
Flags: HW
LayerCount: 2
Fore
SplineSet
44 666 m 257
 239 666 l 257
 239 573 l 257
 353 573 l 258
 508 573 610 482 610 346 c 256
 610 205 514 109 372 109 c 258
 241 109 l 257
 241 0 l 257
 44 0 l 257
 44 666 l 257
241 409 m 257
 241 281 l 257
 336 281 l 258
 383 281 411 305 411 346 c 256
 411 386 383 409 336 409 c 258
 241 409 l 257
EndSplineSet
EndChar

StartChar: U
Encoding: 85 85 103
GlifName: U_
Width: 654
VWidth: 0
GlyphClass: 2
Flags: W
HStem: -8 184<263.377 394.653> 646 20G<41 236 419 613>
VStem: 41 195<204.557 666> 419 194<204.557 666>
AnchorPoint: "top3" 419 666 basechar 0
AnchorPoint: "bottom2" 406 0 basechar 0
AnchorPoint: "bottom1" 334 0 basechar 0
AnchorPoint: "top1" 322 717 basechar 0
LayerCount: 2
Fore
SplineSet
41 666 m 261
 236 666 l 261
 236 263 l 262
 236 208 272 176 334 176 c 260
 388 176 419 208 419 263 c 262
 419 666 l 261
 613 666 l 261
 613 263 l 262
 613 100 501 -8 334 -8 c 260
 158 -8 41 100 41 263 c 262
 41 666 l 261
EndSplineSet
EndChar

StartChar: V
Encoding: 86 86 116
GlifName: V_
Width: 693
VWidth: 0
GlyphClass: 2
Flags: W
HStem: 0 21G<229.363 464.607> 646 20G<15 222.634 469.538 678>
LayerCount: 2
Fore
SplineSet
15 666 m 257
 217 666 l 257
 348 201 l 257
 475 666 l 257
 678 666 l 257
 458 0 l 257
 236 0 l 257
 15 666 l 257
EndSplineSet
EndChar

StartChar: W
Encoding: 87 87 117
GlifName: W_
Width: 1070
VWidth: 0
GlyphClass: 2
Flags: W
HStem: 0 21G<181.835 444.877 627.463 881.375> 646 20G<15 221.087 408.565 659.609 849 1055>
AnchorPoint: "top1" 527 717 basechar 0
LayerCount: 2
Fore
SplineSet
15 666 m 261
 217 666 l 261
 311 206 l 261
 413 666 l 261
 655 666 l 261
 761 206 l 261
 853 666 l 261
 1055 666 l 261
 876 0 l 261
 632 0 l 261
 529 454 l 261
 441 0 l 261
 187 0 l 261
 15 666 l 261
EndSplineSet
EndChar

StartChar: X
Encoding: 88 88 119
GlifName: X_
Width: 672
VWidth: 0
GlyphClass: 2
Flags: HW
HStem: 0 21G<15 228.685 444.95 657> 646 20G<15 228 444.364 657>
LayerCount: 2
Fore
SplineSet
15 666 m 257
 233 666 l 257
 338 442 l 257
 439 666 l 257
 657 666 l 257
 496 333 l 257
 657 0 l 257
 440 0 l 257
 335 223 l 257
 234 0 l 257
 15 0 l 257
 177 333 l 257
 15 666 l 257
EndSplineSet
EndChar

StartChar: Y
Encoding: 89 89 120
GlifName: Y_
Width: 672
VWidth: 0
GlyphClass: 2
Flags: W
HStem: 0 21G<238 432> 646 20G<15 236.061 435.347 657>
VStem: 238 194<0 221>
AnchorPoint: "bottom1" 339 0 basechar 0
AnchorPoint: "top1" 335 717 basechar 0
LayerCount: 2
Fore
SplineSet
238 222 m 261
 15 666 l 261
 227 666 l 261
 338 421 l 261
 444 666 l 261
 657 666 l 261
 432 221 l 261
 432 0 l 261
 238 0 l 261
 238 222 l 261
EndSplineSet
EndChar

StartChar: Z
Encoding: 90 90 126
GlifName: Z_
Width: 616
VWidth: 0
GlyphClass: 2
Flags: W
HStem: 0 162<258 570> 504 162<46 357>
AnchorPoint: "top1" 309 717 basechar 0
LayerCount: 2
Fore
SplineSet
46 666 m 257
 570 666 l 257
 570 473 l 257
 258 162 l 257
 570 162 l 257
 570 0 l 257
 46 0 l 257
 46 193 l 257
 357 504 l 257
 46 504 l 257
 46 666 l 257
EndSplineSet
EndChar

StartChar: a
Encoding: 97 97 131
GlifName: a
Width: 591
VWidth: 0
GlyphClass: 2
Flags: HW
HStem: -14 149<155.817 293.436> 0 21G<360.905 561> 393 136<247.63 341.083>
VStem: 351 195<1.52485 216 323 383.352>
AnchorPoint: "bottom1" 313 0 basechar 0
AnchorPoint: "bottom2" 546 0 basechar 0
AnchorPoint: "top1" 295 573 basechar 0
LayerCount: 2
Fore
SplineSet
546 323 m 258
 546 0 l 257
 351 0 l 257
 351 355 l 258
 351 377.208831392 326.708977165 396 298 396 c 260
 262.332776633 396 241.217717931 380.42331735 237 351 c 257
 38 351 l 257
 45.9477537422 458.851454971 148.017827688 529 297 529 c 256
 448.04611957 529 546 447.961849925 546 323 c 258
377 176 m 257
 377 56.8538409399 312.858628202 -14 205 -14 c 256
 106.633653552 -14 34 57.3593789278 34 154 c 256
 34 257.700073309 89.2700784457 311.388667906 198 318 c 258
 316 325 l 258
 341.476723141 326.511331034 351 334.597516619 351 353 c 257
 352 208 l 257
 272 205 l 258
 245.246882389 203.99675809 230 190.214747908 230 167 c 256
 230 143.516139943 252.296788923 127 284 127 c 256xb0
 320.925028972 127 351 153.932809875 351 187 c 257
 377 176 l 257
EndSplineSet
Substitution2: "'cv05' Character Variants 05 in Latin lookup 22-1" a.spur
Substitution2: "ss01StyleSet1inLatinlookup0 subtable" a.ss01
EndChar

StartChar: a.ss01
Encoding: 65551 -1 132
GlifName: a.ss01
Width: 622
VWidth: 0
GlyphClass: 2
Flags: W
HStem: -18 163<175.5 318.597> 369 163<175.5 319.643>
VStem: 34 197<175.183 339.676> 384 44<92 423>
AnchorPoint: "bottom2" 579 0 basechar 0
AnchorPoint: "top1" 315 573 basechar 0
AnchorPoint: "bottom1" 334 0 basechar 0
LayerCount: 2
Fore
SplineSet
579 512 m 261
 384 512 l 261
 384 0 l 261
 579 0 l 261
 579 512 l 261
428 258 m 260
 428 423 352 532 236 532 c 260
 115 532 34 423 34 258 c 260
 34 92 115 -18 236 -18 c 260
 352 -18 428 92 428 258 c 260
231 258 m 260
 231 328 260 369 307 369 c 260
 355 369 384 328 384 258 c 260
 384 186 355 145 307 145 c 260
 260 145 231 186 231 258 c 260
EndSplineSet
Substitution2: "'cv05' Character Variants 05 in Latin lookup 22-1" a.spur.ss01
EndChar

StartChar: acutecomb
Encoding: 769 769 139
GlifName: acutecomb
Width: 307
VWidth: 0
GlyphClass: 4
Flags: W
HStem: 512 205<163 214>
VStem: 60 318
AnchorPoint: "top1" 160 512 mark 0
LayerCount: 2
Fore
SplineSet
378 717 m 257
 214 512 l 257
 60 512 l 257
 163 717 l 257
 378 717 l 257
EndSplineSet
EndChar

StartChar: adieresis.ss01.ss03
Encoding: 65556 -1 142
GlifName: adieresis.ss01.ss03
Width: 622
VWidth: 0
GlyphClass: 2
Flags: HW
LayerCount: 2
Fore
SplineSet
61 667 m 256
 61 728 111 777 172 777 c 256
 233 777 283 728 283 667 c 256
 283 606 233 556 172 556 c 256
 111 556 61 606 61 667 c 256
358 667 m 256
 358 728 408 777 469 777 c 256
 530 777 580 728 580 667 c 256
 580 606 530 556 469 556 c 256
 408 556 358 606 358 667 c 256
EndSplineSet
Refer: 132 -1 N 1 0 0 1 0 0 2
EndChar

StartChar: ae
Encoding: 230 230 144
GlifName: ae
Width: 932
VWidth: 0
GlyphClass: 2
Flags: HW
AnchorPoint: "top1" 459 573 basechar 0
LayerCount: 2
Fore
SplineSet
402 258 m 256
 402 421 495 522 641 522 c 256
 790 522 897 407 897 245 c 258
 897 211 l 257
 540 211 l 257
 540 332 l 257
 688 332 l 257
 684 367 657 389 617 389 c 256
 573 389 549 354 549 258 c 256
 549 179 575 138 624 138 c 256
 658 138 678 151 683 179 c 257
 891 179 l 257
 874 50 786 -8 647 -8 c 256
 497 -8 402 94 402 258 c 256
495 172 m 257
 351 154 l 257
 351 351 l 258
 351 374 325 393 295 393 c 256
 261 393 241 377 237 347 c 257
 38 347 l 257
 45 458 133 529 260 529 c 256
 402 529 495 463 495 323 c 258
 495 172 l 257
428 184 m 257
 428 60 348 -14 215 -14 c 256
 111 -14 34 57 34 154 c 256
 34 255 89 308 198 314 c 258
 316 321 l 258
 342 322 351 331 351 349 c 257
 361 216 l 257
 272 213 l 258
 245 212 230 198 230 175 c 256
 230 151 253 135 284 135 c 256
 321 135 351 162 351 195 c 257
 428 184 l 257
EndSplineSet
EndChar

StartChar: ampersand
Encoding: 38 38 149
GlifName: ampersand
Width: 728
VWidth: 0
GlyphClass: 2
Flags: HW
LayerCount: 2
Fore
SplineSet
318 674 m 256
 458 674 555 601 555 493 c 256
 555 396 490 336 346 301 c 256
 263 282 233 257 233 211 c 256
 233 166 270 140 332 140 c 256
 423 140 490 213 502 326 c 257
 678 326 l 257
 667 131 520 -8 325 -8 c 256
 153 -8 36 73 36 193 c 256
 36 299 108 352 268 395 c 257
 346 423 388 446 388 488 c 256
 388 518 370 536 338 536 c 256
 306 536 286 518 286 489 c 256
 286 449 357 412 393 369 c 258
 723 0 l 257
 509 0 l 257
 182 334 l 258
 123 394 97 435 97 497 c 256
 97 601 187 674 318 674 c 256
EndSplineSet
EndChar

StartChar: asciicircum
Encoding: 94 94 154
GlifName: asciicircum
Width: 481
VWidth: 0
GlyphClass: 2
Flags: HW
LayerCount: 2
Fore
SplineSet
148 737 m 257
 333 737 l 257
 445 512 l 257
 292 512 l 257
 241 651 l 257
 189 512 l 257
 36 512 l 257
 148 737 l 257
EndSplineSet
EndChar

StartChar: asciitilde
Encoding: 126 126 155
GlifName: asciitilde
Width: 519
VWidth: 0
GlyphClass: 2
Flags: HW
LayerCount: 2
Fore
SplineSet
153 517 m 260
 209 517 239 497 269 481 c 260
 288 471 306 462 330 462 c 260
 367 462 388 480 388 511 c 261
 494 511 l 261
 494 388 439 318 343 318 c 260
 298 318 271 334 247 348 c 260
 225 361 207 374 182 374 c 260
 152 374 133 354 133 323 c 261
 26 323 l 261
 26 451 70 517 153 517 c 260
EndSplineSet
EndChar

StartChar: asterisk
Encoding: 42 42 156
GlifName: asterisk
Width: 579
VWidth: 0
GlyphClass: 2
Flags: HW
LayerCount: 2
Fore
SplineSet
223 717 m 261
 356 717 l 261
 340 529 l 261
 513 603 l 261
 554 476 l 261
 371 434 l 261
 495 293 l 261
 386 215 l 261
 290 376 l 261
 194 215 l 261
 85 293 l 261
 209 434 l 261
 26 476 l 261
 67 603 l 261
 240 529 l 261
 223 717 l 261
EndSplineSet
Substitution2: "ss09StyleSet9inLatinlookup8 subtable" asterisk.ss09
EndChar

StartChar: asterisk.ss09
Encoding: 65562 -1 157
GlifName: asterisk.ss09
Width: 714
VWidth: 0
GlyphClass: 2
Flags: HW
LayerCount: 2
Fore
SplineSet
270 666 m 257
 444 666 l 257
 435 468 l 257
 602 574 l 257
 689 424 l 257
 514 333 l 257
 689 242 l 257
 602 91 l 257
 435 198 l 257
 444 0 l 257
 270 0 l 257
 280 198 l 257
 113 91 l 257
 26 242 l 257
 201 333 l 257
 26 424 l 257
 113 574 l 257
 280 468 l 257
 270 666 l 257
EndSplineSet
EndChar

StartChar: at
Encoding: 64 64 158
GlifName: at
Width: 968
VWidth: 0
GlyphClass: 2
Flags: HW
LayerCount: 2
Fore
SplineSet
436 270 m 256
 436 314 452 340 481 340 c 256
 510 340 527 314 527 270 c 256
 527 225 511 199 481 199 c 256
 452 199 436 225 436 270 c 256
564 270 m 256
 564 392 507 473 421 473 c 256
 330 473 269 392 269 270 c 256
 269 147 330 66 421 66 c 256
 507 66 564 147 564 270 c 256
691 453 m 257
 527 453 l 257
 527 206 l 258
 527 109 596 57 726 57 c 256
 859 57 933 139 933 282 c 256
 933 537 758 707 495 707 c 256
 220 707 36 529 36 263 c 256
 36 8 226 -162 513 -162 c 256
 585 -162 652 -151 713 -127 c 257
 713 27 l 257
 659 4 588 -8 505 -8 c 256
 314 -8 203 91 203 263 c 256
 203 446 311 553 495 553 c 256
 666 553 765 448 765 270 c 256
 765 217 754 197 726 197 c 256
 703 197 691 210 691 237 c 258
 691 453 l 257
EndSplineSet
EndChar

StartChar: b
Encoding: 98 98 161
GlifName: b
Width: 622
VWidth: 0
GlyphClass: 2
Flags: W
HStem: -18 163<303.912 447.5> 0 21G<44 239> 369 163<303.912 447.5> 697 20G<44 239>
VStem: 44 195<258 717> 195 44<92 423> 391 198<175.183 339.676>
LayerCount: 2
Fore
SplineSet
44 717 m 257x7a
 239 717 l 257x7a
 239 0 l 257x76
 44 0 l 257
 44 717 l 257x7a
195 258 m 256xb6
 195 423 271 532 387 532 c 256
 508 532 589 423 589 258 c 256
 589 92 508 -18 387 -18 c 256
 271 -18 195 92 195 258 c 256xb6
391 258 m 256
 391 328 362 369 315 369 c 256
 267 369 239 328 239 258 c 256xba
 239 186 267 145 315 145 c 256
 362 145 391 186 391 258 c 256
EndSplineSet
EndChar

StartChar: backslash
Encoding: 92 92 162
GlifName: backslash
Width: 512
VWidth: 0
GlyphClass: 2
Flags: HW
LayerCount: 2
Fore
SplineSet
249 666 m 257
 478 0 l 257
 263 0 l 257
 34 666 l 257
 249 666 l 257
EndSplineSet
EndChar

StartChar: bar
Encoding: 124 124 163
GlifName: bar
Width: 282
VWidth: 0
GlyphClass: 2
Flags: HW
LayerCount: 2
Fore
SplineSet
44 819 m 261
 239 819 l 261
 239 -205 l 261
 44 -205 l 261
 44 819 l 261
EndSplineSet
EndChar

StartChar: braceleft
Encoding: 123 123 164
GlifName: braceleft
Width: 368
VWidth: 0
GlyphClass: 2
Flags: HW
LayerCount: 2
Fore
SplineSet
343 535 m 257
 312 535 l 258
 283 535 271 524 271 498 c 258
 271 391 l 258
 271 338 239 301 183 287 c 257
 239 273 271 235 271 182 c 258
 271 76 l 258
 271 50 283 39 312 39 c 258
 343 39 l 257
 343 -133 l 257
 281 -133 l 258
 159 -133 87 -62 87 59 c 258
 87 166 l 258
 87 192 75 203 46 203 c 258
 26 203 l 257
 26 371 l 257
 46 371 l 258
 75 371 87 382 87 408 c 258
 87 514 l 258
 87 635 159 707 281 707 c 258
 343 707 l 257
 343 535 l 257
EndSplineSet
EndChar

StartChar: braceright
Encoding: 125 125 165
GlifName: braceright
Width: 368
VWidth: 0
GlyphClass: 2
Flags: HW
LayerCount: 2
Fore
SplineSet
26 39 m 257
 56 39 l 258
 85 39 97 50 97 76 c 258
 97 182 l 258
 97 235 129 273 185 287 c 257
 129 301 97 338 97 391 c 258
 97 498 l 258
 97 524 85 535 56 535 c 258
 26 535 l 257
 26 707 l 257
 88 707 l 258
 210 707 282 635 282 514 c 258
 282 408 l 258
 282 382 294 371 323 371 c 258
 343 371 l 257
 343 203 l 257
 323 203 l 258
 294 203 282 192 282 166 c 258
 282 59 l 258
 282 -62 210 -133 88 -133 c 258
 26 -133 l 257
 26 39 l 257
EndSplineSet
EndChar

StartChar: bracketleft
Encoding: 91 91 166
GlifName: bracketleft
Width: 368
VWidth: 0
GlyphClass: 2
Flags: W
VStem: 36 307
LayerCount: 2
Fore
SplineSet
230 524 m 257
 343 524 l 257
 343 707 l 257
 36 707 l 257
 36 -133 l 257
 343 -133 l 257
 343 49 l 257
 230 49 l 257
 230 524 l 257
EndSplineSet
EndChar

StartChar: bracketright
Encoding: 93 93 167
GlifName: bracketright
Width: 368
VWidth: 0
GlyphClass: 2
Flags: HW
LayerCount: 2
Fore
SplineSet
138 49 m 257
 26 49 l 257
 26 -133 l 257
 333 -133 l 257
 333 707 l 257
 26 707 l 257
 26 524 l 257
 138 524 l 257
 138 49 l 257
EndSplineSet
EndChar

StartChar: bullet
Encoding: 8226 8226 168
GlifName: bullet
Width: 344
VWidth: 0
GlyphClass: 2
Flags: HW
LayerCount: 2
Fore
SplineSet
31 332 m 256
 31 411 93 473 172 473 c 256
 251 473 313 411 313 332 c 256
 313 253 251 190 172 190 c 256
 93 190 31 253 31 332 c 256
EndSplineSet
EndChar

StartChar: c
Encoding: 99 99 169
GlifName: c
Width: 607
VWidth: 0
GlyphClass: 2
Flags: W
HStem: -18 163<259.95 361.948> 369 163<259.146 361.132>
VStem: 34 197<174.32 340.703>
AnchorPoint: "bottom1" 313 0 basechar 0
AnchorPoint: "top1" 305 573 basechar 0
LayerCount: 2
Fore
SplineSet
34 258 m 260
 34 423 142 532 307 532 c 260
 455 532 563 447 573 296 c 261
 376 296 l 261
 375 350 348 369 307 369 c 260
 259 369 231 329 231 258 c 260
 231 186 259 145 307 145 c 260
 347 145 374 160 376 209 c 261
 573 209 l 261
 559 62 454 -18 307 -18 c 260
 143 -18 34 92 34 258 c 260
EndSplineSet
EndChar

StartChar: colon
Encoding: 58 58 176
GlifName: colon
Width: 282
VWidth: 0
GlyphClass: 2
Flags: HW
LayerCount: 2
Fore
SplineSet
37 511 m 257
 246 511 l 257
 246 309 l 257
 37 309 l 257
 37 511 l 257
37 202 m 257
 246 202 l 257
 246 0 l 257
 37 0 l 257
 37 202 l 257
EndSplineSet
Substitution2: "'tnum' Tabular Numbers in Latin lookup 11-1" colon.tabl
Substitution2: "ss03StyleSet3inLatinlookup2 subtable" colon.ss03
EndChar

StartChar: colon.ss03
Encoding: 65565 -1 177
GlifName: colon.ss03
Width: 282
VWidth: 0
GlyphClass: 2
Flags: HW
LayerCount: 2
Fore
SplineSet
31 414 m 256
 31 475 80 524 141 524 c 256
 202 524 252 475 252 414 c 256
 252 353 202 303 141 303 c 256
 80 303 31 353 31 414 c 256
31 99 m 256
 31 160 80 210 141 210 c 256
 202 210 252 160 252 99 c 256
 252 38 202 -11 141 -11 c 256
 80 -11 31 38 31 99 c 256
EndSplineSet
Substitution2: "'tnum' Tabular Numbers in Latin lookup 11-1" colon.ss03.tabl
EndChar

StartChar: comma
Encoding: 44 44 178
GlifName: comma
Width: 282
VWidth: 0
GlyphClass: 2
Flags: W
HStem: 0 202<37 160>
VStem: 37 209<0 202>
LayerCount: 2
Fore
SplineSet
37 202 m 257
 246 202 l 257
 246 0 l 257
 166 -189 l 257
 32 -189 l 257
 160 0 l 257
 37 0 l 257
 37 202 l 257
EndSplineSet
Substitution2: "ss03StyleSet3inLatinlookup2 subtable" comma.ss03
EndChar

StartChar: comma.ss03
Encoding: 65566 -1 179
GlifName: comma.ss03
Width: 282
VWidth: 0
GlyphClass: 2
Flags: HW
LayerCount: 2
Fore
SplineSet
31 99 m 256
 31 160 80 210 141 210 c 256
 202 210 252 160 252 99 c 258
 252 -26 l 258
 252 -115 195 -167 99 -167 c 258
 46 -167 l 257
 46 -77 l 257
 68 -77 l 258
 131 -77 160 -59 160 -19 c 258
 160 -10 l 257
 154 -11 147 -11 141 -11 c 256
 80 -11 31 38 31 99 c 256
EndSplineSet
EndChar

StartChar: d
Encoding: 100 100 180
GlifName: d
Width: 622
VWidth: 0
GlyphClass: 2
Flags: W
HStem: -18 163<175.5 318.597> 369 163<175.5 319.643>
VStem: 34 197<175.183 339.676> 384 44<92 423>
AnchorPoint: "top2" 623 512 basechar 0
LayerCount: 2
Fore
SplineSet
579 717 m 257
 384 717 l 257
 384 0 l 257
 579 0 l 257
 579 717 l 257
428 258 m 256
 428 423 352 532 236 532 c 256
 115 532 34 423 34 258 c 256
 34 92 115 -18 236 -18 c 256
 352 -18 428 92 428 258 c 256
231 258 m 256
 231 328 260 369 307 369 c 256
 355 369 384 328 384 258 c 256
 384 186 355 145 307 145 c 256
 260 145 231 186 231 258 c 256
EndSplineSet
EndChar

StartChar: dagger
Encoding: 8224 8224 181
GlifName: dagger
Width: 428
VWidth: 0
GlyphClass: 2
Flags: HW
LayerCount: 2
Fore
SplineSet
117 360 m 257
 24 360 l 257
 24 512 l 257
 117 512 l 257
 117 645 l 257
 311 645 l 257
 311 512 l 257
 404 512 l 257
 404 360 l 257
 311 360 l 257
 311 0 l 257
 117 0 l 257
 117 360 l 257
EndSplineSet
EndChar

StartChar: daggerdbl
Encoding: 8225 8225 182
GlifName: daggerdbl
Width: 428
VWidth: 0
GlyphClass: 2
Flags: HW
LayerCount: 2
Fore
SplineSet
311 512 m 257
 404 512 l 257
 404 360 l 257
 311 360 l 257
 311 285 l 257
 404 285 l 257
 404 133 l 257
 311 133 l 257
 311 0 l 257
 117 0 l 257
 117 133 l 257
 24 133 l 257
 24 285 l 257
 117 285 l 257
 117 360 l 257
 24 360 l 257
 24 512 l 257
 117 512 l 257
 117 645 l 257
 311 645 l 257
 311 512 l 257
EndSplineSet
EndChar

StartChar: dcroat
Encoding: 273 273 184
GlifName: dcroat
Width: 665
VWidth: 0
GlyphClass: 2
Flags: W
HStem: -18 163<175.5 319.643> 348 164<175.5 319.643>
VStem: 34 197<170.523 320.794> 384 44<88 407>
LayerCount: 2
Fore
SplineSet
256 666 m 261
 256 547 l 261
 657 547 l 261
 657 666 l 261
 256 666 l 261
579 717 m 261
 384 717 l 261
 384 0 l 261
 579 0 l 261
 579 717 l 261
428 248 m 260
 428 407 352 512 236 512 c 260
 115 512 34 407 34 248 c 260
 34 88 115 -18 236 -18 c 260
 352 -18 428 88 428 248 c 260
231 248 m 260
 231 311 260 348 307 348 c 260
 355 348 384 311 384 248 c 260
 384 183 355 145 307 145 c 260
 260 145 231 183 231 248 c 260
EndSplineSet
EndChar

StartChar: divide
Encoding: 247 247 185
GlifName: divide
Width: 524
VWidth: 0
GlyphClass: 2
Flags: HW
LayerCount: 2
Fore
SplineSet
180 568 m 257
 348 568 l 257
 348 397 l 257
 180 397 l 257
 180 568 l 257
180 167 m 257
 348 167 l 257
 348 -4 l 257
 180 -4 l 257
 180 167 l 257
26 358 m 257
 499 358 l 257
 499 207 l 257
 26 207 l 257
 26 358 l 257
EndSplineSet
Substitution2: "'tnum' Tabular Numbers in Latin lookup 11-1" divide.tabl
Substitution2: "ss03StyleSet3inLatinlookup2 subtable" divide.ss03
EndChar

StartChar: divide.ss03
Encoding: 65567 -1 186
GlifName: divide.ss03
Width: 524
VWidth: 0
GlyphClass: 2
Flags: HW
LayerCount: 2
Fore
SplineSet
153 489 m 256
 153 548 202 595 263 595 c 256
 324 595 374 548 374 489 c 256
 374 430 324 384 263 384 c 256
 202 384 153 430 153 489 c 256
153 75 m 256
 153 134 202 180 263 180 c 256
 324 180 374 134 374 75 c 256
 374 16 324 -31 263 -31 c 256
 202 -31 153 16 153 75 c 256
26 358 m 257
 499 358 l 257
 499 207 l 257
 26 207 l 257
 26 358 l 257
EndSplineSet
Substitution2: "'tnum' Tabular Numbers in Latin lookup 11-1" divide.ss03.tabl
EndChar

StartChar: dollar
Encoding: 36 36 187
GlifName: dollar
Width: 645
VWidth: 0
GlyphClass: 2
Flags: HW
LayerCount: 2
Fore
SplineSet
294 778 m 261
 355 778 l 261
 355 -133 l 261
 294 -133 l 261
 294 778 l 261
358 245 m 258
 241 255 l 258
 112 266 41 341 41 464 c 256
 41 594 146 675 314 675 c 256
 476 675 583 594 597 462 c 257
 411 462 l 257
 403 506 370 526 312 526 c 256
 267 526 238 506 238 475 c 256
 238 446 251 430 279 427 c 258
 383 417 l 258
 536 402 609 333 609 204 c 256
 609 76 502 -8 338 -8 c 256
 166 -8 52 75 36 211 c 257
 224 211 l 257
 233 165 270 143 339 143 c 256
 384 143 413 165 413 198 c 256
 413 226 394 242 358 245 c 258
EndSplineSet
EndChar

StartChar: dotbelowcomb
Encoding: 803 803 188
GlifName: dotbelowcomb
Width: 282
VWidth: 0
GlyphClass: 4
Flags: W
HStem: -205 151<33 242>
VStem: 33 209<-205 -54>
AnchorPoint: "bottom1" 141 0 mark 0
LayerCount: 2
Fore
SplineSet
33 -54 m 261
 242 -54 l 261
 242 -205 l 261
 33 -205 l 261
 33 -54 l 261
EndSplineSet
Substitution2: "ss03StyleSet3inLatinlookup2 subtable" dotbelowcomb.ss03
EndChar

StartChar: dotbelowcomb.ss03
Encoding: 65568 -1 189
GlifName: dotbelowcomb.ss03
Width: 307
VWidth: 0
GlyphClass: 4
Flags: W
HStem: -268 221<87.7174 219.922>
VStem: 43 221<-223.922 -91.7174>
AnchorPoint: "bottom1" 154 0 mark 0
LayerCount: 2
Fore
SplineSet
43 -158 m 256
 43 -97 93 -47 154 -47 c 256
 215 -47 264 -97 264 -158 c 256
 264 -219 215 -268 154 -268 c 256
 93 -268 43 -219 43 -158 c 256
EndSplineSet
EndChar

StartChar: dotlessi
Encoding: 305 305 190
GlifName: dotlessi
Width: 282
VWidth: 0
GlyphClass: 2
Flags: W
HStem: 0 21G<44 239> 492 20G<44 239>
VStem: 44 195<0 512>
AnchorPoint: "bottom1" 147 0 basechar 0
AnchorPoint: "top1" 145 573 basechar 0
LayerCount: 2
Fore
SplineSet
44 512 m 257
 239 512 l 257
 239 0 l 257
 44 0 l 257
 44 512 l 257
EndSplineSet
PickledDataWithLists: "(dp0
Vcom.fontlab.hintData\\u000d\\u000d\\u000d\\u000d\\u000d\\u000d\\u000d\\u000d\\u000d\\u000d\\u000d\\u000d\\u000d\\u000d\\u000d\\u000d\\u000d\\u000d\\u000d\\u000d\\u000d\\u000d\\u000d\\u000d\\u000d\\u000d\\u000d
p1
(dp2
Vhhints\\u000d\\u000d\\u000d\\u000d\\u000d\\u000d\\u000d\\u000d\\u000d\\u000d\\u000d\\u000d\\u000d\\u000d\\u000d\\u000d\\u000d\\u000d\\u000d\\u000d\\u000d\\u000d\\u000d\\u000d\\u000d\\u000d\\u000d
p3
(lp4
(dp5
Vposition\\u000d\\u000d\\u000d\\u000d\\u000d\\u000d\\u000d\\u000d\\u000d\\u000d\\u000d\\u000d\\u000d\\u000d\\u000d\\u000d\\u000d\\u000d\\u000d\\u000d\\u000d\\u000d\\u000d\\u000d\\u000d\\u000d\\u000d
p6
I0
sVwidth\\u000d\\u000d\\u000d\\u000d\\u000d\\u000d\\u000d\\u000d\\u000d\\u000d\\u000d\\u000d\\u000d\\u000d\\u000d\\u000d\\u000d\\u000d\\u000d\\u000d\\u000d\\u000d\\u000d\\u000d\\u000d\\u000d\\u000d
p7
I21
sa(dp8
g6
I480
sg7
I20
sasVvhints\\u000d\\u000d\\u000d\\u000d\\u000d\\u000d\\u000d\\u000d\\u000d\\u000d\\u000d\\u000d\\u000d\\u000d\\u000d\\u000d\\u000d\\u000d\\u000d\\u000d\\u000d\\u000d\\u000d\\u000d\\u000d\\u000d\\u000d
p9
(lp10
(dp11
g6
I43
sg7
I190
sass."
Substitution2: "ss03StyleSet3inLatinlookup2 subtable" dotlessi.ss03
EndChar

StartChar: dotlessi.ss03
Encoding: 65569 -1 191
GlifName: dotlessi.ss03
Width: 282
VWidth: 0
GlyphClass: 2
Flags: HW
AnchorPoint: "top1" 145 573 basechar 0
AnchorPoint: "bottom1" 147 0 basechar 0
LayerCount: 2
Fore
SplineSet
44 512 m 257
 239 512 l 257
 239 0 l 257
 44 0 l 257
 44 512 l 257
EndSplineSet
EndChar

StartChar: e
Encoding: 101 101 192
GlifName: e
Width: 613
VWidth: 0
GlyphClass: 2
Flags: W
HStem: -8 146<257.736 358.86> 211 121<222 371> 389 133<253.858 353.224>
VStem: 222 9<211 332>
AnchorPoint: "bottom1" 313 0 basechar 0
AnchorPoint: "bottom2" 507 53 basechar 0
AnchorPoint: "top1" 305 573 basechar 0
LayerCount: 2
Fore
SplineSet
34 258 m 260
 34 421 136 522 298 522 c 260
 462 522 580 407 580 245 c 262
 580 211 l 261
 222 211 l 261
 222 332 l 261
 371 332 l 261
 367 367 340 389 300 389 c 260
 256 389 231 354 231 258 c 260
 231 179 257 138 306 138 c 260
 340 138 361 151 366 179 c 261
 573 179 l 261
 555 50 458 -8 304 -8 c 260
 138 -8 34 94 34 258 c 260
EndSplineSet
EndChar

StartChar: eight
Encoding: 56 56 202
GlifName: eight
Width: 611
VWidth: 0
GlyphClass: 2
Flags: HW
HStem: -8 148<248 363> 263 143<265 346> 309 51<295 303 308 316> 525 148<258 352>
VStem: 36 198<155 250> 56 187<418 513> 293 10<263 407> 308 10<263 309 360 407> 368 187<417 513> 378 198<155 249>
LayerCount: 2
Fore
SplineSet
462 337 m 5
 539 308 575 253 575 181 c 4
 575 68 466 -8 305 -8 c 4
 145 -8 36 67 36 180 c 4
 36 252 72 308 150 337 c 5
 86 367 56 420 56 487 c 4
 56 598 158 674 305 674 c 4
 453 674 555 598 555 486 c 4
 555 419 526 367 462 337 c 5
308 407 m 6
 346 407 368 429 368 466 c 4
 368 504 345 525 305 525 c 4
 266 525 244 504 244 466 c 4
 244 428 265 407 303 407 c 6
 308 407 l 6
308 263 m 6
 303 263 l 6
 258 263 233 242 233 203 c 4
 233 163 260 140 305 140 c 4
 351 140 378 163 378 203 c 4
 378 241 352 263 308 263 c 6
EndSplineSet
Substitution2: "'cv04' Character Variants 04 in Latin lookup 19-1" uni2467
Substitution2: "'cv03' Character Variants 03 in Latin lookup 18-1" uni277D
Substitution2: "'cv02' Character Variants 02 in Latin lookup 17-1" eight.cv02
Substitution2: "'cv01' Character Variants 01 in Latin lookup 16-1" eight.cv01
Substitution2: "'sups' Superscript in Latin lookup 15-1" uni2078
Substitution2: "'subs' Subscript in Latin lookup 14-1" uni2088
Substitution2: "'numr' Numerators in Latin lookup 13-1" eight.numr
Substitution2: "'dnom' Denominators in Latin lookup 12-1" eight.dnom
Substitution2: "'tnum' Tabular Numbers in Latin lookup 11-1" eight.tabl
EndChar

StartChar: ellipsis
Encoding: 8230 8230 203
GlifName: ellipsis
Width: 823
VWidth: 0
GlyphClass: 2
Flags: HW
LayerCount: 2
Fore
SplineSet
578 202 m 257
 786 202 l 257
 786 0 l 257
 578 0 l 257
 578 202 l 257
307 202 m 257
 516 202 l 257
 516 0 l 257
 307 0 l 257
 307 202 l 257
37 202 m 257
 246 202 l 257
 246 0 l 257
 37 0 l 257
 37 202 l 257
EndSplineSet
Substitution2: "ss03StyleSet3inLatinlookup2 subtable" ellipsis.ss03
EndChar

StartChar: ellipsis.ss03
Encoding: 65572 -1 204
GlifName: ellipsis.ss03
Width: 847
VWidth: 0
GlyphClass: 2
Flags: HW
LayerCount: 2
Fore
SplineSet
596 99 m 256
 596 160 646 210 707 210 c 256
 768 210 817 160 817 99 c 256
 817 38 768 -11 707 -11 c 256
 646 -11 596 38 596 99 c 256
313 99 m 256
 313 160 363 210 424 210 c 256
 485 210 535 160 535 99 c 256
 535 38 485 -11 424 -11 c 256
 363 -11 313 38 313 99 c 256
31 99 m 256
 31 160 80 210 141 210 c 256
 202 210 252 160 252 99 c 256
 252 38 202 -11 141 -11 c 256
 80 -11 31 38 31 99 c 256
EndSplineSet
EndChar

StartChar: emdash
Encoding: 8212 8212 206
GlifName: emdash
Width: 1024
VWidth: 0
GlyphClass: 2
Flags: HW
LayerCount: 2
Fore
SplineSet
26 369 m 257
 999 369 l 257
 999 197 l 257
 26 197 l 257
 26 369 l 257
EndSplineSet
EndChar

StartChar: endash
Encoding: 8211 8211 207
GlifName: endash
Width: 716
VWidth: 0
GlyphClass: 2
Flags: HW
LayerCount: 2
Fore
SplineSet
26 369 m 257
 691 369 l 257
 691 197 l 257
 26 197 l 257
 26 369 l 257
EndSplineSet
EndChar

StartChar: eng
Encoding: 331 331 208
GlifName: eng
Width: 620
VWidth: 0
GlyphClass: 2
Flags: HW
LayerCount: 2
Fore
SplineSet
46 511 m 261
 241 511 l 261
 241 -1 l 261
 46 -1 l 261
 46 511 l 261
384 275 m 262
 384 329 358 357 310 357 c 260
 270 357 241 326 241 282 c 261
 201 288 l 261
 201 422 287 531 393 531 c 260
 506 531 579 447 579 316 c 262
 579 8 l 262
 579 -125 499 -205 365 -205 c 262
 291 -205 l 261
 291 -33 l 261
 333 -33 l 262
 369 -33 384 -19 384 14 c 262
 384 275 l 262
EndSplineSet
EndChar

StartChar: equal
Encoding: 61 61 210
GlifName: equal
Width: 602
VWidth: 0
GlyphClass: 2
Flags: HW
LayerCount: 2
Fore
SplineSet
577 256 m 257
 577 94 l 257
 26 94 l 257
 26 256 l 257
 577 256 l 257
577 532 m 257
 577 371 l 257
 26 371 l 257
 26 532 l 257
 577 532 l 257
EndSplineSet
Substitution2: "'sups' Superscript in Latin lookup 15-1" uni207C
Substitution2: "'subs' Subscript in Latin lookup 14-1" uni208C
EndChar

StartChar: eth
Encoding: 240 240 211
GlifName: eth
Width: 672
VWidth: 0
GlyphClass: 2
Flags: HW
LayerCount: 2
Fore
SplineSet
417 256 m 256
 417 317 380 358 325 358 c 256
 270 358 233 317 233 254 c 256
 233 189 269 146 323 146 c 256
 378 146 417 192 417 256 c 256
504 717 m 257
 580 632 637 515 637 377 c 256
 637 141 517 -8 327 -8 c 256
 155 -8 36 102 36 261 c 256
 36 406 129 513 256 513 c 256
 338 513 409 468 439 397 c 257
 439 401 439 406 439 410 c 256
 439 533 375 635 290 717 c 257
 504 717 l 257
246 657 m 257
 643 682 l 257
 643 561 l 257
 246 537 l 257
 246 657 l 257
EndSplineSet
EndChar

StartChar: exclam
Encoding: 33 33 212
GlifName: exclam
Width: 282
VWidth: 0
GlyphClass: 2
Flags: HW
LayerCount: 2
Fore
SplineSet
246 0 m 257
 37 0 l 257
 37 151 l 257
 246 151 l 257
 246 0 l 257
218 205 m 257
 65 205 l 257
 44 666 l 257
 239 666 l 257
 218 205 l 257
EndSplineSet
Substitution2: "ss03StyleSet3inLatinlookup2 subtable" exclam.ss03
EndChar

StartChar: exclam.ss03
Encoding: 65573 -1 213
GlifName: exclam.ss03
Width: 282
VWidth: 0
GlyphClass: 2
Flags: HW
LayerCount: 2
Fore
SplineSet
31 89 m 256
 31 144 80 189 141 189 c 256
 202 189 252 144 252 89 c 256
 252 34 202 -11 141 -11 c 256
 80 -11 31 34 31 89 c 256
218 222 m 257
 65 222 l 257
 44 666 l 257
 239 666 l 257
 218 222 l 257
EndSplineSet
EndChar

StartChar: exclamdown
Encoding: 161 161 214
GlifName: exclamdown
Width: 282
VWidth: 0
GlyphClass: 2
Flags: HW
LayerCount: 2
Fore
SplineSet
37 512 m 257
 246 512 l 257
 246 361 l 257
 37 361 l 257
 37 512 l 257
65 307 m 257
 218 307 l 257
 239 -154 l 257
 44 -154 l 257
 65 307 l 257
EndSplineSet
Substitution2: "ss03StyleSet3inLatinlookup2 subtable" exclamdown.ss03
EndChar

StartChar: exclamdown.ss03
Encoding: 65574 -1 215
GlifName: exclamdown.ss03
Width: 282
VWidth: 0
GlyphClass: 2
Flags: HW
LayerCount: 2
Fore
SplineSet
252 422 m 256
 252 367 202 322 141 322 c 256
 80 322 31 367 31 422 c 256
 31 477 80 522 141 522 c 256
 202 522 252 477 252 422 c 256
65 289 m 257
 218 289 l 257
 239 -155 l 257
 44 -155 l 257
 65 289 l 257
EndSplineSet
EndChar

StartChar: f
Encoding: 102 102 216
GlifName: f
Width: 387
VWidth: 0
GlyphClass: 2
Flags: W
HStem: 0 21G<96 291> 360 152<24 364> 697 20G<236 364>
VStem: 96 195<0 561.065>
LayerCount: 2
Fore
SplineSet
24 360 m 261
 24 512 l 261
 364 512 l 261
 364 360 l 261
 24 360 l 261
364 565 m 261
 332 565 l 262
 303 565 291 554 291 528 c 262
 291 0 l 261
 96 0 l 261
 96 535 l 262
 96 650 172 717 300 717 c 262
 364 717 l 261
 364 565 l 261
EndSplineSet
EndChar

StartChar: five
Encoding: 53 53 217
GlifName: five
Width: 611
VWidth: 0
GlyphClass: 2
Flags: HW
LayerCount: 2
Fore
SplineSet
378 230 m 260
 378 182 352 156 306 156 c 260
 263 156 235 179 233 217 c 261
 36 217 l 261
 46 83 157 -8 313 -8 c 260
 473 -8 575 86 575 232 c 260
 575 363 496 454 381 454 c 260
 320 454 269 428 236 381 c 261
 252 505 l 261
 552 505 l 261
 552 667 l 261
 77 667 l 261
 36 274 l 261
 229 274 l 261
 243 300 269 313 301 313 c 260
 349 313 378 282 378 230 c 260
EndSplineSet
Substitution2: "'cv04' Character Variants 04 in Latin lookup 19-1" uni2464
Substitution2: "'cv03' Character Variants 03 in Latin lookup 18-1" uni277A
Substitution2: "'cv02' Character Variants 02 in Latin lookup 17-1" five.cv02
Substitution2: "'cv01' Character Variants 01 in Latin lookup 16-1" five.cv01
Substitution2: "'sups' Superscript in Latin lookup 15-1" uni2075
Substitution2: "'subs' Subscript in Latin lookup 14-1" uni2085
Substitution2: "'numr' Numerators in Latin lookup 13-1" five.numr
Substitution2: "'dnom' Denominators in Latin lookup 12-1" five.dnom
Substitution2: "'tnum' Tabular Numbers in Latin lookup 11-1" five.tabl
EndChar

StartChar: four
Encoding: 52 52 218
GlifName: four
Width: 625
VWidth: 0
GlyphClass: 2
Flags: HW
LayerCount: 2
Fore
SplineSet
526 135 m 261
 526 0 l 261
 342 0 l 261
 342 135 l 261
 26 135 l 261
 26 337 l 261
 281 666 l 261
 526 666 l 261
 526 296 l 261
 610 296 l 261
 610 135 l 261
 526 135 l 261
342 296 m 261
 342 457 l 261
 222 296 l 261
 342 296 l 261
EndSplineSet
Substitution2: "'cv04' Character Variants 04 in Latin lookup 19-1" uni2463
Substitution2: "'cv03' Character Variants 03 in Latin lookup 18-1" uni2779
Substitution2: "'cv02' Character Variants 02 in Latin lookup 17-1" four.cv02
Substitution2: "'cv01' Character Variants 01 in Latin lookup 16-1" four.cv01
Substitution2: "'sups' Superscript in Latin lookup 15-1" uni2074
Substitution2: "'subs' Subscript in Latin lookup 14-1" uni2084
Substitution2: "'numr' Numerators in Latin lookup 13-1" four.numr
Substitution2: "'dnom' Denominators in Latin lookup 12-1" four.dnom
Substitution2: "'tnum' Tabular Numbers in Latin lookup 11-1" four.tabl
EndChar

StartChar: g
Encoding: 103 103 219
GlifName: g
Width: 622
VWidth: 0
GlyphClass: 2
Flags: W
HStem: -208 143<245.328 369.11> 17 164<172.5 318.258> 369 161<172.5 318.258>
VStem: 34 197<-47.5406 -16 205.366 344.202> 384 44<120 428>
AnchorPoint: "top1" 305 573 basechar 0
LayerCount: 2
Fore
SplineSet
231 275 m 256
 231 334 260 369 309 369 c 256
 356 369 384 334 384 275 c 256
 384 216 356 181 309 181 c 256
 260 181 231 216 231 275 c 256
428 275 m 256
 428 428 350 530 232 530 c 256
 113 530 34 428 34 275 c 256
 34 120 113 17 232 17 c 256
 350 17 428 120 428 275 c 256
579 512 m 257
 384 512 l 257
 384 -6 l 258
 384 -43 356 -65 308 -65 c 256
 263 -65 234 -46 231 -16 c 257
 34 -16 l 257
 52 -132 160 -208 318 -208 c 256
 475 -208 579 -129 579 -11 c 258
 579 512 l 257
EndSplineSet
EndChar

StartChar: germandbls
Encoding: 223 223 224
GlifName: germandbls
Width: 660
VWidth: 0
GlyphClass: 2
Flags: HW
LayerCount: 2
Fore
SplineSet
347 564 m 256
 281 564 241 519 241 446 c 258
 241 0 l 257
 46 0 l 257
 46 453 l 258
 46 612 165 725 347 725 c 256
 496 725 614 630 614 512 c 256
 614 399 509 324 353 324 c 257
 353 436 l 257
 400 436 427 459 427 498 c 256
 427 536 393 564 347 564 c 256
402 436 m 257
 402 283 l 257
 311 283 l 257
 311 436 l 257
 402 436 l 257
353 395 m 257
 516 395 625 312 625 189 c 256
 625 75 528 0 384 0 c 258
 301 0 l 257
 301 164 l 257
 364 164 l 258
 411 164 437 185 437 222 c 256
 437 260 406 283 353 283 c 257
 353 395 l 257
EndSplineSet
EndChar

StartChar: grave
Encoding: 96 96 225
GlifName: grave
Width: 440
VWidth: 0
GlyphClass: 2
Flags: HW
LayerCount: 2
Fore
SplineSet
36 737 m 257
 271 737 l 257
 404 532 l 257
 251 532 l 257
 36 737 l 257
EndSplineSet
EndChar

StartChar: gravecomb
Encoding: 768 768 226
GlifName: gravecomb
Width: 307
VWidth: 0
GlyphClass: 4
Flags: W
HStem: 512 205<114 165>
VStem: -50 317
AnchorPoint: "top1" 160 512 mark 0
LayerCount: 2
Fore
SplineSet
-50 717 m 257
 165 717 l 257
 267 512 l 257
 114 512 l 257
 -50 717 l 257
EndSplineSet
EndChar

StartChar: greater
Encoding: 62 62 227
GlifName: greater
Width: 605
VWidth: 0
GlyphClass: 2
Flags: HW
LayerCount: 2
Fore
SplineSet
27 41 m 257
 27 242 l 257
 410 319 l 257
 27 391 l 257
 27 594 l 257
 580 428 l 257
 580 207 l 257
 27 41 l 257
EndSplineSet
EndChar

StartChar: h
Encoding: 104 104 228
GlifName: h
Width: 620
VWidth: 0
GlyphClass: 2
Flags: W
HStem: 0 21G<44 239 382 577> 358 174<288 445> 697 20G<44 239>
VStem: 44 195<0 717> 199 40<289 441> 382 195<0 336.003>
AnchorPoint: "top1" 142 770 basechar 0
LayerCount: 2
Fore
SplineSet
382 276 m 258xec
 382 333 353 358 308 358 c 256
 268 358 239 327 239 283 c 257xf4
 199 289 l 257
 199 441 299 532 391 532 c 256
 499 532 577 455 577 317 c 258
 577 0 l 257
 382 0 l 257
 382 276 l 258xec
44 717 m 257
 239 717 l 257
 239 0 l 257
 44 0 l 257
 44 717 l 257
EndSplineSet
EndChar

StartChar: hbar
Encoding: 295 295 229
GlifName: hbar
Width: 661
VWidth: 0
GlyphClass: 2
Flags: W
HStem: 0 21G<85 280 423 617> 338 174<329 486> 547 119<10 412> 697 20G<85 280>
VStem: 85 195<0 717> 240 40<279 424> 423 194<0 319.202>
LayerCount: 2
Fore
SplineSet
10 666 m 257xf2
 412 666 l 257
 412 547 l 257
 10 547 l 257
 10 666 l 257xf2
423 266 m 258
 423 316 394 338 349 338 c 256
 309 338 280 310 280 272 c 257xfa
 240 279 l 257xf6
 240 424 340 512 432 512 c 256
 540 512 617 439 617 307 c 258
 617 0 l 257
 423 0 l 257
 423 266 l 258
85 717 m 257
 280 717 l 257
 280 0 l 257
 85 0 l 257
 85 717 l 257
EndSplineSet
EndChar

StartChar: hookabovecomb
Encoding: 777 777 231
GlifName: hookabovecomb
Width: 307
VWidth: 0
GlyphClass: 4
Flags: HW
AnchorPoint: "top1" 160 512 mark 0
LayerCount: 2
Fore
SplineSet
98 512 m 257
 98 551 125 574 151 592 c 256
 175 608 197 622 197 639 c 256
 197 659 185 672 167 672 c 256
 145 672 131 659 130 636 c 257
 -1 636 l 257
 5 730 59 773 169 773 c 256
 264 773 326 723 326 646 c 256
 326 603 297 580 268 563 c 256
 240 547 214 535 214 512 c 257
 98 512 l 257
EndSplineSet
EndChar

StartChar: hyphen
Encoding: 45 45 232
GlifName: hyphen
Width: 524
VWidth: 0
GlyphClass: 2
Flags: W
HStem: 197 172<26 499>
LayerCount: 2
Fore
SplineSet
26 369 m 261
 499 369 l 261
 499 197 l 261
 26 197 l 261
 26 369 l 261
EndSplineSet
Substitution2: "'sups' Superscript in Latin lookup 15-1" uni207B
Substitution2: "'subs' Subscript in Latin lookup 14-1" uni208B
Substitution2: "'tnum' Tabular Numbers in Latin lookup 11-1" hyphen.tabl
EndChar

StartChar: i
Encoding: 105 105 233
GlifName: i
Width: 282
VWidth: 0
GlyphClass: 2
Flags: W
HStem: 0 21G<44 239> 492 20G<44 239> 566 151<37 246>
VStem: 44 195<0 512 566 717>
AnchorPoint: "bottom2" 239 0 basechar 0
AnchorPoint: "bottom1" 147 0 basechar 0
LayerCount: 2
Fore
SplineSet
37 717 m 257
 246 717 l 257
 246 566 l 257
 37 566 l 257
 37 717 l 257
44 512 m 261
 239 512 l 261
 239 0 l 261
 44 0 l 261
 44 512 l 261
EndSplineSet
Substitution2: "ss03StyleSet3inLatinlookup2 subtable" i.ss03
EndChar

StartChar: i.ss03
Encoding: 65576 -1 234
GlifName: i.ss03
Width: 282
VWidth: 0
GlyphClass: 2
Flags: W
HStem: 0 21G<44 239> 492 20G<44 239> 555 221<75.0784 207.283>
VStem: 31 221<599.717 731.922> 44 195<0 512>
AnchorPoint: "bottom1" 147 0 basechar 0
AnchorPoint: "bottom2" 239 0 basechar 0
LayerCount: 2
Fore
SplineSet
31 666 m 256xf0
 31 727 80 776 141 776 c 256
 202 776 252 727 252 666 c 256
 252 605 202 555 141 555 c 256
 80 555 31 605 31 666 c 256xf0
44 512 m 257xe8
 239 512 l 257
 239 0 l 257
 44 0 l 257
 44 512 l 257xe8
EndSplineSet
EndChar

StartChar: j
Encoding: 106 106 247
GlifName: j
Width: 282
VWidth: 0
GlyphClass: 2
Flags: W
HStem: 492 20G<44 239> 566 151<37 246>
VStem: 44 195<-30.8199 512 566 717>
LayerCount: 2
Fore
SplineSet
-29 -33 m 261
 3 -33 l 262
 32 -33 44 -22 44 4 c 262
 44 512 l 261
 239 512 l 261
 239 -2 l 262
 239 -129 163 -205 35 -205 c 262
 -29 -205 l 261
 -29 -33 l 261
37 717 m 261
 246 717 l 261
 246 566 l 261
 37 566 l 261
 37 717 l 261
EndSplineSet
Substitution2: "ss03StyleSet3inLatinlookup2 subtable" j.ss03
EndChar

StartChar: j.ss03
Encoding: 65580 -1 248
GlifName: j.ss03
Width: 282
VWidth: 0
GlyphClass: 2
Flags: W
HStem: 492 20G<44 239> 555 221<75.0784 207.283>
VStem: 31 221<599.717 731.922> 44 195<-30.8199 512>
LayerCount: 2
Fore
SplineSet
31 666 m 256xe0
 31 727 80 776 141 776 c 256
 202 776 252 727 252 666 c 256
 252 605 202 555 141 555 c 256
 80 555 31 605 31 666 c 256xe0
-29 -33 m 257
 3 -33 l 258
 32 -33 44 -22 44 4 c 258
 44 512 l 257
 239 512 l 257
 239 -2 l 258xd0
 239 -129 163 -205 35 -205 c 258
 -29 -205 l 257
 -29 -33 l 257
EndSplineSet
EndChar

StartChar: k
Encoding: 107 107 250
GlifName: k
Width: 631
VWidth: 0
GlyphClass: 2
Flags: W
HStem: 0 21G<46 241 388.345 627> 492 20G<354.624 608> 697 20G<46 241>
VStem: 46 195<0 90 201 717>
AnchorPoint: "bottom1" 324 0 basechar 0
LayerCount: 2
Fore
SplineSet
46 717 m 261
 241 717 l 261
 241 0 l 261
 46 0 l 261
 46 717 l 261
368 512 m 261
 608 512 l 261
 434 281 l 261
 627 0 l 261
 401 0 l 261
 289 177 l 261
 221 90 l 261
 160 201 l 261
 368 512 l 261
EndSplineSet
EndChar

StartChar: kgreenlandic
Encoding: 312 312 251
GlifName: kgreenlandic
Width: 631
VWidth: 0
GlyphClass: 2
Flags: HW
LayerCount: 2
Fore
SplineSet
46 512 m 257
 241 512 l 257
 241 0 l 257
 46 0 l 257
 46 512 l 257
368 512 m 257
 608 512 l 257
 434 281 l 257
 627 0 l 257
 401 0 l 257
 289 177 l 257
 221 90 l 257
 160 201 l 257
 368 512 l 257
EndSplineSet
EndChar

StartChar: l
Encoding: 108 108 252
GlifName: l
Width: 282
VWidth: 0
GlyphClass: 2
Flags: W
HStem: 0 21G<44 239> 697 20G<44 239>
VStem: 44 195<0 717>
AnchorPoint: "top2" 283 512 basechar 0
AnchorPoint: "bottom1" 147 0 basechar 0
AnchorPoint: "top1" 142 770 basechar 0
LayerCount: 2
Fore
SplineSet
44 717 m 257
 239 717 l 257
 239 0 l 257
 44 0 l 257
 44 717 l 257
EndSplineSet
Substitution2: "ss02StyleSet2inLatinlookup1 subtable" l.ss02
EndChar

StartChar: l.ss02
Encoding: 65581 -1 253
GlifName: l.ss02
Width: 336
VWidth: 0
GlyphClass: 2
Flags: W
HStem: 0 21G<186 313> 697 20G<46 241>
VStem: 46 195<166.146 717>
AnchorPoint: "top1" 142 770 basechar 0
AnchorPoint: "bottom1" 188 0 basechar 0
AnchorPoint: "top2" 283 512 basechar 0
LayerCount: 2
Fore
SplineSet
313 162 m 261
 313 0 l 261
 250 0 l 262
 122 0 46 67 46 182 c 262
 46 717 l 261
 241 717 l 261
 241 209 l 262
 241 176 253 162 282 162 c 262
 313 162 l 261
EndSplineSet
EndChar

StartChar: ldot.ss02
Encoding: 65584 -1 259
GlifName: ldot.ss02
Width: 522
VWidth: 0
GlyphClass: 2
Flags: HW
HStem: 246 202<313 522>
VStem: 313 209<246 447>
LayerCount: 2
Fore
SplineSet
313 447 m 257
 522 447 l 257
 522 246 l 257
 313 246 l 257
 313 447 l 257
EndSplineSet
Refer: 253 -1 N 1 0 0 1 0 0 2
Substitution2: "ss03StyleSet3inLatinlookup2 subtable" ldot.ss02.ss03
EndChar

StartChar: ldot.ss02.ss03
Encoding: 65585 -1 260
GlifName: ldot.ss02.ss03
Width: 577
VWidth: 0
GlyphClass: 2
Flags: HW
LayerCount: 2
Fore
SplineSet
356 355 m 256
 356 416 406 466 467 466 c 256
 528 466 578 416 578 355 c 256
 578 294 528 245 467 245 c 256
 406 245 356 294 356 355 c 256
313 162 m 257
 313 0 l 257
 250 0 l 258
 122 0 46 67 46 182 c 258
 46 717 l 257
 241 717 l 257
 241 209 l 258
 241 176 253 162 282 162 c 258
 313 162 l 257
EndSplineSet
EndChar

StartChar: less
Encoding: 60 60 262
GlifName: less
Width: 605
VWidth: 0
GlyphClass: 2
Flags: HW
LayerCount: 2
Fore
SplineSet
580 594 m 261
 580 393 l 261
 197 315 l 261
 580 244 l 261
 580 41 l 261
 27 207 l 261
 27 428 l 261
 580 594 l 261
EndSplineSet
EndChar

StartChar: longs
Encoding: 383 383 263
GlifName: longs
Width: 336
VWidth: 0
GlyphClass: 2
Flags: W
HStem: 0 21G<46 241> 697 20G<186 313>
VStem: 46 195<0 561.065>
LayerCount: 2
Fore
SplineSet
313 565 m 261
 282 565 l 262
 253 565 241 554 241 528 c 262
 241 0 l 261
 46 0 l 261
 46 535 l 262
 46 650 122 717 250 717 c 262
 313 717 l 261
 313 565 l 261
EndSplineSet
EndChar

StartChar: lslash
Encoding: 322 322 264
GlifName: lslash
Width: 356
VWidth: 0
GlyphClass: 2
Flags: W
HStem: 0 21G<80 274> 697 20G<80 274>
VStem: 80 194<0 717>
LayerCount: 2
Fore
SplineSet
0 420 m 257
 356 475 l 257
 356 324 l 257
 0 268 l 257
 0 420 l 257
80 717 m 257
 274 717 l 257
 274 0 l 257
 80 0 l 257
 80 717 l 257
EndSplineSet
Substitution2: "ss02StyleSet2inLatinlookup1 subtable" lslash.ss02
EndChar

StartChar: lslash.ss02
Encoding: 65587 -1 265
GlifName: lslash.ss02
Width: 357
VWidth: 0
GlyphClass: 2
Flags: HW
LayerCount: 2
Fore
SplineSet
334 162 m 257
 334 0 l 257
 270 0 l 258
 142 0 67 67 67 182 c 258
 67 717 l 257
 261 717 l 257
 261 209 l 258
 261 176 273 162 302 162 c 258
 334 162 l 257
0 420 m 257
 356 475 l 257
 356 324 l 257
 0 268 l 257
 0 420 l 257
EndSplineSet
EndChar

StartChar: m
Encoding: 109 109 266
GlifName: m
Width: 917
VWidth: 0
GlyphClass: 2
Flags: W
HStem: 0 21G<44 239 361 556 679 873> 358 174<281 431.5 598 748.5> 492 20G<44 239>
VStem: 44 195<0 512> 199 40<289 441> 361 195<0 286.314> 516 40<289 441> 679 194<0 342.156>
LayerCount: 2
Fore
SplineSet
679 276 m 262xc3
 679 333 654 358 615 358 c 260
 581 358 556 327 556 283 c 261xc5
 516 289 l 261
 516 441 611 532 698 532 c 260
 799 532 873 455 873 317 c 262
 873 0 l 261
 679 0 l 261
 679 276 l 262xc3
361 276 m 262
 361 333 337 358 298 358 c 260
 264 358 239 327 239 283 c 261xd5
 199 289 l 261
 199 441 294 532 381 532 c 260
 482 532 556 455 556 317 c 262xcb
 556 0 l 261
 361 0 l 261
 361 276 l 262
44 512 m 261xb1
 239 512 l 261
 239 0 l 261
 44 0 l 261
 44 512 l 261xb1
EndSplineSet
EndChar

StartChar: minute
Encoding: 8242 8242 267
GlifName: minute
Width: 399
VWidth: -51
GlyphClass: 2
Flags: HW
LayerCount: 2
Fore
SplineSet
374 666 m 257
 179 461 l 257
 26 461 l 257
 159 666 l 257
 374 666 l 257
EndSplineSet
EndChar

StartChar: multiply
Encoding: 215 215 268
GlifName: multiply
Width: 602
VWidth: 0
GlyphClass: 2
Flags: HW
LayerCount: 2
Fore
SplineSet
301 435 m 257
 435 580 l 257
 557 458 l 257
 413 324 l 257
 557 189 l 257
 435 68 l 257
 301 212 l 257
 167 68 l 257
 45 189 l 257
 189 324 l 257
 45 458 l 257
 167 580 l 257
 301 435 l 257
EndSplineSet
Substitution2: "'tnum' Tabular Numbers in Latin lookup 11-1" multiply.tabl
EndChar

StartChar: n
Encoding: 110 110 269
GlifName: n
Width: 620
VWidth: 0
GlyphClass: 2
Flags: W
HStem: 0 21G<46 241 384 579> 358 174<290 447> 492 20G<46 241>
VStem: 46 195<0 512> 201 40<289 441> 384 195<0 336.003>
AnchorPoint: "bottom1" 316 0 basechar 0
AnchorPoint: "top1" 319 574 basechar 0
LayerCount: 2
Fore
SplineSet
384 276 m 258xcc
 384 333 355 358 310 358 c 256
 270 358 241 327 241 283 c 257xd4
 201 289 l 257
 201 441 301 532 393 532 c 256
 501 532 579 455 579 317 c 258
 579 0 l 257
 384 0 l 257
 384 276 l 258xcc
46 512 m 257xb4
 241 512 l 257
 241 0 l 257
 46 0 l 257
 46 512 l 257xb4
EndSplineSet
Substitution2: "'sups' Superscript in Latin lookup 15-1" uni207F
Substitution2: "'subs' Subscript in Latin lookup 14-1" uni2099
EndChar

StartChar: nine
Encoding: 57 57 273
GlifName: nine
Width: 631
VWidth: 0
GlyphClass: 2
Flags: HW
LayerCount: 2
Fore
SplineSet
596 327 m 256
 596 118 486 -8 303 -8 c 256
 164 -8 68 64 44 187 c 257
 242 187 l 257
 248 153 268 135 302 135 c 256
 359 135 398 199 398 294 c 256
 398 298 398 302 398 306 c 257
 372 260 313 231 244 231 c 256
 124 231 36 322 36 446 c 256
 36 581 142 676 296 676 c 256
 480 676 596 541 596 327 c 256
376 452 m 256
 376 498 345 531 302 531 c 256
 261 531 233 501 233 454 c 256
 233 407 261 376 304 376 c 256
 347 376 376 407 376 452 c 256
EndSplineSet
Substitution2: "'cv04' Character Variants 04 in Latin lookup 19-1" uni2468
Substitution2: "'cv03' Character Variants 03 in Latin lookup 18-1" uni277E
Substitution2: "'cv02' Character Variants 02 in Latin lookup 17-1" nine.cv02
Substitution2: "'cv01' Character Variants 01 in Latin lookup 16-1" nine.cv01
Substitution2: "'sups' Superscript in Latin lookup 15-1" uni2079
Substitution2: "'subs' Subscript in Latin lookup 14-1" uni2089
Substitution2: "'numr' Numerators in Latin lookup 13-1" nine.numr
Substitution2: "'dnom' Denominators in Latin lookup 12-1" nine.dnom
Substitution2: "'tnum' Tabular Numbers in Latin lookup 11-1" nine.tabl
EndChar

StartChar: numbersign
Encoding: 35 35 275
GlifName: numbersign
Width: 757
VWidth: 0
GlyphClass: 2
Flags: HW
LayerCount: 2
Fore
SplineSet
681 273 m 257
 681 142 l 257
 26 142 l 257
 26 273 l 257
 681 273 l 257
732 519 m 257
 732 388 l 257
 77 388 l 257
 77 519 l 257
 732 519 l 257
519 666 m 257
 703 666 l 257
 525 0 l 257
 341 0 l 257
 519 666 l 257
232 666 m 257
 417 666 l 257
 239 0 l 257
 54 0 l 257
 232 666 l 257
EndSplineSet
EndChar

StartChar: o
Encoding: 111 111 276
GlifName: o
Width: 615
VWidth: 0
GlyphClass: 2
Flags: W
HStem: -18 163<260.63 354.851> 369 163<260.63 354.851>
VStem: 34 197<175.183 339.676> 384 198<175.183 339.676>
AnchorPoint: "top3" 369 512 basechar 0
AnchorPoint: "bottom1" 308 0 basechar 0
AnchorPoint: "top1" 308 573 basechar 0
LayerCount: 2
Fore
SplineSet
34 258 m 260
 34 423 143 532 308 532 c 260
 472 532 582 423 582 258 c 260
 582 92 472 -18 308 -18 c 260
 143 -18 34 92 34 258 c 260
384 258 m 260
 384 328 355 369 308 369 c 260
 260 369 231 328 231 258 c 260
 231 186 260 145 308 145 c 260
 355 145 384 186 384 258 c 260
EndSplineSet
EndChar

StartChar: oe
Encoding: 339 339 282
GlifName: oe
Width: 965
VWidth: 0
GlyphClass: 2
Flags: HW
LayerCount: 2
Fore
SplineSet
436 258 m 256
 436 421 529 522 675 522 c 256
 824 522 931 407 931 245 c 258
 931 211 l 257
 573 211 l 257
 573 332 l 257
 722 332 l 257
 718 367 691 389 651 389 c 256
 607 389 583 354 583 258 c 256
 583 179 608 138 657 138 c 256
 691 138 712 151 717 179 c 257
 925 179 l 257
 908 50 820 -8 681 -8 c 256
 531 -8 436 94 436 258 c 256
34 258 m 256
 34 423 132 532 278 532 c 256
 423 532 520 423 520 258 c 256
 520 92 423 -18 278 -18 c 256
 132 -18 34 92 34 258 c 256
384 258 m 256
 384 328 355 369 308 369 c 256
 260 369 231 328 231 258 c 256
 231 186 260 145 308 145 c 256
 355 145 384 186 384 258 c 256
EndSplineSet
EndChar

StartChar: ohorn
Encoding: 417 417 284
GlifName: ohorn
Width: 648
VWidth: 0
GlyphClass: 2
Flags: W
HStem: -18 163<260.63 354.851> 369 163<260.63 354.851> 412 100<369 501>
VStem: 34 197<175.183 339.676> 384 198<175.183 339.676> 523 144<518.74 637>
AnchorPoint: "top1" 308 573 basechar 0
AnchorPoint: "bottom1" 308 0 basechar 0
LayerCount: 2
Fore
SplineSet
34 258 m 256xd8
 34 423 143 532 308 532 c 256
 472 532 582 423 582 258 c 256
 582 92 472 -18 308 -18 c 256
 143 -18 34 92 34 258 c 256xd8
384 258 m 256
 384 328 355 369 308 369 c 256
 260 369 231 328 231 258 c 256
 231 186 260 145 308 145 c 256
 355 145 384 186 384 258 c 256
369 512 m 257xb4
 472 512 l 258
 501 512 523 522 523 569 c 258
 523 637 l 257
 667 637 l 257
 667 563 l 258
 667 447 570 412 483 412 c 258
 369 412 l 257
 369 512 l 257xb4
EndSplineSet
EndChar

StartChar: one
Encoding: 49 49 287
GlifName: one
Width: 425
VWidth: 0
GlyphClass: 2
Flags: HW
LayerCount: 2
Fore
SplineSet
185 666 m 261
 380 666 l 261
 380 0 l 261
 185 0 l 261
 185 389 l 261
 26 389 l 261
 26 556 l 261
 104 556 l 262
 157 556 185 572 185 625 c 262
 185 666 l 261
EndSplineSet
Substitution2: "'cv04' Character Variants 04 in Latin lookup 19-1" uni2460
Substitution2: "'cv03' Character Variants 03 in Latin lookup 18-1" uni2776
Substitution2: "'cv02' Character Variants 02 in Latin lookup 17-1" one.cv02
Substitution2: "'cv01' Character Variants 01 in Latin lookup 16-1" one.cv01
Substitution2: "'sups' Superscript in Latin lookup 15-1" uni00B9
Substitution2: "'subs' Subscript in Latin lookup 14-1" uni2081
Substitution2: "'numr' Numerators in Latin lookup 13-1" one.numr
Substitution2: "'dnom' Denominators in Latin lookup 12-1" one.dnom
Substitution2: "'tnum' Tabular Numbers in Latin lookup 11-1" one.tabl
EndChar

StartChar: oslash
Encoding: 248 248 288
GlifName: oslash
Width: 615
VWidth: 0
GlyphClass: 2
Flags: W
HStem: -18 153<250.907 360.811> 379 153<254.449 367.824>
VStem: 34 187<204.333 344.792> 394 188<170.067 309.515>
LayerCount: 2
Fore
SplineSet
514 559 m 257
 582 498 l 257
 103 -45 l 257
 36 16 l 257
 514 559 l 257
34 258 m 260
 34 423 143 532 308 532 c 260
 472 532 582 423 582 258 c 260
 582 92 472 -18 308 -18 c 260
 143 -18 34 92 34 258 c 260
394 258 m 260
 394 334 361 379 308 379 c 260
 253 379 221 334 221 258 c 260
 221 180 253 135 308 135 c 260
 361 135 394 180 394 258 c 260
EndSplineSet
EndChar

StartChar: p
Encoding: 112 112 290
GlifName: p
Width: 622
VWidth: 0
GlyphClass: 2
Flags: HW
LayerCount: 2
Fore
SplineSet
44 512 m 261
 239 512 l 261
 239 -167 l 261
 44 -167 l 261
 44 512 l 261
195 258 m 256
 195 423 271 532 387 532 c 256
 508 532 589 423 589 258 c 256
 589 92 508 -18 387 -18 c 256
 271 -18 195 92 195 258 c 256
391 258 m 256
 391 328 362 369 315 369 c 256
 267 369 239 328 239 258 c 256
 239 186 267 145 315 145 c 256
 362 145 391 186 391 258 c 256
EndSplineSet
EndChar

StartChar: parenleft
Encoding: 40 40 291
GlifName: parenleft
Width: 368
VWidth: 0
GlyphClass: 2
Flags: W
VStem: 26 197<94.3672 473.633>
LayerCount: 2
Fore
SplineSet
353 -137 m 261
 158 -137 l 261
 82 -57 26 111 26 284 c 260
 26 457 82 625 158 705 c 261
 353 705 l 261
 266 618 223 468 223 284 c 260
 223 100 266 -50 353 -137 c 261
EndSplineSet
Substitution2: "'sups' Superscript in Latin lookup 15-1" uni207D
Substitution2: "'subs' Subscript in Latin lookup 14-1" uni208D
EndChar

StartChar: parenright
Encoding: 41 41 292
GlifName: parenright
Width: 368
VWidth: 0
GlyphClass: 2
Flags: W
VStem: 145 198<94.3672 473.633>
LayerCount: 2
Fore
SplineSet
15 705 m 257
 211 705 l 257
 287 625 343 457 343 284 c 256
 343 111 287 -57 211 -137 c 257
 15 -137 l 257
 102 -50 145 100 145 284 c 256
 145 468 102 618 15 705 c 257
EndSplineSet
Substitution2: "'sups' Superscript in Latin lookup 15-1" uni207E
Substitution2: "'subs' Subscript in Latin lookup 14-1" uni208E
EndChar

StartChar: percent
Encoding: 37 37 293
GlifName: percent
Width: 1055
VWidth: 0
GlyphClass: 2
Flags: HW
LayerCount: 2
Fore
SplineSet
617 195 m 260
 617 323 698 408 820 408 c 260
 941 408 1022 323 1022 195 c 260
 1022 66 941 -20 820 -20 c 260
 698 -20 617 66 617 195 c 260
876 195 m 260
 876 252 855 285 820 285 c 260
 784 285 764 252 764 195 c 260
 764 137 784 102 820 102 c 260
 855 102 876 137 876 195 c 260
583 666 m 257
 746 666 l 257
 476 0 l 257
 312 0 l 257
 583 666 l 257
34 473 m 256
 34 601 115 686 237 686 c 256
 358 686 438 601 438 473 c 256
 438 344 358 258 237 258 c 256
 115 258 34 344 34 473 c 256
292 473 m 256
 292 530 272 563 237 563 c 256
 201 563 180 530 180 473 c 256
 180 415 201 381 237 381 c 256
 272 381 292 415 292 473 c 256
EndSplineSet
EndChar

StartChar: period
Encoding: 46 46 294
GlifName: period
Width: 282
VWidth: 0
GlyphClass: 2
Flags: HW
LayerCount: 2
Fore
SplineSet
37 202 m 257
 246 202 l 257
 246 0 l 257
 37 0 l 257
 37 202 l 257
EndSplineSet
Substitution2: "'tnum' Tabular Numbers in Latin lookup 11-1" period.tabl
Substitution2: "ss03StyleSet3inLatinlookup2 subtable" period.ss03
EndChar

StartChar: period.ss03
Encoding: 65589 -1 295
GlifName: period.ss03
Width: 282
VWidth: 0
GlyphClass: 2
Flags: HW
LayerCount: 2
Fore
SplineSet
31 99 m 256
 31 160 80 210 141 210 c 256
 202 210 252 160 252 99 c 256
 252 38 202 -11 141 -11 c 256
 80 -11 31 38 31 99 c 256
EndSplineSet
Substitution2: "'tnum' Tabular Numbers in Latin lookup 11-1" period.ss03.tabl
EndChar

StartChar: periodcentered
Encoding: 183 183 296
GlifName: periodcentered
Width: 282
VWidth: 0
GlyphClass: 2
Flags: W
HStem: 246 201<37 246>
VStem: 37 209<246 447>
LayerCount: 2
Fore
SplineSet
37 447 m 261
 246 447 l 261
 246 246 l 261
 37 246 l 261
 37 447 l 261
EndSplineSet
Substitution2: "ss03StyleSet3inLatinlookup2 subtable" periodcentered.ss03
EndChar

StartChar: periodcentered.ss03
Encoding: 65590 -1 297
GlifName: periodcentered.ss03
Width: 282
VWidth: 0
GlyphClass: 2
Flags: HW
LayerCount: 2
Fore
SplineSet
31 355 m 256
 31 416 80 466 141 466 c 256
 202 466 252 416 252 355 c 256
 252 294 202 245 141 245 c 256
 80 245 31 294 31 355 c 256
EndSplineSet
EndChar

StartChar: perthousand
Encoding: 8240 8240 298
GlifName: perthousand
Width: 1495
VWidth: 0
GlyphClass: 2
Flags: HW
LayerCount: 2
Fore
SplineSet
1057 195 m 256
 1057 323 1138 408 1260 408 c 256
 1381 408 1461 323 1461 195 c 256
 1461 66 1381 -20 1260 -20 c 256
 1138 -20 1057 66 1057 195 c 256
1315 195 m 256
 1315 252 1295 285 1260 285 c 256
 1224 285 1203 252 1203 195 c 256
 1203 137 1224 102 1260 102 c 256
 1295 102 1315 137 1315 195 c 256
617 195 m 256
 617 323 698 408 820 408 c 256
 941 408 1022 323 1022 195 c 256
 1022 66 941 -20 820 -20 c 256
 698 -20 617 66 617 195 c 256
876 195 m 256
 876 252 855 285 820 285 c 256
 784 285 764 252 764 195 c 256
 764 137 784 102 820 102 c 256
 855 102 876 137 876 195 c 256
583 666 m 257
 746 666 l 257
 476 0 l 257
 312 0 l 257
 583 666 l 257
34 473 m 256
 34 601 115 686 237 686 c 256
 358 686 438 601 438 473 c 256
 438 344 358 258 237 258 c 256
 115 258 34 344 34 473 c 256
292 473 m 256
 292 530 272 563 237 563 c 256
 201 563 180 530 180 473 c 256
 180 415 201 381 237 381 c 256
 272 381 292 415 292 473 c 256
EndSplineSet
EndChar

StartChar: plus
Encoding: 43 43 299
GlifName: plus
Width: 602
VWidth: 0
GlyphClass: 2
Flags: W
HStem: 238 172<26 215 387 577>
VStem: 215 172<48 238 410 599>
LayerCount: 2
Fore
SplineSet
387 410 m 261
 577 410 l 261
 577 238 l 261
 387 238 l 261
 387 48 l 261
 215 48 l 261
 215 238 l 261
 26 238 l 261
 26 410 l 261
 215 410 l 261
 215 599 l 261
 387 599 l 261
 387 410 l 261
EndSplineSet
Substitution2: "'sups' Superscript in Latin lookup 15-1" uni207A
Substitution2: "'subs' Subscript in Latin lookup 14-1" uni208A
Substitution2: "'tnum' Tabular Numbers in Latin lookup 11-1" plus.tabl
EndChar

StartChar: q
Encoding: 113 113 300
GlifName: q
Width: 622
VWidth: 0
GlyphClass: 2
Flags: HW
LayerCount: 2
Fore
SplineSet
579 512 m 257
 384 512 l 257
 384 -167 l 257
 579 -167 l 257
 579 512 l 257
428 258 m 256
 428 423 352 532 236 532 c 256
 115 532 34 423 34 258 c 256
 34 92 115 -18 236 -18 c 256
 352 -18 428 92 428 258 c 256
231 258 m 256
 231 328 260 369 307 369 c 256
 355 369 384 328 384 258 c 256
 384 186 355 145 307 145 c 256
 260 145 231 186 231 258 c 256
EndSplineSet
EndChar

StartChar: question
Encoding: 63 63 301
GlifName: question
Width: 601
VWidth: 0
GlyphClass: 2
Flags: HW
LayerCount: 2
Fore
SplineSet
208 205 m 261
 218 289 256 327 293 358 c 260
 331 390 368 412 368 464 c 260
 368 501 343 522 304 522 c 260
 262 522 235 492 233 444 c 261
 36 444 l 261
 46 580 150 674 292 674 c 260
 457 674 565 590 565 464 c 260
 565 370 523 332 481 301 c 260
 446 275 411 253 402 205 c 261
 208 205 l 261
410 0 m 257
 201 0 l 257
 201 151 l 257
 410 151 l 257
 410 0 l 257
EndSplineSet
Substitution2: "ss03StyleSet3inLatinlookup2 subtable" question.ss03
EndChar

StartChar: question.ss03
Encoding: 65591 -1 302
GlifName: question.ss03
Width: 601
VWidth: 0
GlyphClass: 2
Flags: HW
LayerCount: 2
Fore
SplineSet
195 89 m 256
 195 144 244 189 305 189 c 256
 366 189 416 144 416 89 c 256
 416 34 366 -11 305 -11 c 256
 244 -11 195 34 195 89 c 256
208 225 m 257
 217 298 252 334 287 362 c 256
 327 394 368 415 368 465 c 256
 368 502 343 523 304 523 c 256
 262 523 235 493 233 445 c 257
 36 445 l 257
 46 580 150 674 292 674 c 256
 457 674 565 591 565 465 c 256
 565 381 525 346 485 317 c 256
 448 291 412 271 402 225 c 257
 208 225 l 257
EndSplineSet
EndChar

StartChar: questiondown
Encoding: 191 191 303
GlifName: questiondown
Width: 601
VWidth: 0
GlyphClass: 2
Flags: HW
LayerCount: 2
Fore
SplineSet
393 307 m 257
 383 223 345 185 308 154 c 256
 270 122 233 100 233 48 c 256
 233 11 258 -10 297 -10 c 256
 339 -10 366 20 368 68 c 257
 565 68 l 257
 555 -68 451 -162 309 -162 c 256
 144 -162 36 -78 36 48 c 256
 36 142 78 180 120 211 c 256
 155 237 190 259 199 307 c 257
 393 307 l 257
191 512 m 257
 400 512 l 257
 400 361 l 257
 191 361 l 257
 191 512 l 257
EndSplineSet
Substitution2: "ss03StyleSet3inLatinlookup2 subtable" questiondown.ss03
EndChar

StartChar: questiondown.ss03
Encoding: 65592 -1 304
GlifName: questiondown.ss03
Width: 601
VWidth: 0
GlyphClass: 2
Flags: HW
LayerCount: 2
Fore
SplineSet
407 423 m 256
 407 368 357 323 296 323 c 256
 235 323 185 368 185 423 c 256
 185 478 235 523 296 523 c 256
 357 523 407 478 407 423 c 256
393 287 m 257
 384 214 349 178 314 150 c 256
 274 118 233 97 233 47 c 256
 233 10 258 -11 297 -11 c 256
 339 -11 366 19 368 67 c 257
 565 67 l 257
 555 -68 451 -162 309 -162 c 256
 144 -162 36 -79 36 47 c 256
 36 131 76 167 116 195 c 256
 153 221 189 241 199 287 c 257
 393 287 l 257
EndSplineSet
EndChar

StartChar: quotedbl
Encoding: 34 34 305
GlifName: quotedbl
Width: 503
VWidth: 0
GlyphClass: 2
Flags: W
HStem: 410 307<46 200 284 437>
VStem: 46 174<606.971 717> 46 154<410 520.029> 284 174<612.211 717> 284 153<410 514.789>
LayerCount: 2
Fore
SplineSet
284 717 m 257x90
 458 717 l 257x90
 437 410 l 257
 284 410 l 257x88
 284 717 l 257x90
46 717 m 257xc0
 220 717 l 257xc0
 200 410 l 257
 46 410 l 257xa0
 46 717 l 257xc0
EndSplineSet
EndChar

StartChar: quotedblbase
Encoding: 8222 8222 306
GlifName: quotedblbase
Width: 564
VWidth: 0
GlyphClass: 2
Flags: HW
LayerCount: 2
Fore
SplineSet
37 202 m 257
 246 202 l 257
 246 0 l 257
 166 -189 l 257
 32 -189 l 257
 160 0 l 257
 37 0 l 257
 37 202 l 257
319 202 m 257
 528 202 l 257
 528 0 l 257
 449 -189 l 257
 314 -189 l 257
 442 0 l 257
 319 0 l 257
 319 202 l 257
EndSplineSet
Substitution2: "ss03StyleSet3inLatinlookup2 subtable" quotedblbase.ss03
EndChar

StartChar: quotedblbase.ss03
Encoding: 65593 -1 307
GlifName: quotedblbase.ss03
Width: 564
VWidth: 0
GlyphClass: 2
Flags: HW
LayerCount: 2
Fore
SplineSet
31 111 m 256
 31 172 80 221 141 221 c 256
 202 221 252 172 252 111 c 258
 252 -14 l 258
 252 -111 195 -168 99 -168 c 258
 46 -168 l 257
 46 -78 l 257
 68 -78 l 258
 131 -78 160 -56 160 -8 c 258
 160 1 l 257
 154 0 147 0 141 0 c 256
 80 0 31 50 31 111 c 256
312 111 m 256
 312 172 362 221 423 221 c 256
 484 221 534 172 534 111 c 258
 534 -14 l 258
 534 -111 477 -168 381 -168 c 258
 328 -168 l 257
 328 -78 l 257
 349 -78 l 258
 412 -78 441 -56 441 -8 c 258
 441 1 l 257
 435 0 429 0 423 0 c 256
 362 0 312 50 312 111 c 256
EndSplineSet
EndChar

StartChar: quotedblleft
Encoding: 8220 8220 308
GlifName: quotedblleft
Width: 564
VWidth: 0
GlyphClass: 2
Flags: HW
LayerCount: 2
Fore
SplineSet
523 326 m 257
 314 326 l 257
 314 527 l 257
 394 717 l 257
 528 717 l 257
 400 527 l 257
 523 527 l 257
 523 326 l 257
241 326 m 257
 32 326 l 257
 32 527 l 257
 112 717 l 257
 246 717 l 257
 118 527 l 257
 241 527 l 257
 241 326 l 257
EndSplineSet
Substitution2: "ss03StyleSet3inLatinlookup2 subtable" quotedblleft.ss03
EndChar

StartChar: quotedblleft.ss03
Encoding: 65594 -1 309
GlifName: quotedblleft.ss03
Width: 564
VWidth: 0
GlyphClass: 2
Flags: HW
LayerCount: 2
Fore
SplineSet
534 438 m 256
 534 377 484 328 423 328 c 256
 362 328 312 377 312 438 c 258
 312 563 l 258
 312 660 369 717 465 717 c 258
 518 717 l 257
 518 627 l 257
 497 627 l 258
 434 627 404 605 404 557 c 258
 404 548 l 257
 410 549 417 549 423 549 c 256
 484 549 534 499 534 438 c 256
252 438 m 256
 252 377 202 328 141 328 c 256
 80 328 31 377 31 438 c 258
 31 563 l 258
 31 660 87 717 183 717 c 258
 237 717 l 257
 237 627 l 257
 215 627 l 258
 152 627 123 605 123 557 c 258
 123 548 l 257
 129 549 135 549 141 549 c 256
 202 549 252 499 252 438 c 256
EndSplineSet
EndChar

StartChar: quotedblright
Encoding: 8221 8221 310
GlifName: quotedblright
Width: 564
VWidth: 0
GlyphClass: 2
Flags: HW
LayerCount: 2
Fore
SplineSet
37 717 m 257
 246 717 l 257
 246 515 l 257
 166 326 l 257
 32 326 l 257
 160 515 l 257
 37 515 l 257
 37 717 l 257
319 717 m 257
 528 717 l 257
 528 515 l 257
 449 326 l 257
 314 326 l 257
 442 515 l 257
 319 515 l 257
 319 717 l 257
EndSplineSet
Substitution2: "ss03StyleSet3inLatinlookup2 subtable" quotedblright.ss03
EndChar

StartChar: quotedblright.ss03
Encoding: 65595 -1 311
GlifName: quotedblright.ss03
Width: 564
VWidth: 0
GlyphClass: 2
Flags: HW
LayerCount: 2
Fore
SplineSet
31 606 m 256
 31 667 80 717 141 717 c 256
 202 717 252 667 252 606 c 258
 252 481 l 258
 252 384 195 328 99 328 c 258
 46 328 l 257
 46 418 l 257
 68 418 l 258
 131 418 160 439 160 487 c 258
 160 497 l 257
 154 496 147 496 141 496 c 256
 80 496 31 545 31 606 c 256
312 606 m 256
 312 667 362 717 423 717 c 256
 484 717 534 667 534 606 c 258
 534 481 l 258
 534 384 477 328 381 328 c 258
 328 328 l 257
 328 418 l 257
 349 418 l 258
 412 418 441 439 441 487 c 258
 441 497 l 257
 435 496 429 496 423 496 c 256
 362 496 312 545 312 606 c 256
EndSplineSet
EndChar

StartChar: quoteleft
Encoding: 8216 8216 312
GlifName: quoteleft
Width: 282
VWidth: 0
GlyphClass: 2
Flags: HW
LayerCount: 2
Fore
SplineSet
241 326 m 257
 32 326 l 257
 32 527 l 257
 112 717 l 257
 246 717 l 257
 118 527 l 257
 241 527 l 257
 241 326 l 257
EndSplineSet
Substitution2: "ss03StyleSet3inLatinlookup2 subtable" quoteleft.ss03
EndChar

StartChar: quoteleft.ss03
Encoding: 65596 -1 313
GlifName: quoteleft.ss03
Width: 282
VWidth: 0
GlyphClass: 2
Flags: HW
LayerCount: 2
Fore
SplineSet
252 438 m 256
 252 377 202 328 141 328 c 256
 80 328 31 377 31 438 c 258
 31 563 l 258
 31 660 87 717 183 717 c 258
 237 717 l 257
 237 627 l 257
 215 627 l 258
 152 627 123 605 123 557 c 258
 123 548 l 257
 129 549 135 549 141 549 c 256
 202 549 252 499 252 438 c 256
EndSplineSet
EndChar

StartChar: quotereversed
Encoding: 8219 8219 314
GlifName: quotereversed
Width: 282
VWidth: 0
GlyphClass: 2
Flags: HW
LayerCount: 2
Fore
SplineSet
241 717 m 257
 241 515 l 257
 118 515 l 257
 246 326 l 257
 112 326 l 257
 32 515 l 257
 32 717 l 257
 241 717 l 257
EndSplineSet
Substitution2: "ss03StyleSet3inLatinlookup2 subtable" quotereversed.ss03
EndChar

StartChar: quotereversed.ss03
Encoding: 65597 -1 315
GlifName: quotereversed.ss03
Width: 282
VWidth: 0
GlyphClass: 2
Flags: HW
LayerCount: 2
Fore
SplineSet
252 606 m 256
 252 545 202 496 141 496 c 256
 135 496 129 496 123 497 c 257
 123 487 l 258
 123 439 152 418 215 418 c 258
 237 418 l 257
 237 328 l 257
 183 328 l 258
 87 328 31 384 31 481 c 258
 31 606 l 258
 31 667 80 717 141 717 c 256
 202 717 252 667 252 606 c 256
EndSplineSet
EndChar

StartChar: quoteright
Encoding: 8217 8217 316
GlifName: quoteright
Width: 282
VWidth: 0
GlyphClass: 2
Flags: HW
LayerCount: 2
Fore
SplineSet
37 717 m 257
 246 717 l 257
 246 515 l 257
 166 326 l 257
 32 326 l 257
 160 515 l 257
 37 515 l 257
 37 717 l 257
EndSplineSet
Substitution2: "ss03StyleSet3inLatinlookup2 subtable" quoteright.ss03
EndChar

StartChar: quoteright.ss03
Encoding: 65598 -1 317
GlifName: quoteright.ss03
Width: 282
VWidth: 0
GlyphClass: 2
Flags: HW
LayerCount: 2
Fore
SplineSet
31 606 m 256
 31 667 80 717 141 717 c 256
 202 717 252 667 252 606 c 258
 252 481 l 258
 252 384 195 328 99 328 c 258
 46 328 l 257
 46 418 l 257
 68 418 l 258
 131 418 160 439 160 487 c 258
 160 497 l 257
 154 496 147 496 141 496 c 256
 80 496 31 545 31 606 c 256
EndSplineSet
EndChar

StartChar: quotesinglbase
Encoding: 8218 8218 318
GlifName: quotesinglbase
Width: 282
VWidth: 0
GlyphClass: 2
Flags: HW
LayerCount: 2
Fore
SplineSet
37 202 m 257
 246 202 l 257
 246 0 l 257
 166 -189 l 257
 32 -189 l 257
 160 0 l 257
 37 0 l 257
 37 202 l 257
EndSplineSet
Substitution2: "ss03StyleSet3inLatinlookup2 subtable" quotesinglbase.ss03
EndChar

StartChar: quotesinglbase.ss03
Encoding: 65599 -1 319
GlifName: quotesinglbase.ss03
Width: 282
VWidth: 0
GlyphClass: 2
Flags: HW
LayerCount: 2
Fore
SplineSet
31 112 m 256
 31 173 80 222 141 222 c 256
 202 222 252 173 252 112 c 258
 252 -13 l 258
 252 -110 195 -167 99 -167 c 258
 46 -167 l 257
 46 -77 l 257
 68 -77 l 258
 131 -77 160 -55 160 -7 c 258
 160 2 l 257
 154 1 147 1 141 1 c 256
 80 1 31 51 31 112 c 256
EndSplineSet
EndChar

StartChar: quotesingle
Encoding: 39 39 320
GlifName: quotesingle
Width: 266
VWidth: 0
GlyphClass: 2
Flags: HW
LayerCount: 2
Fore
SplineSet
46 717 m 257
 220 717 l 257
 200 410 l 257
 46 410 l 257
 46 717 l 257
EndSplineSet
EndChar

StartChar: r
Encoding: 114 114 321
GlifName: r
Width: 440
VWidth: 0
GlyphClass: 2
Flags: W
HStem: 0 21G<44 239> 502 10G<44 239 326 407>
VStem: 44 195<0 512> 199 40<248 418>
AnchorPoint: "bottom1" 145 0 basechar 0
AnchorPoint: "top1" 258 573 basechar 0
LayerCount: 2
Fore
SplineSet
407 324 m 261xd0
 367 324 l 262
 295 324 239 290 239 242 c 261xe0
 199 248 l 261
 199 418 286 522 366 522 c 262
 407 522 l 261
 407 324 l 261xd0
44 512 m 261
 239 512 l 261
 239 0 l 261
 44 0 l 261
 44 512 l 261
EndSplineSet
EndChar

StartChar: s
Encoding: 115 115 324
GlifName: s
Width: 579
VWidth: 0
GlyphClass: 2
Flags: HW
HStem: -15 127<240.904 353.43> 399 130<239.455 339.869>
AnchorPoint: "bottom1" 304 0 basechar 0
AnchorPoint: "top1" 283 573 basechar 0
LayerCount: 2
Fore
SplineSet
326 178 m 258
 218 188 l 258
 94.3012580755 199.116717003 39 257.882352941 39 353 c 256
 39 462.24137931 132 529 282 529 c 256
 426 529 521 463.857142857 534 358 c 257
 346 358 l 257
 341 384 321 396 284 396 c 256
 254 396 236 384 236 365 c 256
 236 348 244 339 263 336 c 258
 381 326 l 258
 498.427837992 316.442050915 546 262.610169492 546 156 c 256
 546 53.6047904192 450 -15 305 -15 c 256
 150 -15 49 49.1385542169 34 154 c 257
 232 154 l 257
 238 127 260 115 302 115 c 256
 336 115 358 127 358 147 c 256
 358 163 349 175 326 178 c 258
EndSplineSet
EndChar

StartChar: second
Encoding: 8243 8243 329
GlifName: second
Width: 660
VWidth: -51
GlyphClass: 2
Flags: HW
LayerCount: 2
Fore
SplineSet
636 666 m 257
 441 461 l 257
 288 461 l 257
 421 666 l 257
 636 666 l 257
374 666 m 257
 179 461 l 257
 26 461 l 257
 159 666 l 257
 374 666 l 257
EndSplineSet
EndChar

StartChar: semicolon
Encoding: 59 59 330
GlifName: semicolon
Width: 282
VWidth: 0
GlyphClass: 2
Flags: HW
LayerCount: 2
Fore
SplineSet
37 511 m 257
 246 511 l 257
 246 309 l 257
 37 309 l 257
 37 511 l 257
37 202 m 257
 246 202 l 257
 246 0 l 257
 166 -189 l 257
 32 -189 l 257
 160 0 l 257
 37 0 l 257
 37 202 l 257
EndSplineSet
Substitution2: "ss03StyleSet3inLatinlookup2 subtable" semicolon.ss03
EndChar

StartChar: semicolon.ss03
Encoding: 65600 -1 331
GlifName: semicolon.ss03
Width: 282
VWidth: 0
GlyphClass: 2
Flags: HW
LayerCount: 2
Fore
SplineSet
31 414 m 256
 31 475 80 524 141 524 c 256
 202 524 252 475 252 414 c 256
 252 353 202 303 141 303 c 256
 80 303 31 353 31 414 c 256
31 99 m 256
 31 160 80 210 141 210 c 256
 202 210 252 160 252 99 c 258
 252 -26 l 258
 252 -115 195 -167 99 -167 c 258
 46 -167 l 257
 46 -77 l 257
 68 -77 l 258
 131 -77 160 -59 160 -19 c 258
 160 -10 l 257
 154 -11 147 -11 141 -11 c 256
 80 -11 31 38 31 99 c 256
EndSplineSet
EndChar

StartChar: seven
Encoding: 55 55 332
GlifName: seven
Width: 595
VWidth: 0
GlyphClass: 2
Flags: HW
LayerCount: 2
Fore
SplineSet
367 0 m 261
 367 218 416 364 560 473 c 261
 560 666 l 261
 36 666 l 261
 36 483 l 261
 344 483 l 261
 228 381 134 255 134 0 c 261
 367 0 l 261
EndSplineSet
Substitution2: "'cv04' Character Variants 04 in Latin lookup 19-1" uni2466
Substitution2: "'cv03' Character Variants 03 in Latin lookup 18-1" uni277C
Substitution2: "'cv02' Character Variants 02 in Latin lookup 17-1" seven.cv02
Substitution2: "'cv01' Character Variants 01 in Latin lookup 16-1" seven.cv01
Substitution2: "'sups' Superscript in Latin lookup 15-1" uni2077
Substitution2: "'subs' Subscript in Latin lookup 14-1" uni2087
Substitution2: "'numr' Numerators in Latin lookup 13-1" seven.numr
Substitution2: "'dnom' Denominators in Latin lookup 12-1" seven.dnom
Substitution2: "'tnum' Tabular Numbers in Latin lookup 11-1" seven.tabl
EndChar

StartChar: six
Encoding: 54 54 333
GlifName: six
Width: 631
VWidth: 0
GlyphClass: 2
Flags: HW
LayerCount: 2
Fore
SplineSet
36 341 m 260
 36 550 146 676 329 676 c 260
 468 676 564 603 588 480 c 261
 390 480 l 261
 384 514 364 532 330 532 c 260
 273 532 233 469 233 374 c 260
 233 370 233 365 233 361 c 261
 259 407 319 436 388 436 c 260
 508 436 596 345 596 221 c 260
 596 86 490 -8 336 -8 c 260
 152 -8 36 127 36 341 c 260
256 216 m 260
 256 170 287 136 330 136 c 260
 371 136 398 167 398 214 c 260
 398 261 371 292 328 292 c 260
 285 292 256 261 256 216 c 260
EndSplineSet
Substitution2: "'cv04' Character Variants 04 in Latin lookup 19-1" uni2465
Substitution2: "'cv03' Character Variants 03 in Latin lookup 18-1" uni277B
Substitution2: "'cv02' Character Variants 02 in Latin lookup 17-1" six.cv02
Substitution2: "'cv01' Character Variants 01 in Latin lookup 16-1" six.cv01
Substitution2: "'sups' Superscript in Latin lookup 15-1" uni2076
Substitution2: "'subs' Subscript in Latin lookup 14-1" uni2086
Substitution2: "'numr' Numerators in Latin lookup 13-1" six.numr
Substitution2: "'dnom' Denominators in Latin lookup 12-1" six.dnom
Substitution2: "'tnum' Tabular Numbers in Latin lookup 11-1" six.tabl
EndChar

StartChar: slash
Encoding: 47 47 334
GlifName: slash
Width: 512
VWidth: 0
GlyphClass: 2
Flags: W
HStem: 0 21G<34 255.877> 646 20G<256.123 478>
LayerCount: 2
Fore
SplineSet
263 666 m 261
 478 666 l 261
 249 0 l 261
 34 0 l 261
 263 666 l 261
EndSplineSet
Substitution2: "'tnum' Tabular Numbers in Latin lookup 11-1" slash.tabl
EndChar

StartChar: t
Encoding: 116 116 336
GlifName: t
Width: 387
VWidth: 0
GlyphClass: 2
Flags: W
HStem: 0 21G<236 364> 360 152<24 364>
VStem: 96 195<166.146 645>
AnchorPoint: "top2" 326 541 basechar 0
AnchorPoint: "bottom1" 304 0 basechar 0
LayerCount: 2
Fore
SplineSet
24 512 m 257
 364 512 l 257
 364 360 l 257
 24 360 l 257
 24 512 l 257
364 162 m 257
 364 0 l 257
 300 0 l 258
 172 0 96 67 96 182 c 258
 96 645 l 257
 291 645 l 257
 291 209 l 258
 291 176 303 162 332 162 c 258
 364 162 l 257
EndSplineSet
Substitution2: "ss08StyleSet8inLatinlookup7 subtable" t.ss08
EndChar

StartChar: t.ss08
Encoding: 65601 -1 337
GlifName: t.ss08
Width: 387
VWidth: 0
GlyphClass: 2
Flags: W
HStem: 0 21G<96 291> 360 152<24 364>
VStem: 96 195<0 645>
AnchorPoint: "bottom1" 199 0 basechar 0
AnchorPoint: "top2" 326 541 basechar 0
LayerCount: 2
Fore
SplineSet
24 512 m 261
 364 512 l 261
 364 360 l 261
 24 360 l 261
 24 512 l 261
96 0 m 261
 96 645 l 261
 291 645 l 261
 291 0 l 261
 96 0 l 261
EndSplineSet
EndChar

StartChar: tbar
Encoding: 359 359 338
GlifName: tbar
Width: 387
VWidth: 0
GlyphClass: 2
Flags: W
HStem: 0 21G<236 364> 220 101<24 364> 371 141<24 364>
VStem: 24 340<220 321 371 512> 96 195<166.146 645>
LayerCount: 2
Fore
SplineSet
24 321 m 261xf0
 364 321 l 261
 364 220 l 261
 24 220 l 261
 24 321 l 261xf0
24 512 m 257
 364 512 l 257
 364 371 l 257
 24 371 l 257
 24 512 l 257
364 162 m 257
 364 0 l 257xf0
 300 0 l 258
 172 0 96 67 96 182 c 258
 96 645 l 257
 291 645 l 257
 291 199 l 258xe8
 291 173 303 162 332 162 c 258
 364 162 l 257
EndSplineSet
Substitution2: "ss08StyleSet8inLatinlookup7 subtable" tbar.ss08
EndChar

StartChar: thorn
Encoding: 254 254 340
GlifName: thorn
Width: 622
VWidth: 0
GlyphClass: 2
Flags: HW
LayerCount: 2
Fore
SplineSet
44 717 m 257
 239 717 l 257
 239 -167 l 257
 44 -167 l 257
 44 717 l 257
195 258 m 256
 195 423 271 532 387 532 c 256
 508 532 589 423 589 258 c 256
 589 92 508 -18 387 -18 c 256
 271 -18 195 92 195 258 c 256
391 258 m 256
 391 328 362 369 315 369 c 256
 267 369 239 328 239 258 c 256
 239 186 267 145 315 145 c 256
 362 145 391 186 391 258 c 256
EndSplineSet
EndChar

StartChar: three
Encoding: 51 51 341
GlifName: three
Width: 611
VWidth: 0
GlyphClass: 2
Flags: HW
LayerCount: 2
Fore
SplineSet
384 406 m 261
 384 266 l 261
 252 266 l 261
 252 406 l 261
 384 406 l 261
323 297 m 261
 323 406 l 261
 352 406 368 424 368 457 c 260
 368 497 344 521 306 521 c 260
 268 521 245 497 244 456 c 261
 46 456 l 261
 56 587 162 674 312 674 c 260
 459 674 565 590 565 474 c 260
 565 364 473 297 323 297 c 261
323 375 m 261
 476 375 575 300 575 185 c 260
 575 70 474 -8 324 -8 c 260
 163 -8 47 83 36 217 c 261
 233 217 l 261
 238 172 267 146 311 146 c 260
 353 146 378 170 378 211 c 260
 378 247 358 266 323 266 c 261
 323 375 l 261
EndSplineSet
Substitution2: "'cv04' Character Variants 04 in Latin lookup 19-1" uni2462
Substitution2: "'cv03' Character Variants 03 in Latin lookup 18-1" uni2778
Substitution2: "'cv02' Character Variants 02 in Latin lookup 17-1" three.cv02
Substitution2: "'cv01' Character Variants 01 in Latin lookup 16-1" three.cv01
Substitution2: "'sups' Superscript in Latin lookup 15-1" uni00B3
Substitution2: "'subs' Subscript in Latin lookup 14-1" uni2083
Substitution2: "'numr' Numerators in Latin lookup 13-1" three.numr
Substitution2: "'dnom' Denominators in Latin lookup 12-1" three.dnom
Substitution2: "'tnum' Tabular Numbers in Latin lookup 11-1" three.tabl
EndChar

StartChar: tildecomb
Encoding: 771 771 342
GlifName: tildecomb
Width: 307
VWidth: 0
GlyphClass: 4
Flags: W
HStem: 508 143<157.863 271.747> 563 144<33.288 134.159>
AnchorPoint: "top1" 160 512 mark 0
LayerCount: 2
Fore
SplineSet
45 707 m 256x40
 101 707 132 687 162 671 c 256
 181 661 198 651 222 651 c 256
 259 651 281 669 281 700 c 257
 386 700 l 257
 386 577 332 508 236 508 c 256x80
 191 508 163 524 139 538 c 256
 117 551 100 563 75 563 c 256
 45 563 26 543 26 512 c 257
 -82 512 l 257
 -82 640 -38 707 45 707 c 256x40
EndSplineSet
EndChar

StartChar: two
Encoding: 50 50 343
GlifName: two
Width: 601
VWidth: 0
GlyphClass: 2
Flags: HW
LayerCount: 2
Fore
SplineSet
278 172 m 261
 561 172 l 261
 561 0 l 261
 36 0 l 261
 36 35 l 261
 36 248 147 322 241 366 c 260
 309 398 368 414 368 456 c 260
 368 493 343 513 304 513 c 260
 262 513 235 483 233 435 c 261
 36 435 l 261
 46 576 150 674 292 674 c 260
 457 674 565 587 565 456 c 260
 565 346 484 295 408 259 c 260
 341 227 278 209 278 172 c 261
EndSplineSet
Substitution2: "'cv04' Character Variants 04 in Latin lookup 19-1" uni2461
Substitution2: "'cv03' Character Variants 03 in Latin lookup 18-1" uni2777
Substitution2: "'cv02' Character Variants 02 in Latin lookup 17-1" two.cv02
Substitution2: "'cv01' Character Variants 01 in Latin lookup 16-1" two.cv01
Substitution2: "'sups' Superscript in Latin lookup 15-1" uni00B2
Substitution2: "'subs' Subscript in Latin lookup 14-1" uni2082
Substitution2: "'numr' Numerators in Latin lookup 13-1" two.numr
Substitution2: "'dnom' Denominators in Latin lookup 12-1" two.dnom
Substitution2: "'tnum' Tabular Numbers in Latin lookup 11-1" two.tabl
EndChar

StartChar: u
Encoding: 117 117 344
GlifName: u
Width: 610
VWidth: 0
GlyphClass: 2
Flags: W
HStem: -20 174<172 325.5> 0 21G<372 566> 492 20G<44 239 372 566>
VStem: 44 195<171.801 512> 372 194<213 512> 372 40<68 213>
AnchorPoint: "top3" 372 512 basechar 0
AnchorPoint: "bottom1" 314 0 basechar 0
AnchorPoint: "bottom2" 566 0 basechar 0
AnchorPoint: "top1" 304 573 basechar 0
LayerCount: 2
Fore
SplineSet
239 225 m 262xb4
 239 175 265 154 307 154 c 260
 344 154 372 181 372 219 c 261xb8
 412 213 l 261
 412 68 314 -20 224 -20 c 260
 120 -20 44 52 44 184 c 262
 44 512 l 261
 239 512 l 261
 239 225 l 262xb4
566 0 m 261x78
 372 0 l 261x74
 372 512 l 261
 566 512 l 261
 566 0 l 261x78
EndSplineSet
Substitution2: "ss10StyleSet10inLatinlookup9 subtable" u.ss10
EndChar

StartChar: u.ss10
Encoding: 65602 -1 345
GlifName: u.ss10
Width: 610
VWidth: 0
GlyphClass: 2
Flags: W
HStem: -8 184<257.001 352.04> 492 20G<44 239 372 566>
VStem: 44 195<193.848 512> 372 194<193.848 512>
AnchorPoint: "bottom2" 375 0 basechar 0
AnchorPoint: "top3" 372 512 basechar 0
AnchorPoint: "top1" 304 573 basechar 0
AnchorPoint: "bottom1" 314 0 basechar 0
LayerCount: 2
Fore
SplineSet
44 512 m 261
 239 512 l 261
 239 258 l 262
 239 206 264 176 307 176 c 260
 348 176 372 206 372 258 c 262
 372 512 l 261
 566 512 l 261
 566 258 l 262
 566 98 462 -8 307 -8 c 260
 149 -8 44 98 44 258 c 262
 44 512 l 261
EndSplineSet
EndChar

StartChar: underscore
Encoding: 95 95 355
GlifName: underscore
Width: 655
VWidth: 0
GlyphClass: 2
Flags: HW
LayerCount: 2
Fore
SplineSet
26 0 m 261
 630 0 l 261
 630 -137 l 261
 26 -137 l 261
 26 0 l 261
EndSplineSet
EndChar

StartChar: uni0237
Encoding: 567 567 378
GlifName: uni0237
Width: 282
VWidth: 0
GlyphClass: 2
Flags: W
HStem: 492 20G<44 239>
VStem: 44 195<-30.8199 512>
AnchorPoint: "top1" 145 573 basechar 0
LayerCount: 2
Fore
SplineSet
-29 -33 m 257
 3 -33 l 258
 32 -33 44 -22 44 4 c 258
 44 512 l 257
 239 512 l 257
 239 -2 l 258
 239 -129 163 -205 35 -205 c 258
 -29 -205 l 257
 -29 -33 l 257
EndSplineSet
PickledDataWithLists: "(dp0
Vcom.fontlab.hintData\\u000d\\u000d\\u000d\\u000d\\u000d\\u000d\\u000d\\u000d\\u000d\\u000d\\u000d\\u000d\\u000d\\u000d\\u000d\\u000d\\u000d\\u000d\\u000d\\u000d\\u000d\\u000d\\u000d\\u000d\\u000d\\u000d\\u000d
p1
(dp2
Vhhints\\u000d\\u000d\\u000d\\u000d\\u000d\\u000d\\u000d\\u000d\\u000d\\u000d\\u000d\\u000d\\u000d\\u000d\\u000d\\u000d\\u000d\\u000d\\u000d\\u000d\\u000d\\u000d\\u000d\\u000d\\u000d\\u000d\\u000d
p3
(lp4
(dp5
Vposition\\u000d\\u000d\\u000d\\u000d\\u000d\\u000d\\u000d\\u000d\\u000d\\u000d\\u000d\\u000d\\u000d\\u000d\\u000d\\u000d\\u000d\\u000d\\u000d\\u000d\\u000d\\u000d\\u000d\\u000d\\u000d\\u000d\\u000d
p6
I480
sVwidth\\u000d\\u000d\\u000d\\u000d\\u000d\\u000d\\u000d\\u000d\\u000d\\u000d\\u000d\\u000d\\u000d\\u000d\\u000d\\u000d\\u000d\\u000d\\u000d\\u000d\\u000d\\u000d\\u000d\\u000d\\u000d\\u000d\\u000d
p7
I20
sasVvhints\\u000d\\u000d\\u000d\\u000d\\u000d\\u000d\\u000d\\u000d\\u000d\\u000d\\u000d\\u000d\\u000d\\u000d\\u000d\\u000d\\u000d\\u000d\\u000d\\u000d\\u000d\\u000d\\u000d\\u000d\\u000d\\u000d\\u000d
p8
(lp9
(dp10
g6
I43
sg7
I190
sass."
EndChar

StartChar: uni02BC
Encoding: 700 700 379
GlifName: uni02B_C_
Width: 238
VWidth: 0
GlyphClass: 2
Flags: W
HStem: 351 90<33 135.768> 515 202<30 146>
VStem: 30 209<406.68 441 515 717> 146 93<452.541 515>
LayerCount: 2
Fore
SplineSet
30 717 m 257xe0
 239 717 l 257xe0
 239 482 l 258
 239 399 182 351 86 351 c 258
 33 351 l 257
 33 441 l 257
 54 441 l 258
 117 441 146 455 146 488 c 258
 146 515 l 257xd0
 30 515 l 257
 30 717 l 257xe0
EndSplineSet
EndChar

StartChar: uni0302
Encoding: 770 770 380
GlifName: uni0302
Width: 307
VWidth: 0
GlyphClass: 4
Flags: W
HStem: 512 205<62 93 216 247>
AnchorPoint: "top1" 160 512 mark 0
LayerCount: 2
Fore
SplineSet
62 717 m 257
 247 717 l 257
 390 512 l 257
 216 512 l 257
 155 621 l 257
 93 512 l 257
 -81 512 l 257
 62 717 l 257
EndSplineSet
EndChar

StartChar: uni0304
Encoding: 772 772 381
GlifName: uni0304
Width: 307
VWidth: 0
GlyphClass: 4
Flags: HW
AnchorPoint: "top1" 160 512 mark 0
LayerCount: 2
Fore
SplineSet
-31 662 m 257
 338 662 l 257
 338 522 l 257
 -31 522 l 257
 -31 662 l 257
EndSplineSet
EndChar

StartChar: uni0306
Encoding: 774 774 382
GlifName: uni0306
Width: 307
VWidth: 0
GlyphClass: 4
Flags: W
HStem: 505 133<105.466 205.66>
AnchorPoint: "top1" 160 512 mark 0
LayerCount: 2
Fore
SplineSet
384 699 m 257
 368 582 277 505 156 505 c 256
 34 505 -59 582 -74 699 c 257
 88 699 l 257
 94 660 120 638 156 638 c 256
 192 638 216 660 222 699 c 257
 384 699 l 257
EndSplineSet
EndChar

StartChar: uni0307
Encoding: 775 775 383
GlifName: uni0307
Width: 307
VWidth: 0
GlyphClass: 4
Flags: HW
AnchorPoint: "top1" 160 512 mark 0
LayerCount: 2
Fore
SplineSet
52 714 m 257
 261 714 l 257
 261 512 l 257
 52 512 l 257
 52 714 l 257
EndSplineSet
Substitution2: "ss03StyleSet3inLatinlookup2 subtable" uni0307.ss03
EndChar

StartChar: uni0307.ss03
Encoding: 65614 -1 384
GlifName: uni0307.ss03
Width: 307
VWidth: 0
GlyphClass: 4
Flags: HW
AnchorPoint: "top1" 160 512 mark 0
LayerCount: 2
Fore
SplineSet
48 616 m 256
 48 677 98 727 159 727 c 256
 220 727 269 677 269 616 c 256
 269 555 220 506 159 506 c 256
 98 506 48 555 48 616 c 256
EndSplineSet
EndChar

StartChar: uni0308
Encoding: 776 776 385
GlifName: uni0308
Width: 307
VWidth: 0
GlyphClass: 4
Flags: W
HStem: 512 181<-68 121 197 385>
VStem: -68 189<512 693> 197 188<512 693>
AnchorPoint: "top1" 160 512 mark 0
LayerCount: 2
Fore
SplineSet
197 693 m 257
 385 693 l 257
 385 512 l 257
 197 512 l 257
 197 693 l 257
-68 693 m 257
 121 693 l 257
 121 512 l 257
 -68 512 l 257
 -68 693 l 257
EndSplineSet
Substitution2: "ss03StyleSet3inLatinlookup2 subtable" uni0308.ss03
EndChar

StartChar: uni0308.ss03
Encoding: 65615 -1 386
GlifName: uni0308.ss03
Width: 307
VWidth: 0
GlyphClass: 4
Flags: W
HStem: 506 221<-60.9216 71.2826 235.717 368.283>
VStem: -105 221<550.078 682.283> 191 222<550.078 682.283>
AnchorPoint: "top1" 160 512 mark 0
LayerCount: 2
Fore
SplineSet
-105 616 m 256
 -105 677 -56 727 5 727 c 256
 66 727 116 677 116 616 c 256
 116 555 66 506 5 506 c 256
 -56 506 -105 555 -105 616 c 256
191 616 m 256
 191 677 241 727 302 727 c 256
 363 727 413 677 413 616 c 256
 413 555 363 506 302 506 c 256
 241 506 191 555 191 616 c 256
EndSplineSet
EndChar

StartChar: uni030A
Encoding: 778 778 387
GlifName: uni030A_
Width: 307
VWidth: 0
GlyphClass: 4
Flags: W
HStem: 505 115<110.437 198.377> 718 115<112.259 198.04>
VStem: -16 120<628.196 709.804> 206 121<627.914 710.086>
AnchorPoint: "top1" 160 512 mark 0
LayerCount: 2
Fore
SplineSet
104 669 m 256
 104 638 123 620 156 620 c 256
 188 620 206 638 206 669 c 256
 206 700 188 718 155 718 c 256
 123 718 104 700 104 669 c 256
327 669 m 256
 327 571 258 505 156 505 c 256
 53 505 -16 571 -16 669 c 256
 -16 767 53 833 155 833 c 256
 258 833 327 767 327 669 c 256
EndSplineSet
EndChar

StartChar: uni030B
Encoding: 779 779 388
GlifName: uni030B_
Width: 307
VWidth: 0
GlyphClass: 4
Flags: HW
AnchorPoint: "top1" 160 512 mark 0
LayerCount: 2
Fore
SplineSet
513 717 m 257
 349 512 l 257
 196 512 l 257
 298 717 l 257
 513 717 l 257
257 717 m 257
 93 512 l 257
 -60 512 l 257
 42 717 l 257
 257 717 l 257
EndSplineSet
EndChar

StartChar: uni030C
Encoding: 780 780 389
GlifName: uni030C_
Width: 307
VWidth: 0
GlyphClass: 4
Flags: W
HStem: 512 205<62 93 216 247>
AnchorPoint: "top1" 160 512 mark 0
LayerCount: 2
Fore
SplineSet
247 512 m 257
 62 512 l 257
 -81 717 l 257
 93 717 l 257
 155 608 l 257
 216 717 l 257
 390 717 l 257
 247 512 l 257
EndSplineSet
EndChar

StartChar: uni0312
Encoding: 786 786 390
GlifName: uni0312
Width: 307
VWidth: 0
GlyphClass: 4
Flags: HW
AnchorPoint: "top1" 160 512 mark 0
LayerCount: 2
Fore
SplineSet
259 512 m 257
 50 512 l 257
 50 746 l 258
 50 829 107 878 203 878 c 258
 256 878 l 257
 256 787 l 257
 234 787 l 258
 171 787 142 773 142 740 c 258
 142 714 l 257
 259 714 l 257
 259 512 l 257
EndSplineSet
Substitution2: "ss03StyleSet3inLatinlookup2 subtable" uni0312.ss03
EndChar

StartChar: uni0312.ss03
Encoding: 65616 -1 391
GlifName: uni0312.ss03
Width: 307
VWidth: 0
GlyphClass: 4
Flags: HW
AnchorPoint: "top1" 160 512 mark 0
LayerCount: 2
Fore
SplineSet
281 623 m 256
 281 562 231 512 170 512 c 256
 109 512 59 562 59 623 c 258
 59 748 l 258
 59 837 116 889 212 889 c 258
 265 889 l 257
 265 799 l 257
 244 799 l 258
 181 799 152 781 152 741 c 258
 152 732 l 257
 158 733 164 733 170 733 c 256
 231 733 281 684 281 623 c 256
EndSplineSet
EndChar

StartChar: uni0313
Encoding: 787 787 392
GlifName: uni0313
Width: 307
VWidth: 0
GlyphClass: 4
Flags: HW
AnchorPoint: "top1" 160 512 mark 0
LayerCount: 2
Fore
SplineSet
50 878 m 257
 259 878 l 257
 259 643 l 258
 259 560 202 512 106 512 c 258
 53 512 l 257
 53 602 l 257
 75 602 l 258
 138 602 167 616 167 649 c 258
 167 676 l 257
 50 676 l 257
 50 878 l 257
EndSplineSet
Substitution2: "ss03StyleSet3inLatinlookup2 subtable" uni0313.ss03
EndChar

StartChar: uni0313.ss03
Encoding: 65617 -1 393
GlifName: uni0313.ss03
Width: 307
VWidth: 0
GlyphClass: 4
Flags: HW
AnchorPoint: "top1" 160 512 mark 0
LayerCount: 2
Fore
SplineSet
59 778 m 256
 59 839 109 889 170 889 c 256
 231 889 281 839 281 778 c 258
 281 653 l 258
 281 564 224 512 128 512 c 258
 75 512 l 257
 75 602 l 257
 96 602 l 258
 159 602 188 619 188 659 c 258
 188 669 l 257
 182 668 176 668 170 668 c 256
 109 668 59 717 59 778 c 256
EndSplineSet
EndChar

StartChar: uni0315
Encoding: 789 789 394
GlifName: uni0315
Width: 307
VWidth: 0
GlyphClass: 4
Flags: W
HStem: 512 290<166 288>
VStem: 127 205
AnchorPoint: "top2" 127 512 mark 0
LayerCount: 2
Fore
SplineSet
166 802 m 257
 332 802 l 257
 288 512 l 257
 127 512 l 257
 166 802 l 257
EndSplineSet
EndChar

StartChar: uni031B
Encoding: 795 795 395
GlifName: uni031B_
Width: 307
VWidth: 0
GlyphClass: 4
Flags: W
HStem: 461 100<78 221.732>
VStem: 232 144<567.74 686>
AnchorPoint: "top3" 78 561 mark 0
LayerCount: 2
Fore
SplineSet
78 561 m 257
 181 561 l 258
 210 561 232 571 232 618 c 258
 232 686 l 257
 376 686 l 257
 376 612 l 258
 376 496 280 461 193 461 c 258
 78 461 l 257
 78 561 l 257
EndSplineSet
EndChar

StartChar: uni0326
Encoding: 806 806 396
GlifName: uni0326
Width: 307
VWidth: 0
GlyphClass: 4
Flags: W
HStem: -394 90<58 161.676> -230 201<55 172>
VStem: 55 209<-338.32 -304 -230 -29> 172 92<-292.459 -230>
AnchorPoint: "bottom1" 164 0 mark 0
LayerCount: 2
Fore
SplineSet
55 -29 m 257xe0
 264 -29 l 257xe0
 264 -263 l 258
 264 -346 208 -394 112 -394 c 258
 58 -394 l 257
 58 -304 l 257
 80 -304 l 258
 143 -304 172 -290 172 -257 c 258
 172 -230 l 257xd0
 55 -230 l 257
 55 -29 l 257xe0
EndSplineSet
Substitution2: "ss03StyleSet3inLatinlookup2 subtable" uni0326.ss03
EndChar

StartChar: uni0326.ss03
Encoding: 65618 -1 397
GlifName: uni0326.ss03
Width: 307
VWidth: 0
GlyphClass: 4
Flags: W
HStem: -416 90<69 167.874>
VStem: 53 221<-215.922 -83.7174> 182 92<-309.364 -259>
AnchorPoint: "bottom1" 164 0 mark 0
LayerCount: 2
Fore
SplineSet
53 -150 m 256xc0
 53 -89 103 -39 164 -39 c 256
 225 -39 274 -89 274 -150 c 258xc0
 274 -274 l 258
 274 -363 218 -416 122 -416 c 258
 69 -416 l 257
 69 -326 l 257
 90 -326 l 258
 153 -326 182 -308 182 -268 c 258
 182 -259 l 257xa0
 176 -260 170 -260 164 -260 c 256
 103 -260 53 -211 53 -150 c 256xc0
EndSplineSet
EndChar

StartChar: uni0327
Encoding: 807 807 398
GlifName: uni0327
Width: 307
VWidth: 0
GlyphClass: 4
Flags: W
HStem: -294 133<46 160.683>
VStem: 162 146<-214 -119.478>
AnchorPoint: "bottom1" 164 0 mark 0
LayerCount: 2
Fore
SplineSet
120 10 m 257
 219 10 l 257
 179 -56 l 257
 194 -56 l 258
 262 -56 308 -106 308 -179 c 256
 308 -249 241 -294 137 -294 c 258
 46 -294 l 257
 46 -161 l 257
 129 -161 l 258
 150 -161 162 -152 162 -137 c 256
 162 -125 152 -118 135 -118 c 258
 100 -118 l 257
 75 -77 l 257
 120 10 l 257
EndSplineSet
EndChar

StartChar: uni0328
Encoding: 808 808 399
GlifName: uni0328
Width: 307
VWidth: 0
GlyphClass: 4
Flags: W
HStem: -272 143<123.641 244> -20 20G<55.5 201>
VStem: -18 136<-181 -64.1879>
AnchorPoint: "bottom2" 201 0 mark 0
LayerCount: 2
Fore
SplineSet
201 0 m 257
 132 -36 118 -57 118 -89 c 260
 118 -115 136 -129 171 -129 c 258
 244 -129 l 257
 244 -272 l 257
 163 -272 l 258
 53 -272 -18 -221 -18 -141 c 260
 -18 -68 30 -27 81 0 c 257
 201 0 l 257
EndSplineSet
EndChar

StartChar: uni1E9E
Encoding: 7838 7838 400
GlifName: uni1E_9E_
Width: 701
VWidth: 0
GlyphClass: 2
Flags: HW
LayerCount: 2
Fore
SplineSet
662 451 m 257
 583 501 498 536 396 536 c 256
 287 536 241 493 241 395 c 258
 241 0 l 257
 46 0 l 257
 46 401 l 258
 46 589 164 687 393 687 c 256
 496 687 583 660 662 620 c 257
 662 451 l 257
547 376 m 257
 632 359 686 291 686 196 c 256
 686 79 597 0 462 0 c 258
 329 0 l 257
 329 154 l 257
 413 154 l 258
 468 154 499 172 499 205 c 256
 499 239 467 258 410 258 c 258
 339 258 l 257
 339 401 l 257
 528 545 l 257
 662 451 l 257
 547 376 l 257
EndSplineSet
EndChar

StartChar: uni1EA1.ss01.ss03
Encoding: 65621 -1 405
GlifName: uni1E_A_1.ss01.ss03
Width: 622
VWidth: 0
GlyphClass: 2
Flags: HW
AnchorPoint: "top1" 315 573 basechar 0
LayerCount: 2
Fore
SplineSet
218 -158 m 256
 218 -97 268 -47 329 -47 c 256
 390 -47 439 -97 439 -158 c 256
 439 -219 390 -268 329 -268 c 256
 268 -268 218 -219 218 -158 c 256
EndSplineSet
Refer: 132 -1 N 1 0 0 1 0 0 2
EndChar

StartChar: uni201F
Encoding: 8223 8223 528
GlifName: uni201F_
Width: 564
VWidth: 0
GlyphClass: 2
Flags: HW
LayerCount: 2
Fore
SplineSet
523 717 m 257
 523 515 l 257
 400 515 l 257
 528 326 l 257
 394 326 l 257
 314 515 l 257
 314 717 l 257
 523 717 l 257
241 717 m 257
 241 515 l 257
 118 515 l 257
 246 326 l 257
 112 326 l 257
 32 515 l 257
 32 717 l 257
 241 717 l 257
EndSplineSet
Substitution2: "ss03StyleSet3inLatinlookup2 subtable" uni201F.ss03
EndChar

StartChar: uni201F.ss03
Encoding: 65658 -1 529
GlifName: uni201F_.ss03
Width: 564
VWidth: 0
GlyphClass: 2
Flags: HW
LayerCount: 2
Fore
SplineSet
534 606 m 256
 534 545 484 496 423 496 c 256
 417 496 410 496 404 497 c 257
 404 487 l 258
 404 439 434 418 497 418 c 258
 518 418 l 257
 518 328 l 257
 465 328 l 258
 369 328 312 384 312 481 c 258
 312 606 l 258
 312 667 362 717 423 717 c 256
 484 717 534 667 534 606 c 256
252 606 m 256
 252 545 202 496 141 496 c 256
 135 496 129 496 123 497 c 257
 123 487 l 258
 123 439 152 418 215 418 c 258
 237 418 l 257
 237 328 l 257
 183 328 l 258
 87 328 31 384 31 481 c 258
 31 606 l 258
 31 667 80 717 141 717 c 256
 202 717 252 667 252 606 c 256
EndSplineSet
EndChar

StartChar: uni2034
Encoding: 8244 8244 530
GlifName: uni2034
Width: 922
VWidth: -51
GlyphClass: 2
Flags: HW
LayerCount: 2
Fore
SplineSet
374 666 m 257
 179 461 l 257
 26 461 l 257
 159 666 l 257
 374 666 l 257
898 666 m 257
 703 461 l 257
 550 461 l 257
 683 666 l 257
 898 666 l 257
636 666 m 257
 441 461 l 257
 288 461 l 257
 421 666 l 257
 636 666 l 257
EndSplineSet
EndChar

StartChar: uni2035
Encoding: 8245 8245 531
GlifName: uni2035
Width: 399
VWidth: -51
GlyphClass: 2
Flags: HW
LayerCount: 2
Fore
SplineSet
26 666 m 257
 241 666 l 257
 374 461 l 257
 220 461 l 257
 26 666 l 257
EndSplineSet
EndChar

StartChar: uni2036
Encoding: 8246 8246 532
GlifName: uni2036
Width: 660
VWidth: -51
GlyphClass: 2
Flags: HW
LayerCount: 2
Fore
SplineSet
26 666 m 257
 241 666 l 257
 374 461 l 257
 220 461 l 257
 26 666 l 257
288 666 m 257
 503 666 l 257
 636 461 l 257
 482 461 l 257
 288 666 l 257
EndSplineSet
EndChar

StartChar: uni2037
Encoding: 8247 8247 533
GlifName: uni2037
Width: 922
VWidth: -51
GlyphClass: 2
Flags: HW
LayerCount: 2
Fore
SplineSet
550 666 m 257
 765 666 l 257
 898 461 l 257
 744 461 l 257
 550 666 l 257
26 666 m 257
 241 666 l 257
 374 461 l 257
 220 461 l 257
 26 666 l 257
288 666 m 257
 503 666 l 257
 636 461 l 257
 482 461 l 257
 288 666 l 257
EndSplineSet
EndChar

StartChar: v
Encoding: 118 118 537
GlifName: v
Width: 605
VWidth: 0
GlyphClass: 2
Flags: W
HStem: 0 21G<184.555 420.484> 492 20G<26 231.503 372.731 580>
LayerCount: 2
Fore
SplineSet
26 512 m 261
 227 512 l 261
 304 170 l 261
 377 512 l 261
 580 512 l 261
 414 0 l 261
 191 0 l 261
 26 512 l 261
EndSplineSet
EndChar

StartChar: w
Encoding: 119 119 538
GlifName: w
Width: 930
VWidth: 0
GlyphClass: 2
Flags: HW
AnchorPoint: "top1" 461 573 basechar 0
LayerCount: 2
Fore
SplineSet
26 512 m 261
 227 512 l 261
 285 185 l 261
 353 512 l 261
 575 512 l 261
 648 185 l 261
 703 512 l 261
 905 512 l 261
 753 0 l 261
 529 0 l 261
 460 321 l 261
 404 0 l 261
 171 0 l 261
 26 512 l 261
EndSplineSet
EndChar

StartChar: x
Encoding: 120 120 540
GlifName: x
Width: 594
VWidth: 0
GlyphClass: 2
Flags: W
HStem: 0 21G<26 236.608 358.886 569> 492 20G<26 236.114 358.392 569>
LayerCount: 2
Fore
SplineSet
26 512 m 257
 227 512 l 257
 299 354 l 257
 367 512 l 257
 569 512 l 257
 443 256 l 257
 569 0 l 257
 368 0 l 257
 296 158 l 257
 228 0 l 257
 26 0 l 257
 152 256 l 257
 26 512 l 257
EndSplineSet
EndChar

StartChar: y
Encoding: 121 121 541
GlifName: y
Width: 625
VWidth: 0
GlyphClass: 2
Flags: HW
HStem: -188 165<62 174.733> 492 20G<26 232.781 391.485 600>
AnchorPoint: "bottom1" 550 0 basechar 0
AnchorPoint: "top1" 315 573 basechar 0
LayerCount: 2
Fore
SplineSet
62 -23 m 257
 123 -23 l 258
 159.344827586 -23 180.448275862 -13 191 10 c 258
 199 31 l 257
 26 512 l 257
 227 512 l 257
 314 201 l 261
 397 512 l 257
 600 512 l 257
 430 -6 l 258
 386.323529412 -142 318.823529412 -188 160 -188 c 258
 62 -188 l 257
 62 -23 l 257
EndSplineSet
Substitution2: "ss07StyleSet7inLatinlookup6 subtable" y.ss07
EndChar

StartChar: y.ss07
Encoding: 65659 -1 542
GlifName: y.ss07
Width: 625
VWidth: 0
GlyphClass: 2
Flags: HWO
HStem: 492 20G<26 233.192 391.093 600>
AnchorPoint: "top1" 315 573 basechar 0
AnchorPoint: "bottom1" 550 0 basechar 0
LayerCount: 2
Fore
SplineSet
139 -180 m 257
 200 11 l 257
 26 512 l 257
 227 512 l 257
 314 211 l 261
 397 512 l 257
 600 512 l 257
 350 -180 l 257
 139 -180 l 257
EndSplineSet
EndChar

StartChar: z
Encoding: 122 122 548
GlifName: z
Width: 534
VWidth: 0
GlyphClass: 2
Flags: W
HStem: 0 141<266 490> 371 141<44 267>
AnchorPoint: "top1" 276 573 basechar 0
LayerCount: 2
Fore
SplineSet
44 512 m 261
 490 512 l 261
 490 340 l 261
 266 141 l 261
 490 141 l 261
 490 0 l 261
 44 0 l 261
 44 172 l 261
 267 371 l 261
 44 371 l 261
 44 512 l 261
EndSplineSet
EndChar

StartChar: zero
Encoding: 48 48 553
GlifName: zero
Width: 660
VWidth: 0
GlyphClass: 2
Flags: HW
LayerCount: 2
Fore
SplineSet
36 325 m 260
 36 546 146 676 331 676 c 260
 516 676 625 546 625 325 c 260
 625 115 516 -8 331 -8 c 260
 145 -8 36 115 36 325 c 260
427 325 m 260
 427 443 396 502 331 502 c 260
 266 502 233 443 233 325 c 260
 233 219 265 166 331 166 c 260
 396 166 427 219 427 325 c 260
EndSplineSet
Substitution2: "'cv04' Character Variants 04 in Latin lookup 19-1" uni24EA
Substitution2: "'cv03' Character Variants 03 in Latin lookup 18-1" uni24FF
Substitution2: "'cv02' Character Variants 02 in Latin lookup 17-1" zero.cv02
Substitution2: "'cv01' Character Variants 01 in Latin lookup 16-1" zero.cv01
Substitution2: "'sups' Superscript in Latin lookup 15-1" uni2070
Substitution2: "'subs' Subscript in Latin lookup 14-1" uni2080
Substitution2: "'numr' Numerators in Latin lookup 13-1" zero.numr
Substitution2: "'dnom' Denominators in Latin lookup 12-1" zero.dnom
Substitution2: "'zero' Slashed Zero in Latin lookup 10-1" zero.slsh
Substitution2: "'tnum' Tabular Numbers in Latin lookup 11-1" zero.tabl
EndChar

StartChar: tbar.ss08
Encoding: 65679 -1 571
GlifName: tbar.ss08
Width: 387
VWidth: 0
Flags: HW
HStem: 0 22G<96 291> 220 100<24 364> 360 152<24 364>
VStem: 24 340<220 321 360 512> 96 195<0 645>
LayerCount: 2
Fore
SplineSet
24 321 m 261xf0
 364 321 l 261
 364 220 l 261
 24 220 l 261
 24 321 l 261xf0
24 512 m 257
 364 512 l 257
 364 360 l 257
 24 360 l 257
 24 512 l 257
96 0 m 257xe8
 96 645 l 257
 291 645 l 257
 291 0 l 257
 96 0 l 257xe8
EndSplineSet
EndChar

StartChar: Gdotaccent.ss04.ss03
Encoding: 65698 -1 590
GlifName: G_dotaccent.ss04.ss03
Width: 703
VWidth: 0
Flags: HW
HStem: -8 174<287 417> 257 134<317 449> 503 173<283 416> 711 221<270 402>
VStem: 36 198<227 443> 225 221<755 888>
LayerCount: 2
Fore
SplineSet
225 822 m 256xf4
 225 883 275 932 336 932 c 256
 397 932 446 883 446 822 c 256
 446 761 397 711 336 711 c 256
 275 711 225 761 225 822 c 256xf4
EndSplineSet
Refer: 39 -1 N 1 0 0 1 0 0 3
EndChar

StartChar: uni0122.ss04.ss03
Encoding: 65699 -1 591
GlifName: uni0122.ss04.ss03
Width: 703
VWidth: 0
Flags: HW
LayerCount: 2
Fore
SplineSet
250 -150 m 260
 250 -89 299 -39 360 -39 c 260
 421 -39 471 -89 471 -150 c 262
 471 -274 l 262
 471 -363 414 -416 318 -416 c 262
 265 -416 l 261
 265 -326 l 261
 287 -326 l 262
 350 -326 379 -308 379 -268 c 262
 379 -259 l 261
 373 -260 366 -260 360 -260 c 260
 299 -260 250 -211 250 -150 c 260
EndSplineSet
Refer: 39 -1 N 1 0 0 1 0 0 3
EndChar

StartChar: uni0156.ss05.ss03
Encoding: 65700 -1 592
GlifName: uni0156.ss05.ss03
Width: 641
VWidth: 0
Flags: HW
LayerCount: 2
Fore
SplineSet
216 -150 m 256
 216 -89 266 -39 327 -39 c 256
 388 -39 437 -89 437 -150 c 258
 437 -274 l 258
 437 -363 381 -416 285 -416 c 258
 231 -416 l 257
 231 -326 l 257
 253 -326 l 258
 316 -326 345 -308 345 -268 c 258
 345 -259 l 257
 339 -260 333 -260 327 -260 c 256
 266 -260 216 -211 216 -150 c 256
EndSplineSet
Refer: 91 -1 N 1 0 0 1 0 0 3
EndChar

StartChar: ydieresis.ss07.ss03
Encoding: 65701 -1 593
GlifName: ydieresis.ss07.ss03
Width: 625
VWidth: 0
Flags: HW
HStem: 492 20G<26 234 391 600> 565 221<99 231 395 528>
VStem: 54 221<610 742> 351 221<610 742>
LayerCount: 2
Fore
SplineSet
54 676 m 260
 54 737 104 786 165 786 c 260
 226 786 275 737 275 676 c 260
 275 615 226 565 165 565 c 260
 104 565 54 615 54 676 c 260
351 676 m 260
 351 737 401 786 462 786 c 260
 523 786 572 737 572 676 c 260
 572 615 523 565 462 565 c 260
 401 565 351 615 351 676 c 260
EndSplineSet
Refer: 542 -1 N 1 0 0 1 0 0 3
EndChar

StartChar: uni1EF5.ss07.ss03
Encoding: 65702 -1 594
GlifName: uni1E_F_5.ss07.ss03
Width: 625
VWidth: 0
Flags: HW
HStem: -268 221<472 605> 492 20G<26 234 391 600>
VStem: 428 221<-224 -91>
LayerCount: 2
Fore
SplineSet
428 -158 m 260
 428 -97 478 -47 539 -47 c 260
 600 -47 649 -97 649 -158 c 260
 649 -219 600 -268 539 -268 c 260
 478 -268 428 -219 428 -158 c 260
EndSplineSet
Refer: 542 -1 N 1 0 0 1 0 0 3
EndChar

StartChar: udieresis.ss10.ss03
Encoding: 65703 -1 595
GlifName: udieresis.ss10.ss03
Width: 610
VWidth: 0
Flags: W
HStem: -8 184<257.001 352.04> 492 20G<44 239 372 566> 565 221<87.7174 219.922 384.717 516.922>
VStem: 43 221<609.717 741.922> 44 195<193.848 512> 340 221<609.717 741.922> 372 194<193.848 512>
LayerCount: 2
Fore
SplineSet
43 676 m 260xf0
 43 737 93 786 154 786 c 260
 215 786 264 737 264 676 c 260
 264 615 215 565 154 565 c 260
 93 565 43 615 43 676 c 260xf0
340 676 m 260xe4
 340 737 390 786 451 786 c 260
 512 786 561 737 561 676 c 260
 561 615 512 565 451 565 c 260
 390 565 340 615 340 676 c 260xe4
EndSplineSet
Refer: 345 -1 N 1 0 0 1 0 0 3
EndChar

StartChar: uni1EE5.ss10.ss03
Encoding: 65704 -1 596
GlifName: uni1E_E_5.ss10.ss03
Width: 610
VWidth: 0
Flags: HW
HStem: -268 221<249 382> -8 184<257 352> 492 20G<44 239 372 566>
VStem: 44 195<194 512> 205 221<-224 -91> 372 195<194 512>
LayerCount: 2
Fore
SplineSet
205 -158 m 260xe8
 205 -97 254 -47 315 -47 c 260
 376 -47 426 -97 426 -158 c 260
 426 -219 376 -268 315 -268 c 260
 254 -268 205 -219 205 -158 c 260xe8
EndSplineSet
Refer: 345 -1 N 1 0 0 1 0 0 3
EndChar

StartChar: uni1EF1.ss10.ss03
Encoding: 65705 -1 597
GlifName: uni1E_F_1.ss10.ss03
Width: 655
Flags: HW
LayerCount: 2
Fore
SplineSet
205 -158 m 256
 205 -97 254 -47 315 -47 c 256
 376 -47 426 -97 426 -158 c 256
 426 -219 376 -268 315 -268 c 256
 254 -268 205 -219 205 -158 c 256
EndSplineSet
Refer: 582 -1 N 1 0 0 1 0 0 3
EndChar

StartChar: Gdotaccent.ss03.ss04
Encoding: 65706 -1 598
GlifName: G_dotaccent.ss03.ss04
Width: 703
VWidth: 0
Flags: HW
HStem: -8 174<287 417> 257 134<317 449> 503 173<283 416> 711 221<270 402>
VStem: 36 198<227 443> 225 221<755 888>
LayerCount: 2
Fore
SplineSet
225 822 m 256xf4
 225 883 275 932 336 932 c 256
 397 932 446 883 446 822 c 256
 446 761 397 711 336 711 c 256
 275 711 225 761 225 822 c 256xf4
EndSplineSet
Refer: 39 -1 N 1 0 0 1 0 0 3
Decomposition: "G+AwcA"
EndChar

StartChar: uni0122.ss03.ss04
Encoding: 65707 -1 599
GlifName: uni0122.ss03.ss04
Width: 703
VWidth: 0
Flags: HW
HStem: -416 90<265 364> -8 174<287 417> 257 134<317 449> 503 173<283 416>
VStem: 36 198<227 443> 250 221<-216 -83> 379 92<-310 -259>
LayerCount: 2
Fore
SplineSet
250 -150 m 260xfc
 250 -89 299 -39 360 -39 c 260
 421 -39 471 -89 471 -150 c 262xfc
 471 -274 l 262
 471 -363 414 -416 318 -416 c 262
 265 -416 l 261
 265 -326 l 261
 287 -326 l 262
 350 -326 379 -308 379 -268 c 262
 379 -259 l 261xfa
 373 -260 366 -260 360 -260 c 260
 299 -260 250 -211 250 -150 c 260xfc
EndSplineSet
Refer: 39 -1 N 1 0 0 1 0 0 3
EndChar

StartChar: uni0156.ss03.ss05
Encoding: 65708 -1 600
GlifName: uni0156.ss03.ss05
Width: 641
VWidth: 0
Flags: HW
LayerCount: 2
Fore
SplineSet
216 -150 m 256
 216 -89 266 -39 327 -39 c 256
 388 -39 437 -89 437 -150 c 258
 437 -274 l 258
 437 -363 381 -416 285 -416 c 258
 231 -416 l 257
 231 -326 l 257
 253 -326 l 258
 316 -326 345 -308 345 -268 c 258
 345 -259 l 257
 339 -260 333 -260 327 -260 c 256
 266 -260 216 -211 216 -150 c 256
EndSplineSet
Refer: 91 -1 N 1 0 0 1 0 0 3
EndChar

StartChar: uni1EF5.ss03.ss07
Encoding: 65709 -1 601
GlifName: uni1E_F_5.ss03.ss07
Width: 625
VWidth: 0
Flags: HW
HStem: -268 221<472 605> 492 20G<26 234 391 600>
VStem: 428 221<-224 -91>
LayerCount: 2
Fore
SplineSet
428 -158 m 260
 428 -97 478 -47 539 -47 c 260
 600 -47 649 -97 649 -158 c 260
 649 -219 600 -268 539 -268 c 260
 478 -268 428 -219 428 -158 c 260
EndSplineSet
Refer: 542 -1 N 1 0 0 1 0 0 3
EndChar

StartChar: ydieresis.ss03.ss07
Encoding: 65710 -1 602
GlifName: ydieresis.ss03.ss07
Width: 625
VWidth: 0
Flags: HW
HStem: 492 20G<26 233.192 391.093 600> 565 221<98.7174 230.922 395.717 527.922>
VStem: 54 221<609.717 741.922> 351 221<609.717 741.922>
LayerCount: 2
Fore
SplineSet
54 676 m 260
 54 737 104 786 165 786 c 260
 226 786 275 737 275 676 c 260
 275 615 226 565 165 565 c 260
 104 565 54 615 54 676 c 260
351 676 m 260
 351 737 401 786 462 786 c 260
 523 786 572 737 572 676 c 260
 572 615 523 565 462 565 c 260
 401 565 351 615 351 676 c 260
EndSplineSet
Refer: 542 -1 N 1 0 0 1 0 0 3
EndChar

StartChar: udieresis.ss03.ss10
Encoding: 65711 -1 603
GlifName: udieresis.ss03.ss10
Width: 610
VWidth: 0
Flags: HW
HStem: -8 184<257 352> 492 20G<44 239 372 566> 565 221<87 220 384 517>
VStem: 43 221<610 742> 44 195<194 512> 340 221<610 742> 372 195<194 512>
LayerCount: 2
Fore
SplineSet
43 676 m 260xf0
 43 737 93 786 154 786 c 260
 215 786 264 737 264 676 c 260
 264 615 215 565 154 565 c 260
 93 565 43 615 43 676 c 260xf0
340 676 m 260xe4
 340 737 390 786 451 786 c 260
 512 786 561 737 561 676 c 260
 561 615 512 565 451 565 c 260
 390 565 340 615 340 676 c 260xe4
EndSplineSet
Refer: 345 -1 N 1 0 0 1 0 0 3
EndChar

StartChar: uni1EE5.ss03.ss10
Encoding: 65712 -1 604
GlifName: uni1E_E_5.ss03.ss10
Width: 610
VWidth: 0
Flags: HW
HStem: -268 221<249 382> -8 184<257 352> 492 20G<44 239 372 566>
VStem: 44 195<194 512> 205 221<-224 -91> 372 195<194 512>
LayerCount: 2
Fore
SplineSet
205 -158 m 260xe8
 205 -97 254 -47 315 -47 c 260
 376 -47 426 -97 426 -158 c 260
 426 -219 376 -268 315 -268 c 260
 254 -268 205 -219 205 -158 c 260xe8
EndSplineSet
Refer: 345 -1 N 1 0 0 1 0 0 3
EndChar

StartChar: uni1EF1.ss03.ss10
Encoding: 65713 -1 605
GlifName: uni1E_F_1.ss03.ss10
Width: 655
Flags: HW
LayerCount: 2
Fore
SplineSet
205 -158 m 256
 205 -97 254 -47 315 -47 c 256
 376 -47 426 -97 426 -158 c 256
 426 -219 376 -268 315 -268 c 256
 254 -268 205 -219 205 -158 c 256
EndSplineSet
Refer: 582 -1 N 1 0 0 1 0 0 3
EndChar

StartChar: zero.slsh
Encoding: 65714 -1 606
GlifName: zero.slsh
Width: 660
VWidth: 0
Flags: HW
HStem: -8 174<253 389> 502 174<278 383> 513 20G<436 477>
VStem: 36 198<265 450> 427 198<208 387>
LayerCount: 2
Fore
SplineSet
455 534 m 257xb8
 522 472 l 257
 199 108 l 257
 131 169 l 257
 455 534 l 257xb8
36 325 m 256
 36 546 146 676 331 676 c 256xd8
 516 676 625 546 625 325 c 256
 625 115 516 -8 331 -8 c 256
 145 -8 36 115 36 325 c 256
427 325 m 256
 427 443 396 502 331 502 c 256
 266 502 233 443 233 325 c 256
 233 219 265 166 331 166 c 256
 396 166 427 219 427 325 c 256
EndSplineSet
Substitution2: "'tnum' Tabular Numbers in Latin lookup 11-1" zero.slsh.tabl
EndChar

StartChar: zero.tabl
Encoding: 65715 -1 607
GlifName: zero.tabl
Width: 640
VWidth: 0
Flags: HW
LayerCount: 2
Fore
SplineSet
36 325 m 256
 36 546 142 676 321 676 c 260
 500 676 604 546 604 325 c 260
 604 115 500 -8 321 -8 c 260
 141 -8 36 115 36 325 c 256
407 325 m 260
 407 443 379 502 321 502 c 260
 263 502 233 443 233 325 c 256
 233 219 262 166 321 166 c 260
 379 166 407 219 407 325 c 260
EndSplineSet
Substitution2: "'zero' Slashed Zero in Latin lookup 10-1" zero.tabl.slsh
EndChar

StartChar: one.tabl
Encoding: 65716 -1 608
GlifName: one.tabl
Width: 640
VWidth: 0
Flags: HW
LayerCount: 2
Fore
SplineSet
231 666 m 1
 425 666 l 1
 425 172 l 1
 557 172 l 1
 557 0 l 1
 83 0 l 1
 83 172 l 1
 231 172 l 1
 231 389 l 1
 83 389 l 1
 83 556 l 1
 149 556 l 2
 202 556 231 572 231 625 c 2
 231 666 l 1
EndSplineSet
EndChar

StartChar: two.tabl
Encoding: 65717 -1 609
GlifName: two.tabl
Width: 640
VWidth: 0
Flags: HW
LayerCount: 2
Fore
SplineSet
297 172 m 257
 581 172 l 257
 581 0 l 257
 55 0 l 257
 55 35 l 257
 55 248 166 322 260 366 c 256
 328 398 387 414 387 456 c 256
 387 493 363 513 324 513 c 256
 282 513 255 483 253 435 c 257
 55 435 l 257
 65 576 169 674 311 674 c 256
 476 674 585 587 585 456 c 256
 585 346 503 295 427 259 c 256
 360 227 297 209 297 172 c 257
EndSplineSet
EndChar

StartChar: three.tabl
Encoding: 65718 -1 610
GlifName: three.tabl
Width: 640
VWidth: 0
Flags: HW
LayerCount: 2
Fore
SplineSet
398 406 m 257
 398 266 l 257
 266 266 l 257
 266 406 l 257
 398 406 l 257
337 297 m 257
 337 406 l 257
 366 406 382 424 382 457 c 256
 382 497 359 521 321 521 c 256
 283 521 259 497 258 456 c 257
 60 456 l 257
 70 587 177 674 327 674 c 256
 474 674 580 590 580 474 c 256
 580 364 487 297 337 297 c 257
337 375 m 257
 490 375 590 300 590 185 c 256
 590 70 488 -8 338 -8 c 256
 177 -8 61 83 50 217 c 257
 248 217 l 257
 253 172 282 146 326 146 c 256
 368 146 392 170 392 211 c 256
 392 247 372 266 337 266 c 257
 337 375 l 257
EndSplineSet
EndChar

StartChar: four.tabl
Encoding: 65719 -1 611
GlifName: four.tabl
Width: 640
VWidth: 0
Flags: HW
LayerCount: 2
Fore
SplineSet
528 135 m 257
 528 0 l 257
 344 0 l 257
 344 135 l 257
 28 135 l 257
 28 337 l 257
 283 666 l 257
 528 666 l 257
 528 296 l 257
 612 296 l 257
 612 135 l 257
 528 135 l 257
344 296 m 257
 344 457 l 257
 224 296 l 257
 344 296 l 257
EndSplineSet
EndChar

StartChar: five.tabl
Encoding: 65720 -1 612
GlifName: five.tabl
Width: 640
VWidth: 0
Flags: HW
LayerCount: 2
Fore
SplineSet
392 230 m 256
 392 182 367 156 321 156 c 256
 278 156 250 179 248 217 c 257
 50 217 l 257
 60 83 172 -8 328 -8 c 256
 488 -8 590 86 590 232 c 256
 590 363 510 454 395 454 c 256
 334 454 283 428 250 381 c 257
 266 505 l 257
 566 505 l 257
 566 667 l 257
 91 667 l 257
 50 274 l 257
 244 274 l 257
 258 300 283 313 315 313 c 256
 363 313 392 282 392 230 c 256
EndSplineSet
EndChar

StartChar: six.tabl
Encoding: 65721 -1 613
GlifName: six.tabl
Width: 640
VWidth: 0
Flags: HW
LayerCount: 2
Fore
SplineSet
40 341 m 256
 40 550 150 676 333 676 c 256
 472 676 568 603 592 480 c 257
 394 480 l 257
 388 514 368 532 334 532 c 256
 277 532 238 469 238 374 c 256
 238 370 238 365 238 361 c 257
 264 407 323 436 392 436 c 256
 512 436 600 345 600 221 c 256
 600 86 494 -8 340 -8 c 256
 156 -8 40 127 40 341 c 256
260 216 m 256
 260 170 291 136 334 136 c 256
 375 136 402 167 402 214 c 256
 402 261 375 292 332 292 c 256
 289 292 260 261 260 216 c 256
EndSplineSet
EndChar

StartChar: seven.tabl
Encoding: 65722 -1 614
GlifName: seven.tabl
Width: 640
VWidth: 0
Flags: HW
LayerCount: 2
Fore
SplineSet
390 0 m 257
 390 218 438 364 582 473 c 257
 582 666 l 257
 58 666 l 257
 58 483 l 257
 367 483 l 257
 251 381 156 255 156 0 c 257
 390 0 l 257
EndSplineSet
EndChar

StartChar: eight.tabl
Encoding: 65723 -1 615
GlifName: eight.tabl
Width: 640
VWidth: 0
Flags: HW
LayerCount: 2
Fore
SplineSet
476 337 m 1
 553 308 590 253 590 181 c 0
 590 68 480 -8 319 -8 c 0
 159 -8 50 67 50 180 c 0
 50 253 87 307 165 337 c 1
 100 367 71 419 71 487 c 0
 71 598 172 674 319 674 c 0
 467 674 569 598 569 486 c 0
 569 419 539 367 476 337 c 1
323 407 m 2
 361 407 382 429 382 466 c 0
 382 504 359 525 319 525 c 0
 280 525 258 504 258 466 c 0
 258 428 279 407 317 407 c 2
 323 407 l 2
323 263 m 2
 317 263 l 2
 272 263 248 242 248 203 c 0
 248 163 274 140 319 140 c 0
 365 140 392 163 392 203 c 0
 392 241 367 263 323 263 c 2
EndSplineSet
EndChar

StartChar: nine.tabl
Encoding: 65724 -1 616
GlifName: nine.tabl
Width: 640
VWidth: 0
Flags: HW
LayerCount: 2
Fore
SplineSet
600 327 m 256
 600 118 490 -8 307 -8 c 256
 168 -8 72 64 48 187 c 257
 246 187 l 257
 252 153 272 135 306 135 c 256
 363 135 402 199 402 294 c 256
 402 298 402 302 402 306 c 257
 376 260 317 231 248 231 c 256
 128 231 40 322 40 446 c 256
 40 581 146 676 300 676 c 256
 484 676 600 541 600 327 c 256
380 452 m 256
 380 498 349 531 306 531 c 256
 265 531 238 501 238 454 c 256
 238 407 265 376 308 376 c 256
 351 376 380 407 380 452 c 256
EndSplineSet
EndChar

StartChar: zero.slsh.tabl
Encoding: 65725 -1 617
GlifName: zero.slsh.tabl
Width: 640
VWidth: 0
Flags: HW
LayerCount: 2
Fore
SplineSet
444 534 m 257
 512 472 l 257
 188 108 l 257
 121 169 l 257
 444 534 l 257
36 325 m 260
 36 546 142 676 321 676 c 256
 500 676 604 546 604 325 c 256
 604 115 500 -8 321 -8 c 256
 141 -8 36 115 36 325 c 260
407 325 m 256
 407 443 379 502 321 502 c 256
 263 502 233 443 233 325 c 260
 233 219 262 166 321 166 c 256
 379 166 407 219 407 325 c 256
EndSplineSet
EndChar

StartChar: plus.tabl
Encoding: 65726 -1 618
GlifName: plus.tabl
Width: 640
VWidth: 0
Flags: HW
LayerCount: 2
Fore
SplineSet
405 410 m 257
 595 410 l 257
 595 238 l 257
 405 238 l 257
 405 48 l 257
 233 48 l 257
 233 238 l 257
 45 238 l 257
 45 410 l 257
 233 410 l 257
 233 599 l 257
 405 599 l 257
 405 410 l 257
EndSplineSet
EndChar

StartChar: hyphen.tabl
Encoding: 65727 -1 619
GlifName: hyphen.tabl
Width: 640
VWidth: 0
Flags: HW
LayerCount: 2
Fore
SplineSet
83 369 m 257
 557 369 l 257
 557 197 l 257
 83 197 l 257
 83 369 l 257
EndSplineSet
EndChar

StartChar: period.tabl
Encoding: 65728 -1 620
GlifName: period.tabl
Width: 640
VWidth: 0
Flags: HW
LayerCount: 2
Fore
SplineSet
216 202 m 257
 424 202 l 257
 424 0 l 257
 216 0 l 257
 216 202 l 257
EndSplineSet
EndChar

StartChar: slash.tabl
Encoding: 65729 -1 621
GlifName: slash.tabl
Width: 640
VWidth: 0
Flags: HW
LayerCount: 2
Fore
SplineSet
327 666 m 257
 542 666 l 257
 313 0 l 257
 98 0 l 257
 327 666 l 257
EndSplineSet
EndChar

StartChar: colon.tabl
Encoding: 65730 -1 622
GlifName: colon.tabl
Width: 640
VWidth: 0
Flags: HW
LayerCount: 2
Fore
SplineSet
216 511 m 257
 424 511 l 257
 424 309 l 257
 216 309 l 257
 216 511 l 257
216 202 m 257
 424 202 l 257
 424 0 l 257
 216 0 l 257
 216 202 l 257
EndSplineSet
EndChar

StartChar: multiply.tabl
Encoding: 65731 -1 623
GlifName: multiply.tabl
Width: 640
VWidth: 0
Flags: HW
LayerCount: 2
Fore
SplineSet
320 435 m 257
 455 580 l 257
 576 458 l 257
 433 324 l 257
 576 189 l 257
 455 68 l 257
 320 212 l 257
 187 68 l 257
 64 189 l 257
 209 324 l 257
 64 458 l 257
 187 580 l 257
 320 435 l 257
EndSplineSet
EndChar

StartChar: divide.tabl
Encoding: 65732 -1 624
GlifName: divide.tabl
Width: 640
VWidth: 0
Flags: HW
LayerCount: 2
Fore
SplineSet
237 568 m 257
 405 568 l 257
 405 397 l 257
 237 397 l 257
 237 568 l 257
237 167 m 257
 405 167 l 257
 405 -4 l 257
 237 -4 l 257
 237 167 l 257
83 358 m 257
 557 358 l 257
 557 207 l 257
 83 207 l 257
 83 358 l 257
EndSplineSet
EndChar

StartChar: colon.ss03.tabl
Encoding: 65733 -1 625
GlifName: colon.ss03.tabl
Width: 640
VWidth: 0
Flags: HW
LayerCount: 2
Fore
SplineSet
209 414 m 256
 209 475 259 524 320 524 c 256
 381 524 431 475 431 414 c 256
 431 353 381 303 320 303 c 256
 259 303 209 353 209 414 c 256
209 99 m 256
 209 160 259 210 320 210 c 256
 381 210 431 160 431 99 c 256
 431 38 381 -11 320 -11 c 256
 259 -11 209 38 209 99 c 256
EndSplineSet
EndChar

StartChar: divide.ss03.tabl
Encoding: 65734 -1 626
GlifName: divide.ss03.tabl
Width: 640
VWidth: 0
Flags: HW
LayerCount: 2
Fore
SplineSet
210 489 m 256
 210 547 260 595 321 595 c 256
 382 595 432 547 432 489 c 256
 432 431 382 384 321 384 c 256
 260 384 210 431 210 489 c 256
210 75 m 256
 210 133 260 180 321 180 c 256
 382 180 432 133 432 75 c 256
 432 17 382 -31 321 -31 c 256
 260 -31 210 17 210 75 c 256
83 358 m 257
 557 358 l 257
 557 207 l 257
 83 207 l 257
 83 358 l 257
EndSplineSet
EndChar

StartChar: period.ss03.tabl
Encoding: 65735 -1 627
GlifName: period.ss03.tabl
Width: 640
VWidth: 0
Flags: HW
HStem: -11 221<254 386>
VStem: 209 221<33 166>
LayerCount: 2
Fore
SplineSet
209 99 m 256
 209 160 259 210 320 210 c 256
 381 210 431 160 431 99 c 256
 431 38 381 -11 320 -11 c 256
 259 -11 209 38 209 99 c 256
EndSplineSet
EndChar

StartChar: cent
Encoding: 162 162 628
GlifName: cent
Width: 607
VWidth: 0
Flags: HW
LayerCount: 2
Fore
SplineSet
278 665 m 257
 339 665 l 257
 339 0 l 257
 278 0 l 257
 278 665 l 257
34 335 m 256
 34 500 142 609 307 609 c 256
 455 609 563 524 573 373 c 257
 386 373 l 257
 385 435 354 456 307 456 c 256
 252 456 221 412 221 335 c 256
 221 257 252 212 307 212 c 256
 353 212 384 229 386 286 c 257
 573 286 l 257
 559 139 454 58 307 58 c 256
 143 58 34 169 34 335 c 256
EndSplineSet
EndChar

StartChar: sterling
Encoding: 163 163 629
GlifName: sterling
Width: 629
Flags: HW
LayerCount: 2
Fore
SplineSet
41 397 m 1
 478 397 l 1
 478 266 l 1
 41 266 l 1
 41 397 l 1
411 473 m 1
 408 503 389 520 360 520 c 0
 331 520 315 496 315 455 c 2
 315 257 l 2
 315 225 304 189 270 172 c 1
 593 172 l 5
 593 0 l 5
 36 0 l 1
 36 178 l 1
 101 196 121 233 121 265 c 2
 121 455 l 2
 121 586 215 674 355 674 c 0
 493 674 593 593 605 473 c 1
 411 473 l 1
EndSplineSet
EndChar

StartChar: currency
Encoding: 164 164 630
GlifName: currency
Width: 602
Flags: HW
LayerCount: 2
Fore
SplineSet
240 288 m 0
 240 246 263 220 302 220 c 0
 340 220 364 246 364 288 c 0
 364 329 339 355 301 355 c 0
 263 355 240 329 240 288 c 0
362 464 m 1
 435 542 l 1
 557 420 l 1
 483 351 l 1
 490 333 494 312 494 288 c 0
 494 265 489 243 482 221 c 1
 557 152 l 1
 435 30 l 1
 359 111 l 1
 342 106 324 103 302 103 c 0
 279 103 260 106 243 111 c 1
 167 30 l 1
 45 152 l 1
 121 221 l 1
 114 243 110 265 110 288 c 0
 110 308 113 328 120 350 c 1
 45 420 l 1
 167 542 l 1
 240 464 l 1
 260 469 281 472 301 472 c 0
 321 472 342 469 362 464 c 1
EndSplineSet
EndChar

StartChar: degree
Encoding: 176 176 631
GlifName: degree
Width: 435
Flags: HW
LayerCount: 2
Fore
SplineSet
166 503 m 0
 166 467 186 445 218 445 c 0
 250 445 269 468 269 503 c 0
 269 538 249 560 217 560 c 0
 186 560 166 538 166 503 c 0
410 503 m 0
 410 395 330 318 218 318 c 0
 105 318 26 394 26 503 c 0
 26 611 105 687 217 687 c 0
 330 687 410 611 410 503 c 0
EndSplineSet
EndChar

StartChar: yen
Encoding: 165 165 632
GlifName: yen
Width: 672
VWidth: 0
Flags: HW
LayerCount: 2
Fore
SplineSet
100 171 m 257
 573 171 l 257
 573 50 l 257
 100 50 l 257
 100 171 l 257
100 336 m 261
 573 336 l 261
 573 215 l 261
 100 215 l 261
 100 336 l 261
238 243 m 257
 15 666 l 257
 227 666 l 257
 338 421 l 257
 444 666 l 257
 657 666 l 257
 432 242 l 257
 432 0 l 257
 238 0 l 257
 238 243 l 257
EndSplineSet
EndChar

StartChar: brokenbar
Encoding: 166 166 633
GlifName: brokenbar
Width: 282
Flags: HW
LayerCount: 2
Fore
SplineSet
46 820 m 1
 237 820 l 5
 237 361 l 5
 46 361 l 1
 46 820 l 1
237 254 m 5
 237 -205 l 5
 46 -205 l 1
 46 254 l 1
 237 254 l 5
EndSplineSet
EndChar

StartChar: uni2070
Encoding: 8304 8304 634
GlifName: uni2070
Width: 472
VWidth: 372
Flags: HW
LayerCount: 2
Fore
SplineSet
34 567 m 260
 34 695 115 780 237 780 c 260
 358 780 438 695 438 567 c 260
 438 438 358 352 237 352 c 260
 115 352 34 438 34 567 c 260
292 567 m 260
 292 624 272 657 237 657 c 260
 201 657 180 624 180 567 c 260
 180 509 201 475 237 475 c 260
 272 475 292 509 292 567 c 260
EndSplineSet
EndChar

StartChar: uni2074
Encoding: 8308 8308 635
GlifName: uni2074
Width: 447
VWidth: 372
Flags: HW
LayerCount: 2
Fore
SplineSet
379 446 m 257
 379 373 l 257
 236 373 l 257
 236 446 l 257
 26 446 l 257
 26 566 l 257
 205 768 l 261
 379 768 l 257
 379 556 l 257
 432 556 l 257
 432 446 l 257
 379 446 l 257
236 556 m 257
 236 639 l 257
 171 556 l 257
 236 556 l 257
EndSplineSet
EndChar

StartChar: uni2075
Encoding: 8309 8309 636
GlifName: uni2075
Width: 457
VWidth: 372
Flags: HW
LayerCount: 2
Fore
SplineSet
265 500 m 256
 265 476 252 463 229 463 c 256
 207 463 194 475 193 493 c 257
 36 493 l 257
 43 411 124 354 237 354 c 256
 350 354 422 414 422 506 c 256
 422 579 369 630 293 630 c 256
 253 630 219 619 198 600 c 257
 206 652 l 257
 398 652 l 257
 398 768 l 257
 77 768 l 257
 38 517 l 257
 190 517 l 257
 197 531 209 539 224 539 c 256
 250 539 265 524 265 500 c 256
EndSplineSet
EndChar

StartChar: uni2076
Encoding: 8310 8310 637
GlifName: uni2076
Width: 467
VWidth: 372
Flags: HW
LayerCount: 2
Fore
SplineSet
36 570 m 256
 36 701 111 780 236 780 c 256
 337 780 407 733 424 653 c 257
 267 653 l 257
 262 667 255 675 238 675 c 256
 211 675 193 642 193 593 c 256
 193 588 193 583 193 578 c 257
 212 613 256 635 306 635 c 256
 379 635 432 581 432 507 c 256
 432 423 359 365 254 365 c 256
 120 365 36 444 36 570 c 256
205 502 m 256
 205 483 221 468 243 468 c 256
 263 468 275 481 275 500 c 256
 275 519 262 531 241 531 c 256
 219 531 205 520 205 502 c 256
EndSplineSet
EndChar

StartChar: uni2077
Encoding: 8311 8311 638
GlifName: uni2077
Width: 464
VWidth: 372
Flags: HW
LayerCount: 2
Fore
SplineSet
295 373 m 257
 295 485 329 560 429 616 c 257
 429 768 l 257
 36 768 l 257
 36 627 l 257
 244 627 l 261
 167 573 103 507 103 373 c 257
 295 373 l 257
EndSplineSet
EndChar

StartChar: uni2078
Encoding: 8312 8312 639
GlifName: uni2078
Width: 457
VWidth: 372
Flags: HW
LayerCount: 2
Fore
SplineSet
228 780 m 257
 228 673 l 257
 205 673 193 662 193 644 c 256
 193 626 205 615 227 615 c 257
 227 559 l 257
 110 559 46 596 46 663 c 256
 46 733 119 780 228 780 c 257
228 472 m 257
 228 365 l 257
 113 365 36 412 36 484 c 256
 36 552 104 590 227 590 c 257
 227 534 l 257
 204 534 193 523 193 504 c 256
 193 484 205 472 228 472 c 257
242 615 m 257
 242 534 l 257
 216 534 l 257
 216 615 l 257
 242 615 l 257
228 780 m 257
 338 780 412 733 412 662 c 256
 412 595 347 559 230 559 c 257
 230 615 l 257
 252 615 265 626 265 644 c 256
 265 662 252 673 228 673 c 257
 228 780 l 257
228 472 m 257
 251 472 265 483 265 503 c 256
 265 522 252 534 230 534 c 257
 230 590 l 257
 353 590 422 553 422 485 c 256
 422 413 344 365 228 365 c 257
 228 472 l 257
EndSplineSet
EndChar

StartChar: uni2079
Encoding: 8313 8313 640
GlifName: uni2079
Width: 467
VWidth: 372
Flags: HW
LayerCount: 2
Fore
SplineSet
432 574 m 256
 432 443 355 365 227 365 c 256
 123 365 52 412 34 492 c 257
 190 492 l 257
 193 476 204 470 221 470 c 256
 253 470 275 503 275 552 c 256
 275 557 275 562 275 567 c 257
 256 532 212 510 162 510 c 256
 89 510 36 564 36 638 c 256
 36 722 109 780 214 780 c 256
 348 780 432 700 432 574 c 256
263 643 m 256
 263 662 247 677 225 677 c 256
 205 677 193 664 193 645 c 256
 193 626 206 613 227 613 c 256
 249 613 263 625 263 643 c 256
EndSplineSet
EndChar

StartChar: uni207A
Encoding: 8314 8314 641
GlifName: uni207A_
Width: 397
VWidth: 372
Flags: HW
LayerCount: 2
Fore
SplineSet
264 636 m 257
 372 636 l 257
 372 505 l 257
 264 505 l 257
 264 397 l 257
 133 397 l 257
 133 505 l 257
 26 505 l 257
 26 636 l 257
 133 636 l 257
 133 743 l 257
 264 743 l 257
 264 636 l 257
EndSplineSet
EndChar

StartChar: uni207B
Encoding: 8315 8315 642
GlifName: uni207B_
Width: 397
VWidth: 372
Flags: HW
LayerCount: 2
Fore
SplineSet
26 636 m 1
 372 636 l 1
 372 505 l 1
 26 505 l 1
 26 636 l 1
EndSplineSet
EndChar

StartChar: uni207C
Encoding: 8316 8316 643
GlifName: uni207C_
Width: 397
VWidth: 372
Flags: HW
LayerCount: 2
Fore
SplineSet
26 541 m 5
 372 541 l 5
 372 410 l 5
 26 410 l 5
 26 541 l 5
26 735 m 5
 372 735 l 5
 372 604 l 5
 26 604 l 5
 26 735 l 5
EndSplineSet
EndChar

StartChar: uni207D
Encoding: 8317 8317 644
GlifName: uni207D_
Width: 296
VWidth: 372
Flags: HW
LayerCount: 2
Fore
SplineSet
282 256 m 261
 127 256 l 261
 69 314 26 437 26 564 c 256
 26 691 69 814 127 872 c 257
 282 872 l 257
 216 808 182 699 182 564 c 256
 182 429 216 320 282 256 c 261
EndSplineSet
EndChar

StartChar: uni207E
Encoding: 8318 8318 645
GlifName: uni207E_
Width: 296
VWidth: 372
Flags: HW
LayerCount: 2
Fore
SplineSet
15 872 m 257
 170 872 l 257
 228 814 271 691 271 564 c 256
 271 437 228 314 170 256 c 257
 15 256 l 257
 81 320 115 429 115 564 c 256
 115 699 81 808 15 872 c 257
EndSplineSet
EndChar

StartChar: uni207F
Encoding: 8319 8319 646
GlifName: uni207F_
Width: 518
VWidth: 372
Flags: HW
LayerCount: 2
Fore
SplineSet
323 584 m 258
 323 634 298 655 259 655 c 256
 225 655 200 628 200 590 c 257
 160 596 l 257
 160 716 246 788 325 788 c 260
 413 788 476 730 476 625 c 258
 476 372 l 257
 323 372 l 257
 323 584 l 258
46 768 m 257
 200 768 l 257
 200 372 l 257
 46 372 l 257
 46 768 l 257
EndSplineSet
EndChar

StartChar: uni2080
Encoding: 8320 8320 647
GlifName: uni2080
Width: 472
VWidth: -102
Flags: HW
LayerCount: 2
Fore
SplineSet
34 92 m 260
 34 220 115 305 237 305 c 260
 358 305 438 220 438 92 c 260
 438 -37 358 -123 237 -123 c 260
 115 -123 34 -37 34 92 c 260
292 92 m 260
 292 149 272 182 237 182 c 260
 201 182 180 149 180 92 c 260
 180 34 201 0 237 0 c 260
 272 0 292 34 292 92 c 260
EndSplineSet
EndChar

StartChar: uni2081
Encoding: 8321 8321 648
GlifName: uni2081
Width: 332
VWidth: -102
Flags: HW
LayerCount: 2
Fore
SplineSet
133 293 m 257
 287 293 l 257
 287 -102 l 257
 133 -102 l 257
 133 93 l 257
 26 93 l 257
 26 217 l 257
 73 217 l 258
 113 217 133 229 133 272 c 258
 133 293 l 257
EndSplineSet
EndChar

StartChar: uni2082
Encoding: 8322 8322 649
GlifName: uni2082
Width: 457
VWidth: -102
Flags: HW
LayerCount: 2
Fore
SplineSet
206 18 m 257
 418 18 l 257
 418 -102 l 257
 36 -102 l 257
 36 -68 l 258
 36 76 119 112 186 130 c 0
 229 142 265 146 265 169 c 256
 265 186 252 196 232 196 c 256
 208 196 194 182 193 162 c 257
 36 162 l 257
 44 247 122 305 232 305 c 256
 347 305 422 251 422 169 c 256
 422 98 359 72 301 55 c 0
 261 43 222 34 206 18 c 257
EndSplineSet
EndChar

StartChar: uni2083
Encoding: 8323 8323 650
GlifName: uni2083
Width: 467
VWidth: -102
Flags: HW
LayerCount: 2
Fore
SplineSet
282 135 m 257
 282 56 l 257
 197 56 l 257
 197 135 l 257
 282 135 l 257
243 77 m 257
 243 135 l 257
 257 135 265 144 265 160 c 256
 265 181 251 194 229 194 c 256
 207 194 194 181 193 159 c 257
 36 159 l 257
 44 247 122 305 232 305 c 256
 342 305 422 255 422 186 c 256
 422 112 364 77 243 77 c 257
243 115 m 261
 368 115 432 76 432 0 c 256
 432 -66 358 -111 249 -111 c 256
 130 -111 44 -49 36 42 c 257
 193 42 l 257
 196 17 213 3 240 3 c 256
 263 3 275 14 275 31 c 256
 275 47 264 56 243 56 c 257
 243 115 l 261
EndSplineSet
EndChar

StartChar: uni2084
Encoding: 8324 8324 651
GlifName: uni2084
Width: 447
VWidth: -102
Flags: HW
LayerCount: 2
Fore
SplineSet
379 -29 m 257
 379 -102 l 257
 236 -102 l 257
 236 -29 l 257
 26 -29 l 257
 26 91 l 257
 205 293 l 261
 379 293 l 257
 379 81 l 257
 432 81 l 257
 432 -29 l 257
 379 -29 l 257
236 81 m 257
 236 164 l 257
 171 81 l 257
 236 81 l 257
EndSplineSet
EndChar

StartChar: uni2085
Encoding: 8325 8325 652
GlifName: uni2085
Width: 457
VWidth: -102
Flags: HW
LayerCount: 2
Fore
SplineSet
265 25 m 256
 265 1 252 -12 229 -12 c 256
 207 -12 194 -1 193 17 c 257
 36 17 l 257
 43 -65 124 -121 237 -121 c 256
 350 -121 422 -61 422 31 c 256
 422 104 369 155 293 155 c 256
 253 155 219 144 198 125 c 257
 206 177 l 257
 398 177 l 257
 398 293 l 257
 77 293 l 257
 38 42 l 257
 190 42 l 257
 197 56 209 63 224 63 c 256
 250 63 265 49 265 25 c 256
EndSplineSet
EndChar

StartChar: uni2086
Encoding: 8326 8326 653
GlifName: uni2086
Width: 467
VWidth: -102
Flags: HW
LayerCount: 2
Fore
SplineSet
36 95 m 256
 36 226 111 305 236 305 c 256
 337 305 407 258 424 178 c 257
 267 178 l 257
 262 192 255 200 238 200 c 256
 211 200 193 167 193 118 c 256
 193 113 193 107 193 102 c 257
 212 137 256 160 306 160 c 256
 379 160 432 106 432 32 c 256
 432 -52 359 -111 254 -111 c 256
 120 -111 36 -31 36 95 c 256
205 27 m 256
 205 8 221 -7 243 -7 c 256
 263 -7 275 6 275 25 c 256
 275 44 262 56 241 56 c 256
 219 56 205 45 205 27 c 256
EndSplineSet
EndChar

StartChar: uni2087
Encoding: 8327 8327 654
GlifName: uni2087
Width: 464
VWidth: -102
Flags: HW
LayerCount: 2
Fore
SplineSet
295 -102 m 257
 295 10 329 85 429 141 c 257
 429 293 l 257
 36 293 l 257
 36 152 l 257
 244 152 l 261
 167 98 103 32 103 -102 c 257
 295 -102 l 257
EndSplineSet
EndChar

StartChar: uni2088
Encoding: 8328 8328 655
GlifName: uni2088
Width: 457
VWidth: -102
Flags: HW
LayerCount: 2
Fore
SplineSet
228 305 m 257
 228 198 l 257
 205 198 193 187 193 169 c 256
 193 151 205 140 227 140 c 257
 227 84 l 257
 110 84 46 121 46 188 c 256
 46 258 119 305 228 305 c 257
228 -3 m 257
 228 -111 l 257
 113 -111 36 -63 36 9 c 256
 36 77 104 115 227 115 c 257
 227 58 l 257
 204 58 193 47 193 28 c 256
 193 8 205 -3 228 -3 c 257
242 140 m 257
 242 58 l 257
 216 58 l 257
 216 140 l 257
 242 140 l 257
228 305 m 257
 338 305 412 258 412 187 c 256
 412 120 347 84 230 84 c 257
 230 140 l 257
 252 140 265 151 265 169 c 256
 265 187 252 198 228 198 c 257
 228 305 l 257
228 -3 m 257
 251 -3 265 8 265 28 c 256
 265 47 252 58 230 58 c 257
 230 115 l 257
 353 115 422 78 422 10 c 256
 422 -62 344 -111 228 -111 c 257
 228 -3 l 257
EndSplineSet
EndChar

StartChar: uni2089
Encoding: 8329 8329 656
GlifName: uni2089
Width: 467
VWidth: -102
Flags: HW
LayerCount: 2
Fore
SplineSet
432 99 m 256
 432 -32 355 -111 227 -111 c 256
 123 -111 52 -64 34 16 c 257
 190 16 l 257
 193 0 204 -5 221 -5 c 256
 253 -5 275 28 275 77 c 256
 275 82 275 87 275 92 c 257
 256 57 212 35 162 35 c 256
 89 35 36 89 36 163 c 256
 36 247 109 305 214 305 c 256
 348 305 432 225 432 99 c 256
263 168 m 256
 263 187 247 202 225 202 c 256
 205 202 193 189 193 170 c 256
 193 151 206 138 227 138 c 256
 249 138 263 150 263 168 c 256
EndSplineSet
EndChar

StartChar: uni208A
Encoding: 8330 8330 657
GlifName: uni208A_
Width: 397
VWidth: -102
Flags: HW
LayerCount: 2
Fore
SplineSet
264 161 m 257
 372 161 l 257
 372 30 l 257
 264 30 l 257
 264 -78 l 257
 133 -78 l 257
 133 30 l 257
 26 30 l 257
 26 161 l 257
 133 161 l 257
 133 268 l 257
 264 268 l 257
 264 161 l 257
EndSplineSet
EndChar

StartChar: uni208B
Encoding: 8331 8331 658
GlifName: uni208B_
Width: 397
VWidth: -102
Flags: HW
LayerCount: 2
Fore
SplineSet
26 161 m 1
 372 161 l 1
 372 30 l 1
 26 30 l 1
 26 161 l 1
EndSplineSet
EndChar

StartChar: uni208C
Encoding: 8332 8332 659
GlifName: uni208C_
Width: 397
VWidth: -102
Flags: HW
LayerCount: 2
Fore
SplineSet
26 66 m 5
 372 66 l 5
 372 -66 l 5
 26 -66 l 5
 26 66 l 5
26 260 m 5
 372 260 l 5
 372 129 l 5
 26 129 l 5
 26 260 l 5
EndSplineSet
EndChar

StartChar: uni208D
Encoding: 8333 8333 660
GlifName: uni208D_
Width: 296
VWidth: -102
Flags: HW
LayerCount: 2
Fore
SplineSet
282 -219 m 261
 127 -219 l 261
 69 -161 26 -38 26 89 c 256
 26 216 69 339 127 397 c 257
 282 397 l 257
 216 333 182 224 182 89 c 256
 182 -46 216 -155 282 -219 c 261
EndSplineSet
EndChar

StartChar: uni208E
Encoding: 8334 8334 661
GlifName: uni208E_
Width: 296
VWidth: -102
Flags: HW
LayerCount: 2
Fore
SplineSet
15 397 m 257
 170 397 l 257
 228 339 271 216 271 89 c 256
 271 -38 228 -161 170 -219 c 257
 15 -219 l 257
 81 -155 115 -46 115 89 c 256
 115 224 81 333 15 397 c 257
EndSplineSet
EndChar

StartChar: uni2099
Encoding: 8345 8345 662
GlifName: uni2099
Width: 518
VWidth: -102
Flags: HW
LayerCount: 2
Fore
SplineSet
323 109 m 258
 323 159 298 180 259 180 c 256
 225 180 200 153 200 115 c 257
 160 121 l 257
 160 241 246 313 325 313 c 260
 413 313 476 255 476 150 c 258
 476 -103 l 257
 323 -103 l 257
 323 109 l 258
46 293 m 257
 200 293 l 257
 200 -103 l 257
 46 -103 l 257
 46 293 l 257
EndSplineSet
EndChar

StartChar: uni2460
Encoding: 9312 9312 663
GlifName: uni2460
Width: 906
VWidth: 135
Flags: HW
LayerCount: 2
Fore
SplineSet
448 63 m 0
 611 63 722 173 722 334 c 0
 722 493 614 600 453 600 c 0
 292 600 184 492 184 329 c 0
 184 169 289 63 448 63 c 0
860 333 m 0
 860 99 693 -61 448 -61 c 0
 207 -61 46 92 46 322 c 0
 46 559 214 725 455 725 c 0
 694 725 860 565 860 333 c 0
399 530 m 261
 553 530 l 261
 553 135 l 261
 399 135 l 261
 399 331 l 261
 292 331 l 261
 292 455 l 261
 339 455 l 262
 379 455 399 467 399 510 c 262
 399 530 l 261
EndSplineSet
EndChar

StartChar: uni2461
Encoding: 9313 9313 664
GlifName: uni2461
Width: 906
VWidth: 135
Flags: HW
LayerCount: 2
Fore
SplineSet
448 63 m 4
 611 63 722 173 722 334 c 4
 722 493 614 600 453 600 c 4
 292 600 184 492 184 329 c 4
 184 169 289 63 448 63 c 4
860 333 m 4
 860 99 693 -61 448 -61 c 4
 207 -61 46 92 46 322 c 4
 46 559 214 725 455 725 c 4
 694 725 860 565 860 333 c 4
430 256 m 257
 642 256 l 257
 642 135 l 257
 260 135 l 257
 260 170 l 258
 260 281 305 338 411 368 c 0
 494 392 489 390 489 407 c 256
 489 424 477 433 457 433 c 256
 433 433 418 419 417 399 c 257
 260 399 l 257
 268 484 348 543 457 543 c 256
 572 543 646 489 646 407 c 256
 646 352 611 319 525 293 c 0
 430 263 442 268 430 256 c 257
EndSplineSet
EndChar

StartChar: uni2462
Encoding: 9314 9314 665
GlifName: uni2462
Width: 906
VWidth: 135
Flags: HW
LayerCount: 2
Fore
SplineSet
860 333 m 0
 860 99 693 -61 448 -61 c 0
 207 -61 46 92 46 322 c 0
 46 559 214 725 455 725 c 0
 694 725 860 565 860 333 c 0
448 63 m 0
 611 63 722 173 722 334 c 0
 722 493 614 600 453 600 c 0
 292 600 184 492 184 329 c 0
 184 169 289 63 448 63 c 0
582 334 m 1
 628 316 651 284 651 238 c 0
 651 172 577 127 468 127 c 0
 349 127 263 189 255 280 c 1
 412 280 l 1
 415 255 432 241 459 241 c 0
 482 241 495 251 495 268 c 0
 495 284 482 294 462 294 c 2
 416 294 l 1
 416 373 l 1
 462 373 l 2
 476 373 484 382 484 397 c 0
 484 417 472 431 449 431 c 0
 426 431 413 418 412 396 c 1
 255 396 l 1
 262 484 341 543 452 543 c 0
 562 543 641 493 641 424 c 0
 641 382 622 352 582 334 c 1
EndSplineSet
EndChar

StartChar: uni2463
Encoding: 9315 9315 666
GlifName: uni2463
Width: 906
VWidth: 135
Flags: HW
LayerCount: 2
Fore
SplineSet
448 63 m 0
 611 63 722 173 722 334 c 0
 722 493 614 600 453 600 c 0
 292 600 184 492 184 329 c 0
 184 169 289 63 448 63 c 0
860 333 m 0
 860 99 693 -61 448 -61 c 0
 207 -61 46 92 46 322 c 0
 46 559 214 725 455 725 c 0
 694 725 860 565 860 333 c 0
597 209 m 261
 597 135 l 261
 454 135 l 261
 454 209 l 261
 244 209 l 261
 244 329 l 261
 423 530 l 261
 597 530 l 261
 597 318 l 261
 650 318 l 261
 650 209 l 261
 597 209 l 261
454 318 m 261
 454 401 l 261
 389 318 l 261
 454 318 l 261
EndSplineSet
EndChar

StartChar: uni2464
Encoding: 9316 9316 667
GlifName: uni2464
Width: 906
VWidth: 135
Flags: HW
LayerCount: 2
Fore
SplineSet
448 63 m 0
 611 63 722 173 722 334 c 0
 722 493 614 600 453 600 c 0
 292 600 184 492 184 329 c 0
 184 169 289 63 448 63 c 0
860 333 m 0
 860 99 693 -61 448 -61 c 0
 207 -61 46 92 46 322 c 0
 46 559 214 725 455 725 c 0
 694 725 860 565 860 333 c 0
479 262 m 260
 479 238 466 225 443 225 c 260
 421 225 408 237 407 255 c 261
 250 255 l 261
 257 173 338 117 451 117 c 260
 564 117 636 176 636 268 c 260
 636 342 583 392 507 392 c 260
 467 392 434 381 412 362 c 261
 420 415 l 261
 612 415 l 261
 612 530 l 261
 291 530 l 261
 252 280 l 261
 404 280 l 261
 411 294 423 301 438 301 c 260
 464 301 479 287 479 262 c 260
EndSplineSet
EndChar

StartChar: uni2465
Encoding: 9317 9317 668
GlifName: uni2465
Width: 906
VWidth: 135
Flags: HW
LayerCount: 2
Fore
SplineSet
448 63 m 0
 611 63 722 173 722 334 c 0
 722 493 614 600 453 600 c 0
 292 600 184 492 184 329 c 0
 184 169 289 63 448 63 c 0
860 333 m 0
 860 99 693 -61 448 -61 c 0
 207 -61 46 92 46 322 c 0
 46 559 214 725 455 725 c 0
 694 725 860 565 860 333 c 0
245 333 m 260
 245 464 319 543 444 543 c 260
 545 543 616 496 633 416 c 261
 476 416 l 261
 471 431 461 437 446 437 c 260
 419 437 401 404 401 355 c 260
 401 350 401 345 401 340 c 261
 419 375 464 397 515 397 c 260
 588 397 641 343 641 269 c 260
 641 185 568 127 463 127 c 260
 329 127 245 207 245 333 c 260
414 264 m 260
 414 245 429 230 452 230 c 260
 471 230 484 243 484 262 c 260
 484 281 472 294 450 294 c 260
 428 294 414 281 414 264 c 260
EndSplineSet
EndChar

StartChar: uni2466
Encoding: 9318 9318 669
GlifName: uni2466
Width: 906
VWidth: 135
Flags: HW
LayerCount: 2
Fore
SplineSet
448 63 m 0
 611 63 722 173 722 334 c 0
 722 493 614 600 453 600 c 0
 292 600 184 492 184 329 c 0
 184 169 289 63 448 63 c 0
860 333 m 0
 860 99 693 -61 448 -61 c 0
 207 -61 46 92 46 322 c 0
 46 559 214 725 455 725 c 0
 694 725 860 565 860 333 c 0
517 128 m 261
 517 248 556 319 650 372 c 261
 650 523 l 261
 257 523 l 261
 257 382 l 261
 466 382 l 261
 365 311 325 240 325 128 c 261
 517 128 l 261
EndSplineSet
EndChar

StartChar: uni2467
Encoding: 9319 9319 670
GlifName: uni2467
Width: 906
VWidth: 135
Flags: HW
LayerCount: 2
Fore
SplineSet
860 333 m 0
 860 99 693 -61 448 -61 c 0
 207 -61 46 92 46 322 c 0
 46 559 214 725 455 725 c 0
 694 725 860 565 860 333 c 0
448 63 m 0
 611 63 722 173 722 334 c 0
 722 493 614 600 453 600 c 0
 292 600 184 492 184 329 c 0
 184 169 289 63 448 63 c 0
340 338 m 1
 295 355 270 384 270 425 c 0
 270 496 344 543 453 543 c 0
 563 543 636 496 636 425 c 0
 636 384 612 355 566 338 c 1
 618 321 646 290 646 247 c 0
 646 175 569 127 453 127 c 0
 337 127 260 175 260 247 c 0
 260 291 288 321 340 338 c 1
452 378 m 2
 455 378 l 2
 477 378 489 389 489 407 c 0
 489 425 477 435 453 435 c 0
 430 435 417 425 417 407 c 0
 417 389 429 378 452 378 c 2
452 296 m 2
 429 296 417 285 417 266 c 0
 417 246 430 234 453 234 c 0
 477 234 489 246 489 265 c 0
 489 284 478 296 455 296 c 2
 452 296 l 2
EndSplineSet
EndChar

StartChar: uni2468
Encoding: 9320 9320 671
GlifName: uni2468
Width: 906
VWidth: 135
Flags: HW
LayerCount: 2
Fore
SplineSet
448 63 m 0
 611 63 722 173 722 334 c 0
 722 493 614 600 453 600 c 0
 292 600 184 492 184 329 c 0
 184 169 289 63 448 63 c 0
860 333 m 0
 860 99 693 -61 448 -61 c 0
 207 -61 46 92 46 322 c 0
 46 559 214 725 455 725 c 0
 694 725 860 565 860 333 c 0
657 337 m 260
 657 206 581 127 453 127 c 260
 349 127 276 174 259 254 c 261
 416 254 l 261
 419 239 428 232 446 232 c 260
 479 232 501 265 501 314 c 260
 501 319 501 325 501 330 c 261
 483 295 438 272 387 272 c 260
 314 272 261 326 261 400 c 260
 261 484 334 543 439 543 c 260
 573 543 657 463 657 337 c 260
488 406 m 260
 488 425 474 439 451 439 c 260
 432 439 418 427 418 408 c 260
 418 389 431 376 453 376 c 260
 475 376 488 389 488 406 c 260
EndSplineSet
EndChar

StartChar: uni24EA
Encoding: 9450 9450 672
GlifName: uni24E_A_
Width: 906
VWidth: 135
Flags: HW
LayerCount: 2
Fore
SplineSet
448 63 m 4
 611 63 722 173 722 334 c 4
 722 493 614 600 453 600 c 4
 292 600 184 492 184 329 c 4
 184 169 289 63 448 63 c 4
860 333 m 4
 860 99 693 -61 448 -61 c 4
 207 -61 46 92 46 322 c 4
 46 559 214 725 455 725 c 4
 694 725 860 565 860 333 c 4
251 335 m 256
 251 460 332 543 454 543 c 256
 575 543 655 460 655 335 c 256
 655 209 575 125 454 125 c 256
 332 125 251 209 251 335 c 256
509 335 m 256
 509 389 489 420 454 420 c 256
 418 420 397 389 397 335 c 256
 397 280 418 248 454 248 c 256
 489 248 509 280 509 335 c 256
EndSplineSet
EndChar

StartChar: uni24FF
Encoding: 9471 9471 673
GlifName: uni24F_F_
Width: 906
VWidth: 135
Flags: HW
LayerCount: 2
Fore
SplineSet
860 333 m 0
 860 99 693 -61 448 -61 c 0
 207 -61 46 92 46 322 c 0
 46 559 214 725 455 725 c 0
 694 725 860 565 860 333 c 0
251 335 m 256
 251 209 332 125 454 125 c 256
 575 125 655 209 655 335 c 256
 655 460 575 543 454 543 c 256
 332 543 251 460 251 335 c 256
509 335 m 256
 509 280 489 248 454 248 c 256
 418 248 397 280 397 335 c 256
 397 389 418 420 454 420 c 256
 489 420 509 389 509 335 c 256
EndSplineSet
EndChar

StartChar: uni2776
Encoding: 10102 10102 674
GlifName: uni2776
Width: 906
VWidth: 135
Flags: HW
LayerCount: 2
Fore
SplineSet
860 333 m 0
 860 99 693 -61 448 -61 c 0
 207 -61 46 92 46 322 c 0
 46 559 214 725 455 725 c 0
 694 725 860 565 860 333 c 0
399 530 m 257
 399 510 l 258
 399 467 379 455 339 455 c 258
 292 455 l 257
 292 331 l 257
 399 331 l 257
 399 135 l 257
 553 135 l 257
 553 530 l 257
 399 530 l 257
EndSplineSet
EndChar

StartChar: uni2777
Encoding: 10103 10103 675
GlifName: uni2777
Width: 906
VWidth: 135
Flags: HW
LayerCount: 2
Fore
SplineSet
860 333 m 0
 860 99 693 -61 448 -61 c 0
 207 -61 46 92 46 322 c 0
 46 559 214 725 455 725 c 0
 694 725 860 565 860 333 c 0
430 256 m 257
 442 268 430 263 525 293 c 0
 611 319 646 352 646 407 c 256
 646 489 572 543 457 543 c 256
 348 543 268 484 260 399 c 257
 417 399 l 257
 418 419 433 433 457 433 c 256
 477 433 489 424 489 407 c 256
 489 390 494 392 411 368 c 0
 305 338 260 281 260 170 c 258
 260 135 l 257
 642 135 l 257
 642 256 l 257
 430 256 l 257
EndSplineSet
EndChar

StartChar: uni2778
Encoding: 10104 10104 676
GlifName: uni2778
Width: 906
VWidth: 135
Flags: HW
LayerCount: 2
Fore
SplineSet
860 333 m 0
 860 99 693 -61 448 -61 c 0
 207 -61 46 92 46 322 c 0
 46 559 214 725 455 725 c 0
 694 725 860 565 860 333 c 0
582 334 m 1
 622 352 641 382 641 424 c 0
 641 493 562 543 452 543 c 0
 341 543 262 484 255 396 c 1
 412 396 l 1
 413 418 426 431 449 431 c 0
 472 431 484 417 484 397 c 0
 484 382 476 373 462 373 c 2
 416 373 l 1
 416 294 l 1
 462 294 l 2
 482 294 495 284 495 268 c 0
 495 251 482 241 459 241 c 0
 432 241 415 255 412 280 c 1
 255 280 l 1
 263 189 349 127 468 127 c 0
 577 127 651 172 651 238 c 0
 651 284 628 316 582 334 c 1
EndSplineSet
EndChar

StartChar: uni2779
Encoding: 10105 10105 677
GlifName: uni2779
Width: 906
VWidth: 135
Flags: HW
LayerCount: 2
Fore
SplineSet
860 333 m 0
 860 99 693 -61 448 -61 c 0
 207 -61 46 92 46 322 c 0
 46 559 214 725 455 725 c 0
 694 725 860 565 860 333 c 0
597 209 m 257
 650 209 l 257
 650 318 l 257
 597 318 l 257
 597 530 l 257
 423 530 l 257
 244 329 l 257
 244 209 l 257
 454 209 l 257
 454 135 l 257
 597 135 l 257
 597 209 l 257
454 318 m 257
 389 318 l 257
 454 401 l 257
 454 318 l 257
EndSplineSet
EndChar

StartChar: uni277A
Encoding: 10106 10106 678
GlifName: uni277A_
Width: 906
VWidth: 135
Flags: HW
LayerCount: 2
Fore
SplineSet
860 333 m 0
 860 99 693 -61 448 -61 c 0
 207 -61 46 92 46 322 c 0
 46 559 214 725 455 725 c 0
 694 725 860 565 860 333 c 0
479 262 m 256
 479 238 466 225 443 225 c 256
 421 225 408 237 407 255 c 257
 250 255 l 257
 257 173 338 117 451 117 c 256
 564 117 636 176 636 268 c 256
 636 342 583 392 507 392 c 256
 467 392 434 381 412 362 c 257
 420 415 l 257
 612 415 l 257
 612 530 l 257
 291 530 l 257
 252 280 l 257
 404 280 l 257
 411 294 423 301 438 301 c 256
 464 301 479 287 479 262 c 256
EndSplineSet
EndChar

StartChar: uni277B
Encoding: 10107 10107 679
GlifName: uni277B_
Width: 906
VWidth: 135
Flags: HW
LayerCount: 2
Fore
SplineSet
860 333 m 0
 860 99 693 -61 448 -61 c 0
 207 -61 46 92 46 322 c 0
 46 559 214 725 455 725 c 0
 694 725 860 565 860 333 c 0
245 333 m 256
 245 207 329 127 463 127 c 256
 568 127 641 185 641 269 c 256
 641 343 588 397 515 397 c 256
 464 397 419 375 401 340 c 257
 401 345 401 350 401 355 c 256
 401 404 419 437 446 437 c 256
 461 437 471 431 476 416 c 257
 633 416 l 257
 616 496 545 543 444 543 c 256
 319 543 245 464 245 333 c 256
414 264 m 256
 414 281 428 294 450 294 c 256
 472 294 484 281 484 262 c 256
 484 243 471 230 452 230 c 256
 429 230 414 245 414 264 c 256
EndSplineSet
EndChar

StartChar: uni277C
Encoding: 10108 10108 680
GlifName: uni277C_
Width: 906
VWidth: 135
Flags: HW
LayerCount: 2
Fore
SplineSet
860 333 m 0
 860 99 693 -61 448 -61 c 0
 207 -61 46 92 46 322 c 0
 46 559 214 725 455 725 c 0
 694 725 860 565 860 333 c 0
517 128 m 257
 517 248 556 319 650 372 c 257
 650 523 l 257
 257 523 l 257
 257 382 l 257
 466 382 l 257
 365 311 325 240 325 128 c 257
 517 128 l 257
EndSplineSet
EndChar

StartChar: uni277D
Encoding: 10109 10109 681
GlifName: uni277D_
Width: 906
VWidth: 135
Flags: HW
LayerCount: 2
Fore
SplineSet
860 333 m 0
 860 99 693 -61 448 -61 c 0
 207 -61 46 92 46 322 c 0
 46 559 214 725 455 725 c 0
 694 725 860 565 860 333 c 0
566 338 m 1
 612 355 636 384 636 425 c 0
 636 496 563 543 453 543 c 0
 344 543 270 496 270 425 c 0
 270 384 295 355 340 338 c 1
 288 321 260 291 260 247 c 0
 260 175 337 127 453 127 c 0
 569 127 646 175 646 247 c 0
 646 290 618 321 566 338 c 1
455 378 m 2
 452 378 l 2
 429 378 417 389 417 407 c 0
 417 425 430 435 453 435 c 0
 477 435 489 425 489 407 c 0
 489 389 477 378 455 378 c 2
455 296 m 2
 478 296 489 284 489 265 c 0
 489 246 477 234 453 234 c 0
 430 234 417 246 417 266 c 0
 417 285 429 296 452 296 c 2
 455 296 l 2
EndSplineSet
EndChar

StartChar: uni277E
Encoding: 10110 10110 682
GlifName: uni277E_
Width: 906
VWidth: 135
Flags: HW
LayerCount: 2
Fore
SplineSet
860 333 m 0
 860 99 693 -61 448 -61 c 0
 207 -61 46 92 46 322 c 0
 46 559 214 725 455 725 c 0
 694 725 860 565 860 333 c 0
657 337 m 256
 657 463 573 543 439 543 c 256
 334 543 261 484 261 400 c 256
 261 326 314 272 387 272 c 256
 438 272 483 295 501 330 c 257
 501 325 501 319 501 314 c 256
 501 265 479 232 446 232 c 256
 428 232 419 239 416 254 c 257
 259 254 l 257
 276 174 349 127 453 127 c 256
 581 127 657 206 657 337 c 256
488 406 m 256
 488 389 475 376 453 376 c 256
 431 376 418 389 418 408 c 256
 418 427 432 439 451 439 c 256
 474 439 488 425 488 406 c 256
EndSplineSet
EndChar

StartChar: filledbox
Encoding: 9632 9632 683
GlifName: filledbox
Width: 906
Flags: HW
LayerCount: 2
Fore
SplineSet
860 -72 m 5
 46 -72 l 5
 46 737 l 5
 860 737 l 5
 860 -72 l 5
EndSplineSet
EndChar

StartChar: H22073
Encoding: 9633 9633 684
GlifName: H_22073
Width: 906
Flags: HW
LayerCount: 2
Fore
SplineSet
707 72 m 1
 707 594 l 1
 200 594 l 1
 200 72 l 1
 707 72 l 1
860 -72 m 1
 46 -72 l 1
 46 737 l 1
 860 737 l 1
 860 -72 l 1
EndSplineSet
EndChar

StartChar: triagup
Encoding: 9650 9650 685
GlifName: triagup
Width: 885
Flags: HW
LayerCount: 2
Fore
SplineSet
840 -61 m 1
 46 -61 l 1
 443 727 l 1
 840 -61 l 1
EndSplineSet
EndChar

StartChar: uni25B3
Encoding: 9651 9651 686
GlifName: uni25B_3
Width: 885
Flags: HW
LayerCount: 2
Fore
SplineSet
594 82 m 1
 443 410 l 1
 292 82 l 1
 594 82 l 1
840 -61 m 1
 46 -61 l 1
 443 727 l 1
 840 -61 l 1
EndSplineSet
EndChar

StartChar: uni25B6
Encoding: 9654 9654 687
GlifName: uni25B_6
Width: 885
Flags: HW
LayerCount: 2
Fore
SplineSet
49 -64 m 1
 49 730 l 1
 837 333 l 1
 49 -64 l 1
EndSplineSet
EndChar

StartChar: uni25B7
Encoding: 9655 9655 688
GlifName: uni25B_7
Width: 885
Flags: HW
LayerCount: 2
Fore
SplineSet
192 182 m 1
 520 333 l 1
 192 484 l 1
 192 182 l 1
49 -64 m 1
 49 730 l 1
 837 333 l 1
 49 -64 l 1
EndSplineSet
EndChar

StartChar: triagdn
Encoding: 9660 9660 689
GlifName: triagdn
Width: 885
Flags: HW
LayerCount: 2
Fore
SplineSet
46 727 m 1
 840 727 l 1
 443 -61 l 1
 46 727 l 1
EndSplineSet
EndChar

StartChar: uni25BD
Encoding: 9661 9661 690
GlifName: uni25B_D_
Width: 885
Flags: HW
LayerCount: 2
Fore
SplineSet
292 584 m 1
 443 256 l 1
 594 584 l 1
 292 584 l 1
46 727 m 1
 840 727 l 1
 443 -61 l 1
 46 727 l 1
EndSplineSet
EndChar

StartChar: uni25C0
Encoding: 9664 9664 691
GlifName: uni25C_0
Width: 885
Flags: HW
LayerCount: 2
Fore
SplineSet
837 730 m 1
 837 -64 l 1
 49 333 l 1
 837 730 l 1
EndSplineSet
EndChar

StartChar: uni25C1
Encoding: 9665 9665 692
GlifName: uni25C_1
Width: 885
Flags: HW
LayerCount: 2
Fore
SplineSet
694 484 m 1
 366 333 l 1
 694 182 l 1
 694 484 l 1
837 730 m 1
 837 -64 l 1
 49 333 l 1
 837 730 l 1
EndSplineSet
EndChar

StartChar: uni25C6
Encoding: 9670 9670 693
GlifName: uni25C_6
Width: 885
Flags: HW
LayerCount: 2
Fore
SplineSet
840 333 m 1
 438 -61 l 1
 46 322 l 1
 445 725 l 1
 840 333 l 1
EndSplineSet
EndChar

StartChar: uni25C7
Encoding: 9671 9671 694
GlifName: uni25C_7
Width: 885
Flags: HW
LayerCount: 2
Fore
SplineSet
840 333 m 1
 438 -61 l 1
 46 322 l 1
 445 725 l 1
 840 333 l 1
437 135 m 1
 627 334 l 1
 443 528 l 1
 249 329 l 1
 437 135 l 1
EndSplineSet
EndChar

StartChar: lozenge
Encoding: 9674 9674 695
GlifName: lozenge
Width: 660
Flags: HW
LayerCount: 2
Fore
SplineSet
324 88 m 5
 451 336 l 1
 332 575 l 1
 209 329 l 1
 324 88 l 5
614 337 m 1
 397 -51 l 1
 254 -51 l 1
 46 327 l 1
 260 715 l 1
 403 715 l 1
 614 337 l 1
EndSplineSet
EndChar

StartChar: circle
Encoding: 9675 9675 696
GlifName: circle
Width: 906
VWidth: 135
Flags: HW
LayerCount: 2
Fore
SplineSet
448 63 m 0
 611 63 722 173 722 334 c 0
 722 493 614 600 453 600 c 0
 292 600 184 492 184 329 c 0
 184 169 289 63 448 63 c 0
860 333 m 0
 860 99 693 -61 448 -61 c 0
 207 -61 46 92 46 322 c 0
 46 559 214 725 455 725 c 0
 694 725 860 565 860 333 c 0
EndSplineSet
EndChar

StartChar: H18533
Encoding: 9679 9679 697
GlifName: H_18533
Width: 906
VWidth: 135
Flags: HW
LayerCount: 2
Fore
SplineSet
860 333 m 0
 860 99 693 -61 448 -61 c 0
 207 -61 46 92 46 322 c 0
 46 559 214 725 455 725 c 0
 694 725 860 565 860 333 c 0
EndSplineSet
EndChar

StartChar: uni25D0
Encoding: 9680 9680 698
GlifName: uni25D_0
Width: 906
VWidth: 135
Flags: HW
LayerCount: 2
Fore
SplineSet
448 63 m 1
 611 63 722 173 722 334 c 0
 722 493 614 600 453 600 c 1
 448 63 l 1
860 333 m 0
 860 99 693 -61 448 -61 c 0
 207 -61 46 92 46 322 c 0
 46 559 214 725 455 725 c 0
 694 725 860 565 860 333 c 0
EndSplineSet
EndChar

StartChar: uni25D1
Encoding: 9681 9681 699
GlifName: uni25D_1
Width: 906
VWidth: 135
Flags: HW
LayerCount: 2
Fore
SplineSet
459 600 m 1
 296 600 184 490 184 329 c 0
 184 170 292 63 453 63 c 1
 459 600 l 1
46 331 m 0
 46 565 213 725 458 725 c 0
 699 725 860 571 860 341 c 0
 860 104 692 -61 451 -61 c 0
 212 -61 46 99 46 331 c 0
EndSplineSet
EndChar

StartChar: uni25D2
Encoding: 9682 9682 700
GlifName: uni25D_2
Width: 906
VWidth: 135
Flags: HW
LayerCount: 2
Fore
SplineSet
722 334 m 1
 722 493 614 600 453 600 c 0
 292 600 184 492 184 329 c 1
 722 334 l 1
860 333 m 0
 860 99 693 -61 448 -61 c 0
 207 -61 46 92 46 322 c 0
 46 559 214 725 455 725 c 0
 694 725 860 565 860 333 c 0
EndSplineSet
EndChar

StartChar: uni25D3
Encoding: 9683 9683 701
GlifName: uni25D_3
Width: 906
VWidth: 135
Flags: HW
LayerCount: 2
Fore
SplineSet
184 329 m 1
 184 170 292 63 453 63 c 0
 614 63 722 171 722 334 c 1
 184 329 l 1
46 331 m 0
 46 565 213 725 458 725 c 0
 699 725 860 571 860 341 c 0
 860 104 692 -61 451 -61 c 0
 212 -61 46 99 46 331 c 0
EndSplineSet
EndChar

StartChar: uni25E2
Encoding: 9698 9698 702
GlifName: uni25E_2
Width: 844
Flags: HW
LayerCount: 2
Fore
SplineSet
799 -41 m 1
 46 -41 l 5
 799 707 l 5
 799 -41 l 1
EndSplineSet
EndChar

StartChar: uni25E3
Encoding: 9699 9699 703
GlifName: uni25E_3
Width: 844
Flags: HW
LayerCount: 2
Fore
SplineSet
49 -44 m 1
 49 709 l 5
 796 -44 l 5
 49 -44 l 1
EndSplineSet
EndChar

StartChar: uni25E4
Encoding: 9700 9700 704
GlifName: uni25E_4
Width: 844
Flags: HW
LayerCount: 2
Fore
SplineSet
46 707 m 1
 799 707 l 5
 46 -41 l 5
 46 707 l 1
EndSplineSet
EndChar

StartChar: uni25E5
Encoding: 9701 9701 705
GlifName: uni25E_5
Width: 844
Flags: HW
LayerCount: 2
Fore
SplineSet
796 709 m 1
 796 -44 l 5
 49 709 l 5
 796 709 l 1
EndSplineSet
EndChar

StartChar: uni00B2
Encoding: 178 178 706
GlifName: uni00B_2
Width: 457
VWidth: 372
Flags: HW
LayerCount: 2
Fore
SplineSet
206 494 m 257
 418 494 l 257
 418 373 l 257
 36 373 l 257
 36 408 l 258
 36 552 119 587 186 605 c 0
 229 617 265 621 265 644 c 256
 265 661 252 671 232 671 c 256
 208 671 194 657 193 637 c 257
 36 637 l 257
 44 722 122 780 232 780 c 256
 347 780 422 726 422 644 c 256
 422 573 359 547 301 530 c 0
 261 518 222 510 206 494 c 257
EndSplineSet
EndChar

StartChar: uni00B3
Encoding: 179 179 707
GlifName: uni00B_3
Width: 467
VWidth: 372
Flags: HW
LayerCount: 2
Fore
SplineSet
282 610 m 257
 282 531 l 257
 197 531 l 257
 197 610 l 257
 282 610 l 257
243 552 m 257
 243 610 l 257
 257 610 265 619 265 635 c 256
 265 656 251 669 229 669 c 256
 207 669 194 656 193 634 c 257
 36 634 l 257
 44 722 122 780 232 780 c 256
 342 780 422 731 422 662 c 256
 422 588 364 552 243 552 c 257
243 590 m 261
 368 590 432 551 432 475 c 256
 432 409 358 365 249 365 c 256
 130 365 44 426 36 517 c 257
 193 517 l 257
 196 492 213 478 240 478 c 256
 263 478 275 489 275 506 c 256
 275 522 264 531 243 531 c 257
 243 590 l 261
EndSplineSet
EndChar

StartChar: uni00B9
Encoding: 185 185 708
GlifName: uni00B_9
Width: 332
VWidth: 372
Flags: HW
LayerCount: 2
Fore
SplineSet
133 768 m 257
 287 768 l 257
 287 373 l 257
 133 373 l 257
 133 568 l 257
 26 568 l 257
 26 692 l 257
 73 692 l 258
 113 692 133 705 133 748 c 258
 133 768 l 257
EndSplineSet
EndChar

StartChar: zero.dnom
Encoding: 65736 -1 709
GlifName: zero.dnom
Width: 472
VWidth: 0
Flags: HW
LayerCount: 2
Fore
SplineSet
34 195 m 260
 34 323 115 408 237 408 c 260
 358 408 438 323 438 195 c 260
 438 66 358 -20 237 -20 c 260
 115 -20 34 66 34 195 c 260
292 195 m 260
 292 252 272 285 237 285 c 260
 201 285 180 252 180 195 c 260
 180 137 201 102 237 102 c 260
 272 102 292 137 292 195 c 260
EndSplineSet
EndChar

StartChar: one.dnom
Encoding: 65737 -1 710
GlifName: one.dnom
Width: 332
VWidth: 0
Flags: HW
LayerCount: 2
Fore
SplineSet
133 395 m 257
 287 395 l 257
 287 0 l 257
 133 0 l 257
 133 196 l 257
 26 196 l 257
 26 319 l 257
 73 319 l 258
 113 319 133 332 133 375 c 258
 133 395 l 257
EndSplineSet
EndChar

StartChar: two.dnom
Encoding: 65738 -1 711
GlifName: two.dnom
Width: 457
VWidth: 0
Flags: HW
LayerCount: 2
Fore
SplineSet
206 121 m 257
 418 121 l 257
 418 0 l 257
 36 0 l 257
 36 35 l 258
 36 179 119 214 186 232 c 0
 229 244 265 248 265 271 c 256
 265 288 252 298 232 298 c 256
 208 298 194 284 193 264 c 257
 36 264 l 257
 44 349 122 408 232 408 c 256
 347 408 422 353 422 271 c 256
 422 200 359 175 301 158 c 0
 261 146 222 137 206 121 c 257
EndSplineSet
EndChar

StartChar: three.dnom
Encoding: 65739 -1 712
GlifName: three.dnom
Width: 467
VWidth: 0
Flags: HW
LayerCount: 2
Fore
SplineSet
282 238 m 257
 282 159 l 257
 197 159 l 257
 197 238 l 257
 282 238 l 257
243 179 m 257
 243 238 l 257
 257 238 265 246 265 262 c 256
 265 283 251 296 229 296 c 256
 207 296 194 283 193 261 c 257
 36 261 l 257
 44 349 122 408 232 408 c 256
 342 408 422 358 422 289 c 256
 422 215 364 179 243 179 c 257
243 217 m 261
 368 217 432 178 432 102 c 256
 432 36 358 -8 249 -8 c 256
 130 -8 44 53 36 144 c 257
 193 144 l 257
 196 119 213 105 240 105 c 256
 263 105 275 116 275 133 c 256
 275 149 264 159 243 159 c 257
 243 217 l 261
EndSplineSet
EndChar

StartChar: four.dnom
Encoding: 65740 -1 713
GlifName: four.dnom
Width: 447
VWidth: 0
Flags: HW
LayerCount: 2
Fore
SplineSet
379 74 m 257
 379 0 l 257
 236 0 l 257
 236 74 l 257
 26 74 l 257
 26 194 l 257
 205 395 l 261
 379 395 l 257
 379 183 l 257
 432 183 l 257
 432 74 l 257
 379 74 l 257
236 183 m 257
 236 266 l 257
 171 183 l 257
 236 183 l 257
EndSplineSet
EndChar

StartChar: five.dnom
Encoding: 65741 -1 714
GlifName: five.dnom
Width: 457
VWidth: 0
Flags: HW
LayerCount: 2
Fore
SplineSet
265 127 m 256
 265 103 252 90 229 90 c 256
 207 90 194 102 193 120 c 257
 36 120 l 257
 43 38 124 -18 237 -18 c 256
 350 -18 422 41 422 133 c 256
 422 206 369 257 293 257 c 256
 253 257 219 246 198 227 c 257
 206 280 l 257
 398 280 l 257
 398 395 l 257
 77 395 l 257
 38 144 l 257
 190 144 l 257
 197 158 209 166 224 166 c 256
 250 166 265 152 265 127 c 256
EndSplineSet
EndChar

StartChar: six.dnom
Encoding: 65742 -1 715
GlifName: six.dnom
Width: 467
VWidth: 0
Flags: HW
LayerCount: 2
Fore
SplineSet
36 198 m 256
 36 329 111 408 236 408 c 256
 337 408 407 361 424 281 c 257
 267 281 l 257
 262 295 255 302 238 302 c 256
 211 302 193 269 193 220 c 256
 193 215 193 210 193 205 c 257
 212 240 256 262 306 262 c 256
 379 262 432 208 432 134 c 256
 432 50 359 -8 254 -8 c 256
 120 -8 36 72 36 198 c 256
205 129 m 256
 205 110 221 95 243 95 c 256
 263 95 275 108 275 127 c 256
 275 146 262 159 241 159 c 256
 219 159 205 147 205 129 c 256
EndSplineSet
EndChar

StartChar: seven.dnom
Encoding: 65743 -1 716
GlifName: seven.dnom
Width: 464
VWidth: 0
Flags: HW
LayerCount: 2
Fore
SplineSet
295 0 m 257
 295 112 329 188 429 244 c 257
 429 395 l 257
 36 395 l 257
 36 254 l 257
 244 254 l 261
 167 200 103 134 103 0 c 257
 295 0 l 257
EndSplineSet
EndChar

StartChar: eight.dnom
Encoding: 65744 -1 717
GlifName: eight.dnom
Width: 457
VWidth: 0
Flags: HW
LayerCount: 2
Fore
SplineSet
228 408 m 257
 228 300 l 257
 205 300 193 289 193 271 c 256
 193 253 205 243 227 243 c 257
 227 186 l 257
 110 186 46 223 46 290 c 256
 46 360 119 408 228 408 c 257
228 99 m 257
 228 -8 l 257
 113 -8 36 39 36 111 c 256
 36 179 104 217 227 217 c 257
 227 161 l 257
 204 161 193 150 193 131 c 256
 193 111 205 99 228 99 c 257
242 243 m 257
 242 161 l 257
 216 161 l 257
 216 243 l 257
 242 243 l 257
228 408 m 257
 338 408 412 360 412 289 c 256
 412 222 347 186 230 186 c 257
 230 243 l 257
 252 243 265 253 265 271 c 256
 265 289 252 300 228 300 c 257
 228 408 l 257
228 99 m 257
 251 99 265 110 265 130 c 256
 265 149 252 161 230 161 c 257
 230 217 l 257
 353 217 422 180 422 112 c 256
 422 40 344 -8 228 -8 c 257
 228 99 l 257
EndSplineSet
EndChar

StartChar: nine.dnom
Encoding: 65745 -1 718
GlifName: nine.dnom
Width: 467
VWidth: 0
Flags: HW
LayerCount: 2
Fore
SplineSet
432 202 m 256
 432 71 355 -8 227 -8 c 256
 123 -8 52 39 34 119 c 257
 190 119 l 257
 193 103 204 97 221 97 c 256
 253 97 275 130 275 179 c 256
 275 184 275 190 275 195 c 257
 256 160 212 137 162 137 c 256
 89 137 36 191 36 265 c 256
 36 349 109 408 214 408 c 256
 348 408 432 328 432 202 c 256
263 270 m 256
 263 289 247 304 225 304 c 256
 205 304 193 291 193 272 c 256
 193 253 206 241 227 241 c 256
 249 241 263 252 263 270 c 256
EndSplineSet
EndChar

StartChar: zero.numr
Encoding: 65746 -1 719
GlifName: zero.numr
Width: 472
VWidth: 270
Flags: HW
LayerCount: 2
Fore
SplineSet
34 465 m 260
 34 593 115 678 237 678 c 260
 358 678 438 593 438 465 c 260
 438 336 358 250 237 250 c 260
 115 250 34 336 34 465 c 260
292 465 m 260
 292 522 272 555 237 555 c 260
 201 555 180 522 180 465 c 260
 180 407 201 373 237 373 c 260
 272 373 292 407 292 465 c 260
EndSplineSet
EndChar

StartChar: one.numr
Encoding: 65747 -1 720
GlifName: one.numr
Width: 332
VWidth: 270
Flags: HW
LayerCount: 2
Fore
SplineSet
133 666 m 257
 287 666 l 257
 287 270 l 257
 133 270 l 257
 133 466 l 257
 26 466 l 257
 26 590 l 257
 73 590 l 258
 113 590 133 602 133 645 c 258
 133 666 l 257
EndSplineSet
EndChar

StartChar: two.numr
Encoding: 65748 -1 721
GlifName: two.numr
Width: 457
VWidth: 270
Flags: HW
LayerCount: 2
Fore
SplineSet
206 391 m 257
 418 391 l 257
 418 270 l 257
 36 270 l 257
 36 305 l 258
 36 449 119 485 186 503 c 0
 229 515 265 519 265 542 c 256
 265 559 252 568 232 568 c 256
 208 568 194 555 193 535 c 257
 36 535 l 257
 44 620 122 678 232 678 c 256
 347 678 422 624 422 542 c 256
 422 471 359 445 301 428 c 0
 261 416 222 407 206 391 c 257
EndSplineSet
EndChar

StartChar: three.numr
Encoding: 65749 -1 722
GlifName: three.numr
Width: 467
VWidth: 270
Flags: HW
LayerCount: 2
Fore
SplineSet
282 508 m 257
 282 429 l 257
 197 429 l 257
 197 508 l 257
 282 508 l 257
243 450 m 257
 243 508 l 257
 257 508 265 516 265 532 c 256
 265 553 251 566 229 566 c 256
 207 566 194 553 193 531 c 257
 36 531 l 257
 44 619 122 678 232 678 c 256
 342 678 422 628 422 559 c 256
 422 485 364 450 243 450 c 257
243 487 m 261
 368 487 432 449 432 373 c 256
 432 307 358 262 249 262 c 256
 130 262 44 324 36 415 c 257
 193 415 l 257
 196 390 213 376 240 376 c 256
 263 376 275 386 275 403 c 256
 275 419 264 429 243 429 c 257
 243 487 l 261
EndSplineSet
EndChar

StartChar: four.numr
Encoding: 65750 -1 723
GlifName: four.numr
Width: 447
VWidth: 270
Flags: HW
LayerCount: 2
Fore
SplineSet
379 344 m 257
 379 270 l 257
 236 270 l 257
 236 344 l 257
 26 344 l 257
 26 464 l 257
 205 666 l 261
 379 666 l 257
 379 454 l 257
 432 454 l 257
 432 344 l 257
 379 344 l 257
236 454 m 257
 236 537 l 257
 171 454 l 257
 236 454 l 257
EndSplineSet
EndChar

StartChar: five.numr
Encoding: 65751 -1 724
GlifName: five.numr
Width: 457
VWidth: 270
Flags: HW
LayerCount: 2
Fore
SplineSet
265 397 m 256
 265 373 252 360 229 360 c 256
 207 360 194 372 193 390 c 257
 36 390 l 257
 43 308 124 252 237 252 c 256
 350 252 422 311 422 403 c 256
 422 476 369 527 293 527 c 256
 253 527 219 517 198 498 c 257
 206 550 l 257
 398 550 l 257
 398 666 l 257
 77 666 l 257
 38 415 l 257
 190 415 l 257
 197 429 209 436 224 436 c 256
 250 436 265 421 265 397 c 256
EndSplineSet
EndChar

StartChar: six.numr
Encoding: 65752 -1 725
GlifName: six.numr
Width: 467
VWidth: 270
Flags: HW
LayerCount: 2
Fore
SplineSet
36 468 m 256
 36 599 111 678 236 678 c 256
 337 678 407 631 424 551 c 257
 267 551 l 257
 262 565 255 572 238 572 c 256
 211 572 193 539 193 490 c 256
 193 485 193 480 193 475 c 257
 212 510 256 532 306 532 c 256
 379 532 432 478 432 404 c 256
 432 320 359 262 254 262 c 256
 120 262 36 342 36 468 c 256
205 399 m 256
 205 380 221 366 243 366 c 256
 263 366 275 378 275 397 c 256
 275 416 262 429 241 429 c 256
 219 429 205 417 205 399 c 256
EndSplineSet
EndChar

StartChar: seven.numr
Encoding: 65753 -1 726
GlifName: seven.numr
Width: 464
VWidth: 270
Flags: HW
LayerCount: 2
Fore
SplineSet
295 270 m 257
 295 382 329 458 429 514 c 257
 429 666 l 257
 36 666 l 257
 36 524 l 257
 244 524 l 261
 167 470 103 404 103 270 c 257
 295 270 l 257
EndSplineSet
EndChar

StartChar: eight.numr
Encoding: 65754 -1 727
GlifName: eight.numr
Width: 457
VWidth: 270
Flags: HW
LayerCount: 2
Fore
SplineSet
228 678 m 257
 228 570 l 257
 205 570 193 560 193 542 c 256
 193 524 205 513 227 513 c 257
 227 457 l 257
 110 457 46 493 46 560 c 256
 46 630 119 678 228 678 c 257
228 370 m 257
 228 262 l 257
 113 262 36 309 36 381 c 256
 36 449 104 487 227 487 c 257
 227 431 l 257
 204 431 193 420 193 401 c 256
 193 381 205 370 228 370 c 257
242 513 m 257
 242 431 l 257
 216 431 l 257
 216 513 l 257
 242 513 l 257
228 678 m 257
 338 678 412 631 412 560 c 256
 412 493 347 457 230 457 c 257
 230 513 l 257
 252 513 265 524 265 542 c 256
 265 560 252 570 228 570 c 257
 228 678 l 257
228 370 m 257
 251 370 265 381 265 401 c 256
 265 420 252 431 230 431 c 257
 230 487 l 257
 353 487 422 450 422 382 c 256
 422 310 344 262 228 262 c 257
 228 370 l 257
EndSplineSet
EndChar

StartChar: nine.numr
Encoding: 65755 -1 728
GlifName: nine.numr
Width: 467
VWidth: 270
Flags: HW
LayerCount: 2
Fore
SplineSet
432 472 m 256
 432 341 355 262 227 262 c 256
 123 262 52 309 34 389 c 257
 190 389 l 257
 193 373 204 368 221 368 c 256
 253 368 275 401 275 450 c 256
 275 455 275 460 275 465 c 257
 256 430 212 408 162 408 c 256
 89 408 36 462 36 536 c 256
 36 620 109 678 214 678 c 256
 348 678 432 598 432 472 c 256
263 541 m 256
 263 560 247 574 225 574 c 256
 205 574 193 562 193 543 c 256
 193 524 206 511 227 511 c 256
 249 511 263 523 263 541 c 256
EndSplineSet
EndChar

StartChar: onequarter
Encoding: 188 188 730
GlifName: onequarter
Width: 1055
VWidth: 0
Flags: HW
LayerCount: 2
Fore
SplineSet
959 74 m 261
 959 0 l 261
 816 0 l 261
 816 74 l 261
 606 74 l 261
 606 194 l 261
 785 395 l 261
 959 395 l 261
 959 183 l 261
 1013 183 l 261
 1013 74 l 261
 959 74 l 261
816 183 m 261
 816 266 l 261
 752 183 l 261
 816 183 l 261
187 666 m 257
 341 666 l 257
 341 270 l 257
 187 270 l 257
 187 466 l 257
 80 466 l 257
 80 590 l 257
 127 590 l 258
 167 590 187 602 187 645 c 258
 187 666 l 257
583 666 m 257
 746 666 l 257
 476 0 l 257
 312 0 l 257
 583 666 l 257
EndSplineSet
EndChar

StartChar: onehalf
Encoding: 189 189 731
GlifName: onehalf
Width: 1055
VWidth: 0
Flags: HW
LayerCount: 2
Fore
SplineSet
803 121 m 261
 1015 121 l 261
 1015 0 l 261
 633 0 l 261
 633 35 l 262
 633 179 716 214 783 232 c 4
 826 244 862 248 862 271 c 260
 862 288 849 298 829 298 c 260
 805 298 791 284 790 264 c 261
 633 264 l 261
 641 349 719 408 829 408 c 260
 944 408 1019 353 1019 271 c 260
 1019 200 956 175 898 158 c 4
 858 146 819 137 803 121 c 261
187 666 m 257
 341 666 l 257
 341 270 l 257
 187 270 l 257
 187 466 l 257
 80 466 l 257
 80 590 l 257
 127 590 l 258
 167 590 187 602 187 645 c 258
 187 666 l 257
583 666 m 257
 746 666 l 257
 476 0 l 257
 312 0 l 257
 583 666 l 257
EndSplineSet
EndChar

StartChar: threequarters
Encoding: 190 190 732
GlifName: threequarters
Width: 1055
VWidth: 0
Flags: HW
LayerCount: 2
Fore
SplineSet
282 508 m 257
 282 429 l 257
 197 429 l 257
 197 508 l 257
 282 508 l 257
243 450 m 257
 243 508 l 257
 257 508 265 516 265 532 c 256
 265 553 251 566 229 566 c 256
 207 566 194 553 193 531 c 257
 36 531 l 257
 44 619 122 678 232 678 c 256
 342 678 422 628 422 559 c 256
 422 485 364 450 243 450 c 257
243 487 m 257
 368 487 432 449 432 373 c 256
 432 307 358 262 249 262 c 256
 130 262 44 324 36 415 c 257
 193 415 l 257
 196 390 213 376 240 376 c 256
 263 376 275 386 275 403 c 256
 275 419 264 429 243 429 c 257
 243 487 l 257
959 74 m 261
 959 0 l 261
 816 0 l 261
 816 74 l 261
 606 74 l 261
 606 194 l 261
 785 395 l 261
 959 395 l 261
 959 183 l 261
 1013 183 l 261
 1013 74 l 261
 959 74 l 261
816 183 m 261
 816 266 l 261
 752 183 l 261
 816 183 l 261
583 666 m 257
 746 666 l 257
 476 0 l 257
 312 0 l 257
 583 666 l 257
EndSplineSet
EndChar

StartChar: section
Encoding: 167 167 733
GlifName: section
Width: 579
VWidth: 0
Flags: HW
LayerCount: 2
Fore
SplineSet
254 503 m 258
 361 493 l 258
 484 484 541 445 541 379 c 256
 541 300 447 251 296 251 c 257
 296 299 l 257
 326 299 344 312 344 331 c 256
 344 348 335 357 313 359 c 258
 219 370 l 258
 105 382 34 425 34 516 c 256
 34 616 129 683 274 683 c 256
 429 683 531 620 546 517 c 257
 347 517 l 257
 341 544 320 556 278 556 c 256
 244 556 221 543 221 523 c 256
 221 512 231 505 254 503 c 258
326 162 m 258
 218 172 l 258
 95 181 39 220 39 286 c 256
 39 359 133 403 284 403 c 257
 284 366 l 257
 254 366 236 353 236 334 c 256
 236 317 244 307 266 305 c 258
 360 295 l 258
 473 283 546 239 546 148 c 256
 546 48 450 -18 305 -18 c 256
 150 -18 49 44 34 147 c 257
 232 147 l 257
 238 120 260 109 302 109 c 256
 336 109 358 121 358 141 c 256
 358 152 349 160 326 162 c 258
EndSplineSet
EndChar

StartChar: guillemotleft
Encoding: 171 171 734
GlifName: guillemotleft
Width: 625
VWidth: 0
Flags: HW
LayerCount: 2
Fore
SplineSet
600 594 m 257
 600 393 l 257
 463 315 l 257
 600 244 l 257
 600 41 l 257
 334 207 l 257
 334 428 l 257
 600 594 l 257
293 594 m 261
 293 393 l 261
 156 315 l 261
 293 244 l 261
 293 41 l 261
 27 207 l 261
 27 428 l 261
 293 594 l 261
EndSplineSet
EndChar

StartChar: guillemotright
Encoding: 187 187 735
GlifName: guillemotright
Width: 625
VWidth: 0
Flags: HW
LayerCount: 2
Fore
SplineSet
27 41 m 257
 27 242 l 257
 164 319 l 257
 27 391 l 257
 27 594 l 257
 293 428 l 257
 293 207 l 257
 27 41 l 257
334 41 m 257
 334 242 l 257
 471 319 l 257
 334 391 l 257
 334 594 l 257
 600 428 l 257
 600 207 l 257
 334 41 l 257
EndSplineSet
EndChar

StartChar: plusminus
Encoding: 177 177 736
GlifName: plusminus
Width: 602
VWidth: 0
Flags: HW
LayerCount: 2
Fore
SplineSet
577 102 m 257
 577 -70 l 257
 26 -70 l 257
 26 102 l 257
 577 102 l 257
387 461 m 257
 577 461 l 257
 577 289 l 257
 387 289 l 257
 387 151 l 257
 215 151 l 257
 215 289 l 257
 26 289 l 257
 26 461 l 257
 215 461 l 257
 215 599 l 257
 387 599 l 257
 387 461 l 257
EndSplineSet
EndChar

StartChar: dieresis
Encoding: 168 168 737
GlifName: dieresis
Width: 503
VWidth: 0
Flags: HW
LayerCount: 2
Fore
SplineSet
290 693 m 257
 478 693 l 257
 478 512 l 257
 290 512 l 257
 290 693 l 257
26 693 m 257
 214 693 l 257
 214 512 l 257
 26 512 l 257
 26 693 l 257
EndSplineSet
EndChar

StartChar: copyright
Encoding: 169 169 738
GlifName: copyright
Width: 906
VWidth: 135
Flags: HW
LayerCount: 2
Fore
SplineSet
237 332 m 256
 237 460 322 545 452 545 c 256
 568 545 651 481 659 370 c 257
 503 370 l 257
 502 409 483 422 452 422 c 256
 415 422 393 390 393 332 c 256
 393 273 415 240 452 240 c 256
 482 240 501 250 503 283 c 257
 659 283 l 257
 648 175 567 117 452 117 c 256
 323 117 237 203 237 332 c 256
448 63 m 0
 611 63 722 173 722 334 c 0
 722 493 614 600 453 600 c 0
 292 600 184 492 184 329 c 0
 184 169 289 63 448 63 c 0
860 333 m 0
 860 99 693 -61 448 -61 c 0
 207 -61 46 92 46 322 c 0
 46 559 214 725 455 725 c 0
 694 725 860 565 860 333 c 0
EndSplineSet
EndChar

StartChar: ordfeminine
Encoding: 170 170 739
GlifName: ordfeminine
Width: 513
Flags: HW
LayerCount: 2
Fore
SplineSet
469 382 m 2
 469 331 473 290 481 260 c 1
 326 260 l 1
 319 293 315 329 315 374 c 6
 315 535 l 2
 315 555 292 569 263 569 c 0
 223 569 202 556 198 530 c 1
 40 530 l 1
 48 620 134 678 262 678 c 0
 380 678 469 616 469 534 c 2
 469 382 l 2
351 424 m 5
 351 327 281 250 194 250 c 0
 101 250 36 303 36 380 c 0
 36 449 91 490 182 499 c 2
 272 508 l 2
 301 511 315 516 315 532 c 1
 316 428 l 5
 228 419 l 6
 201 416 191 408 191 392 c 4
 191 374 211 364 241 364 c 4
 284 364 315 389 315 424 c 5
 351 424 l 5
EndSplineSet
Substitution2: "ss01StyleSet1inLatinlookup0 subtable" ordfeminine.ss01
EndChar

StartChar: logicalnot
Encoding: 172 172 740
GlifName: logicalnot
Width: 657
VWidth: 0
Flags: HW
LayerCount: 2
Fore
SplineSet
437 197 m 1
 26 197 l 1
 26 369 l 1
 632 369 l 1
 632 61 l 5
 437 61 l 5
 437 197 l 1
EndSplineSet
EndChar

StartChar: uni00AD
Encoding: 173 173 741
GlifName: uni00A_D_
Width: 432
VWidth: 0
Flags: HW
LayerCount: 2
Fore
SplineSet
26 369 m 257
 407 369 l 257
 407 197 l 257
 26 197 l 257
 26 369 l 257
EndSplineSet
EndChar

StartChar: registered
Encoding: 174 174 742
GlifName: registered
Width: 906
VWidth: 135
Flags: HW
LayerCount: 2
Fore
SplineSet
445 246 m 257
 472 331 l 257
 580 331 622 307 633 222 c 258
 643 136 l 257
 503 136 l 257
 494 205 l 258
 490 232 476 246 445 246 c 257
457 417 m 258
 401 417 l 257
 401 350 l 257
 457 350 l 258
 481 350 495 363 495 385 c 256
 495 405 481 417 457 417 c 258
472 300 m 257
 462 246 l 257
 401 246 l 257
 401 136 l 257
 258 136 l 257
 258 524 l 257
 496 524 l 258
 580 524 636 481 636 416 c 256
 636 347 570 300 472 300 c 257
448 63 m 0
 611 63 722 173 722 334 c 0
 722 493 614 600 453 600 c 0
 292 600 184 492 184 329 c 0
 184 169 289 63 448 63 c 0
860 333 m 0
 860 99 693 -61 448 -61 c 0
 207 -61 46 92 46 322 c 0
 46 559 214 725 455 725 c 0
 694 725 860 565 860 333 c 0
EndSplineSet
EndChar

StartChar: macron
Encoding: 175 175 743
GlifName: macron
Width: 419
VWidth: 0
Flags: HW
LayerCount: 2
Fore
SplineSet
26 662 m 257
 394 662 l 257
 394 522 l 257
 26 522 l 257
 26 662 l 257
EndSplineSet
EndChar

StartChar: acute
Encoding: 180 180 744
GlifName: acute
Width: 368
VWidth: 0
Flags: HW
LayerCount: 2
Fore
SplineSet
343 717 m 257
 179 512 l 257
 26 512 l 257
 128 717 l 257
 343 717 l 257
EndSplineSet
EndChar

StartChar: mu
Encoding: 181 181 745
GlifName: mu
Width: 610
VWidth: 0
Flags: HW
LayerCount: 2
Fore
SplineSet
44 512 m 257
 239 512 l 257
 239 -167 l 257
 44 -167 l 257
 44 512 l 257
239 225 m 257
 239 175 265 154 307 154 c 256
 344 154 372 181 372 219 c 257
 412 213 l 257
 412 68 314 -20 224 -20 c 256
 125 -20 54 52 54 184 c 257
 239 225 l 257
566 0 m 257
 372 0 l 257
 372 512 l 257
 566 512 l 257
 566 0 l 257
EndSplineSet
EndChar

StartChar: paragraph
Encoding: 182 182 746
GlifName: paragraph
Width: 741
Flags: HW
LayerCount: 2
Fore
SplineSet
259 258 m 1
 125 258 36 340 36 463 c 0
 36 584 124 665 259 666 c 2
 685 666 l 1
 685 0 l 1
 511 0 l 1
 511 498 l 1
 439 498 l 1
 439 0 l 1
 259 0 l 1
 259 258 l 1
EndSplineSet
EndChar

StartChar: cedilla
Encoding: 184 184 747
GlifName: cedilla
Width: 313
VWidth: 0
Flags: HW
LayerCount: 2
Fore
SplineSet
99 10 m 257
 199 10 l 257
 159 -56 l 257
 173 -56 l 258
 241 -56 288 -106 288 -179 c 256
 288 -249 221 -294 117 -294 c 258
 26 -294 l 257
 26 -161 l 257
 109 -161 l 258
 130 -161 141 -152 141 -137 c 256
 141 -125 132 -118 115 -118 c 258
 80 -118 l 257
 54 -77 l 257
 99 10 l 257
EndSplineSet
EndChar

StartChar: ordmasculine
Encoding: 186 186 748
GlifName: ordmasculine
Width: 513
VWidth: 270
Flags: HW
LayerCount: 2
Fore
SplineSet
34 465 m 256
 34 593 123 678 257 678 c 256
 390 678 479 593 479 465 c 256
 479 336 390 250 257 250 c 256
 123 250 34 336 34 465 c 256
333 465 m 256
 333 522 305 555 257 555 c 256
 208 555 180 522 180 465 c 256
 180 407 208 373 257 373 c 256
 305 373 333 407 333 465 c 256
EndSplineSet
EndChar

StartChar: ordfeminine.ss01
Encoding: 65756 -1 749
GlifName: ordfeminine.ss01
Width: 513
VWidth: 270
Flags: HW
LayerCount: 2
Fore
SplineSet
333 666 m 257
 479 666 l 257
 479 262 l 257
 333 262 l 257
 333 666 l 257
34 465 m 256
 34 593 110 678 224 678 c 256
 322 678 387 593 387 465 c 256
 387 336 322 250 224 250 c 256
 110 250 34 336 34 465 c 256
333 465 m 256
 333 522 305 555 257 555 c 256
 208 555 180 522 180 465 c 256
 180 407 208 373 257 373 c 256
 305 373 333 407 333 465 c 256
EndSplineSet
EndChar

StartChar: arrowleft
Encoding: 8592 8592 750
GlifName: arrowleft
Width: 798
Flags: HW
LayerCount: 2
Fore
SplineSet
158 269 m 1
 158 422 l 1
 763 422 l 5
 763 269 l 1
 158 269 l 1
36 346 m 1
 278 587 l 1
 364 501 l 1
 208 346 l 1
 364 190 l 1
 278 104 l 1
 36 346 l 1
EndSplineSet
EndChar

StartChar: uni2196
Encoding: 8598 8598 751
GlifName: uni2196
Width: 640
Flags: HW
LayerCount: 2
Fore
SplineSet
68 486 m 1
 175 594 l 1
 604 167 l 1
 496 58 l 1
 68 486 l 1
36 627 m 5
 377 627 l 5
 377 504 l 5
 157 504 l 5
 157 285 l 5
 36 285 l 5
 36 627 l 5
EndSplineSet
EndChar

StartChar: uni2197
Encoding: 8599 8599 752
GlifName: uni2197
Width: 640
Flags: HW
LayerCount: 2
Fore
SplineSet
464 595 m 1
 571 487 l 1
 144 58 l 1
 36 167 l 1
 464 595 l 1
604 627 m 1
 604 286 l 1
 481 286 l 1
 481 506 l 1
 262 506 l 1
 262 627 l 1
 604 627 l 1
EndSplineSet
EndChar

StartChar: uni2198
Encoding: 8600 8600 753
GlifName: uni2198
Width: 640
Flags: HW
LayerCount: 2
Fore
SplineSet
572 199 m 1
 465 91 l 1
 36 518 l 1
 144 627 l 1
 572 199 l 1
604 58 m 1
 263 58 l 1
 263 181 l 1
 483 181 l 1
 483 400 l 1
 604 400 l 1
 604 58 l 1
EndSplineSet
EndChar

StartChar: uni2199
Encoding: 8601 8601 754
GlifName: uni2199
Width: 640
Flags: HW
LayerCount: 2
Fore
SplineSet
176 90 m 1
 69 198 l 1
 496 627 l 1
 604 518 l 1
 176 90 l 1
36 58 m 1
 36 399 l 1
 159 399 l 1
 159 179 l 1
 378 179 l 1
 378 58 l 1
 36 58 l 1
EndSplineSet
EndChar

StartChar: arrowup
Encoding: 8593 8593 755
GlifName: arrowup
Width: 555
Flags: HW
LayerCount: 2
Fore
SplineSet
202 588 m 1
 353 588 l 1
 355 -18 l 1
 202 -18 l 1
 202 588 l 1
278 709 m 1
 519 467 l 1
 433 381 l 1
 278 537 l 1
 122 381 l 1
 36 467 l 1
 278 709 l 1
EndSplineSet
EndChar

StartChar: arrowright
Encoding: 8594 8594 756
GlifName: arrowright
Width: 798
Flags: HW
LayerCount: 2
Fore
SplineSet
641 422 m 1
 641 269 l 1
 36 269 l 1
 36 422 l 1
 641 422 l 1
763 345 m 5
 521 104 l 5
 435 190 l 5
 591 345 l 5
 435 501 l 5
 521 587 l 5
 763 345 l 5
EndSplineSet
EndChar

StartChar: arrowdown
Encoding: 8595 8595 757
GlifName: arrowdown
Width: 555
Flags: HW
LayerCount: 2
Fore
SplineSet
353 104 m 1
 202 104 l 1
 200 709 l 1
 353 709 l 1
 353 104 l 1
278 -18 m 5
 36 223 l 5
 122 309 l 5
 278 154 l 5
 433 309 l 5
 519 223 l 5
 278 -18 l 5
EndSplineSet
EndChar

StartChar: arrowboth
Encoding: 8596 8596 758
GlifName: arrowboth
Width: 798
Flags: HW
LayerCount: 2
Fore
SplineSet
763 345 m 1
 521 104 l 1
 435 190 l 1
 591 345 l 1
 435 501 l 1
 521 587 l 1
 763 345 l 1
158 269 m 1
 158 422 l 1
 641 422 l 1
 641 269 l 1
 158 269 l 1
36 346 m 1
 278 587 l 1
 364 501 l 1
 208 346 l 1
 364 190 l 1
 278 104 l 1
 36 346 l 1
EndSplineSet
EndChar

StartChar: arrowupdn
Encoding: 8597 8597 759
GlifName: arrowupdn
Width: 555
Flags: HW
LayerCount: 2
Fore
SplineSet
278 -18 m 1
 36 223 l 1
 122 309 l 1
 278 154 l 1
 433 309 l 1
 519 223 l 1
 278 -18 l 1
202 586 m 1
 353 586 l 1
 353 102 l 1
 202 102 l 1
 202 586 l 1
278 709 m 1
 519 467 l 1
 433 381 l 1
 278 537 l 1
 122 381 l 1
 36 467 l 1
 278 709 l 1
EndSplineSet
EndChar

StartChar: arrowdblleft
Encoding: 8656 8656 760
GlifName: arrowdblleft
Width: 798
Flags: HW
LayerCount: 2
Fore
SplineSet
199 218 m 5
 199 319 l 5
 763 321 l 1
 763 218 l 1
 199 218 l 5
199 372 m 5
 199 473 l 5
 763 474 l 1
 763 372 l 1
 199 372 l 5
36 346 m 1
 288 597 l 1
 364 521 l 1
 187 346 l 1
 364 170 l 1
 288 94 l 1
 36 346 l 1
EndSplineSet
EndChar

StartChar: arrowdblup
Encoding: 8657 8657 761
GlifName: arrowdblup
Width: 574
Flags: HW
LayerCount: 2
Fore
SplineSet
160 546 m 5
 261 546 l 5
 262 -18 l 1
 160 -18 l 1
 160 546 l 5
313 546 m 5
 415 546 l 5
 416 -18 l 1
 313 -18 l 1
 313 546 l 5
288 709 m 1
 539 457 l 1
 463 381 l 1
 288 558 l 1
 112 381 l 1
 36 457 l 1
 288 709 l 1
EndSplineSet
EndChar

StartChar: arrowdblright
Encoding: 8658 8658 762
GlifName: arrowdblright
Width: 798
Flags: HW
LayerCount: 2
Fore
SplineSet
600 473 m 5
 600 372 l 5
 36 371 l 1
 36 473 l 1
 600 473 l 5
600 319 m 5
 600 218 l 5
 36 217 l 1
 36 319 l 1
 600 319 l 5
763 345 m 1
 511 94 l 1
 435 170 l 1
 611 345 l 1
 435 521 l 1
 511 597 l 1
 763 345 l 1
EndSplineSet
EndChar

StartChar: arrowdbldown
Encoding: 8659 8659 763
GlifName: arrowdbldown
Width: 574
Flags: HW
LayerCount: 2
Fore
SplineSet
415 145 m 5
 313 145 l 5
 312 709 l 1
 415 709 l 1
 415 145 l 5
261 145 m 5
 160 145 l 5
 159 709 l 1
 261 709 l 1
 261 145 l 5
287 -18 m 1
 36 234 l 1
 112 310 l 1
 287 134 l 1
 463 310 l 1
 539 234 l 1
 287 -18 l 1
EndSplineSet
EndChar

StartChar: arrowdblboth
Encoding: 8660 8660 764
GlifName: arrowdblboth
Width: 798
Flags: HW
LayerCount: 2
Fore
SplineSet
763 345 m 1
 511 94 l 1
 435 170 l 1
 611 345 l 1
 435 521 l 1
 511 597 l 1
 763 345 l 1
199 218 m 1
 199 319 l 1
 600 321 l 1
 600 218 l 1
 199 218 l 1
199 372 m 1
 199 473 l 1
 600 474 l 1
 600 372 l 1
 199 372 l 1
36 346 m 1
 288 597 l 1
 364 521 l 1
 187 346 l 1
 364 170 l 1
 288 94 l 1
 36 346 l 1
EndSplineSet
EndChar

StartChar: uni21D5
Encoding: 8661 8661 765
GlifName: uni21D_5
Width: 574
Flags: HW
LayerCount: 2
Fore
SplineSet
287 -18 m 1
 36 234 l 1
 112 310 l 1
 287 134 l 1
 463 310 l 1
 539 234 l 1
 287 -18 l 1
160 546 m 1
 261 546 l 1
 262 145 l 1
 160 145 l 1
 160 546 l 1
313 546 m 1
 415 546 l 1
 416 145 l 1
 313 145 l 1
 313 546 l 1
288 709 m 1
 539 457 l 1
 463 381 l 1
 288 558 l 1
 112 381 l 1
 36 457 l 1
 288 709 l 1
EndSplineSet
EndChar

StartChar: uni21D6
Encoding: 8662 8662 766
GlifName: uni21D_6
Width: 676
Flags: HW
LayerCount: 2
Fore
SplineSet
60 429 m 5
 132 501 l 5
 532 102 l 5
 460 30 l 5
 60 429 l 5
169 538 m 5
 241 609 l 5
 641 211 l 5
 568 139 l 5
 169 538 l 5
36 635 m 5
 392 635 l 5
 392 527 l 5
 143 527 l 5
 143 279 l 5
 36 279 l 5
 36 635 l 5
EndSplineSet
EndChar

StartChar: uni21D7
Encoding: 8663 8663 767
GlifName: uni21D_7
Width: 676
Flags: HW
LayerCount: 2
Fore
SplineSet
435 610 m 5
 507 539 l 5
 109 138 l 5
 36 211 l 5
 435 610 l 5
544 502 m 5
 615 430 l 5
 217 30 l 5
 145 102 l 5
 544 502 l 5
641 635 m 5
 641 279 l 5
 534 279 l 5
 534 527 l 5
 285 527 l 5
 285 635 l 5
 641 635 l 5
EndSplineSet
EndChar

StartChar: uni21D8
Encoding: 8664 8664 768
GlifName: uni21D_8
Width: 676
Flags: HW
LayerCount: 2
Fore
SplineSet
616 236 m 5
 545 164 l 5
 144 562 l 5
 217 635 l 5
 616 236 l 5
508 127 m 5
 436 55 l 5
 36 454 l 5
 109 525 l 5
 508 127 l 5
641 30 m 5
 285 30 l 5
 285 137 l 5
 534 137 l 5
 534 386 l 5
 641 386 l 5
 641 30 l 5
EndSplineSet
EndChar

StartChar: uni21D9
Encoding: 8665 8665 769
GlifName: uni21D_9
Width: 676
Flags: HW
LayerCount: 2
Fore
SplineSet
242 54 m 5
 170 126 l 5
 568 526 l 5
 641 454 l 5
 242 54 l 5
133 163 m 5
 61 234 l 5
 460 635 l 5
 531 562 l 5
 133 163 l 5
36 30 m 5
 36 386 l 5
 143 386 l 5
 143 137 l 5
 392 137 l 5
 392 30 l 5
 36 30 l 5
EndSplineSet
EndChar

StartChar: uni21C4
Encoding: 8644 8644 770
GlifName: uni21C_4
Width: 798
Flags: HW
LayerCount: 2
Fore
SplineSet
158 144 m 5
 158 276 l 5
 763 276 l 5
 763 144 l 5
 158 144 l 5
36 211 m 5
 247 421 l 5
 323 345 l 5
 187 211 l 5
 323 76 l 5
 247 0 l 5
 36 211 l 5
641 567 m 5
 641 435 l 5
 36 435 l 5
 36 567 l 5
 641 567 l 5
763 501 m 5
 552 291 l 5
 476 367 l 5
 611 501 l 5
 476 636 l 5
 552 712 l 5
 763 501 l 5
EndSplineSet
EndChar

StartChar: uni21C5
Encoding: 8645 8645 771
GlifName: uni21C_5
Width: 783
Flags: HW
LayerCount: 2
Fore
SplineSet
180 598 m 1
 312 598 l 1
 312 -8 l 1
 180 -8 l 1
 180 598 l 1
247 719 m 1
 457 508 l 1
 381 433 l 1
 247 568 l 1
 112 433 l 1
 36 508 l 1
 247 719 l 1
603 114 m 1
 471 114 l 1
 471 719 l 1
 603 719 l 1
 603 114 l 1
537 -8 m 1
 327 203 l 1
 402 279 l 1
 537 144 l 1
 672 279 l 1
 748 203 l 1
 537 -8 l 1
EndSplineSet
EndChar

StartChar: uni21C6
Encoding: 8646 8646 772
GlifName: uni21C_6
Width: 798
Flags: HW
LayerCount: 2
Fore
SplineSet
641 144 m 1
 36 144 l 1
 36 276 l 1
 641 276 l 1
 641 144 l 1
763 211 m 1
 552 0 l 1
 476 76 l 1
 611 211 l 1
 476 345 l 1
 552 421 l 1
 763 211 l 1
158 567 m 1
 763 567 l 1
 763 435 l 1
 158 435 l 1
 158 567 l 1
36 501 m 1
 247 712 l 1
 323 636 l 1
 187 501 l 1
 323 367 l 1
 247 291 l 1
 36 501 l 1
EndSplineSet
EndChar

StartChar: uni21C7
Encoding: 8647 8647 773
GlifName: uni21C_7
Width: 798
Flags: HW
LayerCount: 2
Fore
SplineSet
158 461 m 5
 158 593 l 5
 763 593 l 5
 763 461 l 5
 158 461 l 5
36 527 m 5
 226 717 l 5
 302 641 l 5
 187 527 l 5
 302 413 l 5
 226 337 l 5
 36 527 l 5
158 78 m 5
 158 210 l 5
 763 210 l 5
 763 78 l 5
 158 78 l 5
36 144 m 5
 226 334 l 5
 302 258 l 5
 187 144 l 5
 302 30 l 5
 226 -46 l 5
 36 144 l 5
EndSplineSet
EndChar

StartChar: uni21C8
Encoding: 8648 8648 774
GlifName: uni21C_8
Width: 834
Flags: HW
LayerCount: 2
Fore
SplineSet
543 577 m 5
 675 577 l 5
 675 -28 l 5
 543 -28 l 5
 543 577 l 5
609 699 m 5
 799 508 l 5
 723 433 l 5
 609 547 l 5
 495 433 l 5
 419 508 l 5
 609 699 l 5
160 577 m 5
 292 577 l 5
 292 -28 l 5
 160 -28 l 5
 160 577 l 5
226 699 m 5
 416 508 l 5
 340 433 l 5
 226 547 l 5
 112 433 l 5
 36 508 l 5
 226 699 l 5
EndSplineSet
EndChar

StartChar: uni21C9
Encoding: 8649 8649 775
GlifName: uni21C_9
Width: 798
Flags: HW
LayerCount: 2
Fore
SplineSet
641 210 m 5
 641 78 l 5
 36 78 l 5
 36 210 l 5
 641 210 l 5
763 143 m 5
 572 -46 l 5
 497 30 l 5
 611 143 l 5
 497 258 l 5
 572 334 l 5
 763 143 l 5
641 593 m 5
 641 461 l 5
 36 461 l 5
 36 593 l 5
 641 593 l 5
763 526 m 5
 572 337 l 5
 497 413 l 5
 611 526 l 5
 497 641 l 5
 572 717 l 5
 763 526 l 5
EndSplineSet
EndChar

StartChar: uni21CA
Encoding: 8650 8650 776
GlifName: uni21C_A_
Width: 834
Flags: HW
LayerCount: 2
Fore
SplineSet
292 94 m 1
 160 94 l 1
 160 699 l 1
 292 699 l 1
 292 94 l 1
225 -28 m 1
 36 162 l 1
 112 238 l 1
 225 123 l 1
 340 238 l 1
 416 162 l 1
 225 -28 l 1
675 94 m 1
 543 94 l 1
 543 699 l 1
 675 699 l 1
 675 94 l 1
608 -28 m 1
 419 162 l 1
 495 238 l 1
 608 123 l 1
 723 238 l 1
 799 162 l 1
 608 -28 l 1
EndSplineSet
EndChar

StartChar: uni21CB
Encoding: 8651 8651 777
GlifName: uni21C_B_
Width: 798
Flags: HW
LayerCount: 2
Fore
SplineSet
244 504 m 1
 763 504 l 1
 763 360 l 1
 36 360 l 1
 36 488 l 1
 226 679 l 1
 323 583 l 1
 244 504 l 1
555 157 m 1
 36 157 l 1
 36 299 l 1
 763 299 l 1
 763 172 l 1
 572 -18 l 1
 476 78 l 1
 555 157 l 1
EndSplineSet
EndChar

StartChar: uni21CC
Encoding: 8652 8652 778
GlifName: uni21C_C_
Width: 798
Flags: HW
LayerCount: 2
Fore
SplineSet
555 504 m 1
 476 583 l 1
 572 679 l 1
 763 488 l 1
 763 360 l 1
 36 360 l 1
 36 504 l 1
 555 504 l 1
244 157 m 1
 323 78 l 1
 226 -18 l 1
 36 172 l 1
 36 299 l 1
 763 299 l 1
 763 157 l 1
 244 157 l 1
EndSplineSet
EndChar

StartChar: uni21CD
Encoding: 8653 8653 779
GlifName: uni21C_D_
Width: 798
Flags: HW
LayerCount: 2
Fore
SplineSet
542 597 m 5
 667 597 l 5
 495 75 l 5
 370 75 l 5
 542 597 l 5
199 218 m 1
 199 319 l 1
 763 321 l 1
 763 218 l 1
 199 218 l 1
199 372 m 1
 199 473 l 1
 763 474 l 1
 763 372 l 1
 199 372 l 1
36 346 m 1
 288 597 l 1
 364 521 l 1
 187 346 l 1
 364 170 l 1
 288 94 l 1
 36 346 l 1
EndSplineSet
EndChar

StartChar: uni21CE
Encoding: 8654 8654 780
GlifName: uni21C_E_
Width: 798
Flags: HW
LayerCount: 2
Fore
SplineSet
408 597 m 1
 481 597 l 5
 387 75 l 5
 313 75 l 1
 408 597 l 1
763 345 m 1
 542 115 l 1
 466 190 l 1
 611 345 l 1
 466 501 l 1
 542 577 l 1
 763 345 l 1
199 218 m 1
 199 319 l 1
 600 321 l 1
 600 218 l 1
 199 218 l 1
199 372 m 1
 199 473 l 1
 600 474 l 1
 600 372 l 1
 199 372 l 1
36 346 m 1
 257 577 l 1
 333 501 l 1
 187 346 l 1
 333 190 l 1
 257 115 l 1
 36 346 l 1
EndSplineSet
EndChar

StartChar: uni21CF
Encoding: 8655 8655 781
GlifName: uni21C_F_
Width: 798
Flags: HW
LayerCount: 2
Fore
SplineSet
286 597 m 5
 411 597 l 5
 239 75 l 5
 114 75 l 5
 286 597 l 5
600 473 m 1
 600 372 l 1
 36 371 l 1
 36 473 l 1
 600 473 l 1
600 319 m 1
 600 218 l 1
 36 217 l 1
 36 319 l 1
 600 319 l 1
763 345 m 1
 511 94 l 1
 435 170 l 1
 611 345 l 1
 435 521 l 1
 511 597 l 1
 763 345 l 1
EndSplineSet
EndChar

